<svg xmlns="http://www.w3.org/2000/svg" width="4400" height="2000.003" viewBox="0 0 4400 2000.003"><path d="M5531,2411h0l-1644.011,0h-.009c-1.188-.012-29.559-.307-70.121-2.239-24.191-1.152-47.928-2.653-70.553-4.463-28.262-2.258-54.841-5.006-79-8.168-32.546-4.258-54.025-6.156-69.644-6.156a194.859,194.859,0,0,0-28.827,2.278l-.01,0h-.008c-12.9,1.727-28.957,3.877-62.937,3.877-72.242,0-94.4-9.985-131.118-26.528l-.053-.023-.031-.014c-7.483-3.371-15.22-6.857-24.234-10.657a58.5,58.5,0,0,0-23.148-4.72c-7.839,0-16.152,1.443-26.158,4.542-9.006,2.786-18.562,6.664-28.679,10.769l-.041.017-.156.062c-4.429,1.8-9.448,3.836-14.709,5.882a328.824,328.824,0,0,1-46.282,14.625,262.224,262.224,0,0,1-27.894,4.819,273.5,273.5,0,0,1-31.784,1.828c-6.169,0-12.518-.2-18.871-.6-25.028-1.572-45.022-2.336-61.127-2.336-12.349,0-22.847.433-33.038,1.365-9.19.84-17.4,2.023-26.085,3.274l-.045.007h-.012l-.042.006c-9.137,1.317-19.493,2.81-32.851,4.173-15.348,1.568-32.322,2.731-51.893,3.554-31.271,1.314-81.566,3.1-143.586,4.141-36.251.611-60.286.683-61.292.686H1131V411H5531V2411Z" transform="translate(-1131 -410.999)" fill="#fff"/></svg>