<?xml version="1.0" encoding="utf-8"?>
<!-- Generator: Adobe Illustrator 24.0.1, SVG Export Plug-In . SVG Version: 6.00 Build 0)  -->
<svg version="1.1" id="Capa_1" xmlns="http://www.w3.org/2000/svg" xmlns:xlink="http://www.w3.org/1999/xlink" x="0px" y="0px"
	 viewBox="0 0 4400 509.5" style="enable-background:new 0 0 4400 509.5;" xml:space="preserve">
<style type="text/css">
	.st0{fill:#FFFFFF;}
</style>
<path class="st0" d="M4400,509.5L4400,509.5H2756h0c-1.2,0-29.6-0.3-70.1-2.2c-24.2-1.2-47.9-2.7-70.6-4.5c-28.3-2.3-54.8-5-79-8.2
	c-32.5-4.3-54-6.2-69.6-6.2c-9.7,0-19.3,0.8-28.8,2.3h0h0c-12.9,1.7-29,3.9-62.9,3.9c-72.2,0-94.4-10-131.1-26.5l-0.1,0l0,0
	c-7.5-3.4-15.2-6.9-24.2-10.7c-7.3-3.1-15.2-4.7-23.1-4.7c-7.8,0-16.2,1.4-26.2,4.5c-9,2.8-18.6,6.7-28.7,10.8l0,0l-0.2,0.1
	c-4.4,1.8-9.4,3.8-14.7,5.9c-15,6-30.5,10.9-46.3,14.6c-9.2,2.1-18.5,3.7-27.9,4.8c-10.6,1.2-21.2,1.8-31.8,1.8
	c-6.2,0-12.5-0.2-18.9-0.6c-25-1.6-45-2.3-61.1-2.3c-12.3,0-22.8,0.4-33,1.4c-9.2,0.8-17.4,2-26.1,3.3l0,0h0l0,0
	c-9.1,1.3-19.5,2.8-32.9,4.2c-15.3,1.6-32.3,2.7-51.9,3.6c-31.3,1.3-81.6,3.1-143.6,4.1c-36.3,0.6-60.3,0.7-61.3,0.7H0V0h4400V509.5
	z"/>
</svg>
