<svg xmlns="http://www.w3.org/2000/svg" viewBox="0 0 48 48"><path d="M24,40.5c-5.9,0-11.6-2.8-16.6-8.2a31.9,31.9,0,0,1-5.8-8.1.3.3,0,0,1,0-.4,31.9,31.9,0,0,1,5.8-8.1c5-5.4,10.7-8.2,16.6-8.2s11.6,2.8,16.6,8.2a31.9,31.9,0,0,1,5.8,8.1.3.3,0,0,1,0,.4,31.9,31.9,0,0,1-5.8,8.1C35.6,37.7,29.9,40.5,24,40.5ZM2.6,24c1,1.9,8.8,15.5,21.4,15.5S44.4,25.9,45.4,24C44.4,22.1,36.6,8.5,24,8.5S3.6,22.1,2.6,24Z"/><path d="M24,30.5A6.5,6.5,0,1,1,30.5,24,6.5,6.5,0,0,1,24,30.5Zm0-12A5.5,5.5,0,1,0,29.5,24,5.5,5.5,0,0,0,24,18.5Z"/></svg>