<svg version="1.1" id="Layer_1" xmlns="http://www.w3.org/2000/svg" xmlns:xlink="http://www.w3.org/1999/xlink" viewBox="0 0 100 100">
<style type="text/css">
	.st0{fill:#666666;}
	.st1{fill:#212121;}
	@media (prefers-color-scheme: dark) {
    .st0{fill:#666666;}
		.st1{fill:#e5e5e5;}
  }
</style>
<path class="st0" d="M21.33,23.82c0.17,0,0.32,0.04,0.45,0.11c0.01,0.01,0.03,0.01,0.04,0.01c0.86,0.13,1.53,0.51,2.03,1.16
	s0.64,1.42,0.43,2.32v0.06c-0.13,0.61-0.47,1.14-1.04,1.59c-0.58,0.45-1.17,0.67-1.78,0.67c-0.04,0-0.11-0.01-0.18-0.04
	c-0.08-0.02-0.14-0.03-0.18-0.03c-0.1-0.02-0.22-0.04-0.38-0.05c-2.9,0.1-5.25,0.89-7.05,2.37c-1.88,1.58-2.82,3.62-2.82,6.11
	c0,1.63,0.53,3.07,1.6,4.33c1.02,1.18,2.62,2.2,4.79,3.05c1.14,0.49,2.35,0.86,3.62,1.1c0.37,0.08,0.73,0.16,1.07,0.24
	c0.35,0.08,0.64,0.14,0.86,0.18c0.23,0.04,0.36,0.06,0.4,0.06l3.26,0.73c9.17,2.57,13.75,7.22,13.75,13.98
	c0,2.76-0.73,5.25-2.21,7.45c-1.47,2.2-3.52,3.91-6.14,5.13c-2.66,1.22-5.71,1.83-9.14,1.83h-0.37c-0.16-0.04-0.41-0.06-0.73-0.06
	c-0.57,0-1.17-0.27-1.78-0.79c-0.53-0.49-0.86-1.02-0.98-1.59v-0.06c0-0.08-0.01-0.16-0.03-0.24c-0.02-0.08-0.04-0.16-0.04-0.24
	c0-0.81,0.29-1.5,0.86-2.07c0.53-0.53,1.23-0.79,2.09-0.79h0.13c0.52,0,0.92,0.02,1.2,0.06c3.39-0.04,6.12-0.86,8.19-2.44
	c2.04-1.55,3.07-3.6,3.07-6.17c0-1.91-0.54-3.42-1.6-4.52c-1.07-1.14-2.45-2.04-4.18-2.69c-1.35-0.53-3.56-1.14-6.63-1.83
	c-5.03-1.1-9.11-2.7-12.22-4.83C6.55,45.81,5,42.57,5,38.22c0-2.76,0.67-5.25,2.03-7.45s3.25-3.91,5.71-5.13
	c2.12-1.05,4.55-1.65,7.29-1.79c0.14-0.02,0.29-0.04,0.45-0.04h0.13c0.05,0,0.12,0.01,0.19,0.01h0.02
	C20.98,23.82,21.16,23.82,21.33,23.82L21.33,23.82z"/>
<path class="st0" d="M33.06,28.27c0.86,0,1.55,0.3,2.09,0.92c0.2,0.2,0.47,0.51,0.8,0.91c0.53,0.66,0.74,1.41,0.61,2.26
	c-0.13,0.77-0.53,1.42-1.23,1.95l-0.06,0.06c-0.46,0.29-0.99,0.43-1.6,0.43c-0.98,0-1.74-0.35-2.28-1.04
	c-0.08-0.08-0.16-0.18-0.24-0.3c-0.08-0.13-0.16-0.21-0.24-0.24c-0.53-0.53-0.8-1.2-0.8-2.02c0-0.53,0.16-1.05,0.49-1.58v-0.06
	C31.13,28.7,31.95,28.27,33.06,28.27L33.06,28.27z"/>
<path class="st0" d="M8.38,64.34c0.86,0,1.55,0.3,2.08,0.92c0.41,0.41,0.7,0.71,0.86,0.92c0.49,0.61,0.67,1.35,0.55,2.2
	c-0.13,0.77-0.53,1.42-1.23,1.95l-0.06,0.06c-0.53,0.33-1.06,0.49-1.6,0.49c-0.94,0-1.68-0.37-2.21-1.1
	c-0.04-0.08-0.13-0.18-0.24-0.3c-0.13-0.13-0.21-0.2-0.24-0.24c-0.54-0.53-0.8-1.18-0.8-1.95c0-0.57,0.16-1.12,0.49-1.65
	C6.55,64.77,7.35,64.34,8.38,64.34L8.38,64.34z"/>
<path class="st1" d="M58.17,23.26h-0.18c-0.82,0-1.54,0.3-2.15,0.92c-0.61,0.61-0.92,1.32-0.92,2.14v47.36
	c0,0.82,0.31,1.52,0.92,2.14c0.61,0.61,1.33,0.92,2.15,0.92s1.54-0.3,2.15-0.92c0.61-0.61,0.92-1.32,0.92-2.14l0.13-47.36
	c0-0.82-0.3-1.52-0.89-2.14C59.7,23.57,59,23.26,58.17,23.26z"/>
<path class="st1" d="M91.94,23.26h-0.13c-0.82,0-1.54,0.3-2.15,0.92c-0.61,0.61-0.92,1.32-0.92,2.14V64l-15.9-22.87
	c-0.57-0.85-1.41-1.28-2.52-1.28c-0.66,0-1.24,0.18-1.78,0.55c-0.82,0.53-1.23,1.36-1.23,2.5c0,0.65,0.18,1.24,0.55,1.77
	l21.37,30.67c0.32,0.46,0.69,0.8,1.13,1.02c0.44,0.25,0.92,0.38,1.45,0.38c0.82,0,1.52-0.3,2.12-0.92c0.6-0.61,0.89-1.32,0.89-2.14
	L95,26.32c0-0.82-0.31-1.52-0.92-2.14C93.48,23.57,92.76,23.26,91.94,23.26z"/>
</svg>
