<?xml version="1.0" encoding="utf-8"?>
<!-- Generator: Adobe Illustrator 23.0.6, SVG Export Plug-In . SVG Version: 6.00 Build 0)  -->
<svg version="1.1" id="Layer_1" xmlns="http://www.w3.org/2000/svg" xmlns:xlink="http://www.w3.org/1999/xlink" x="0px" y="0px"
	 viewBox="0 0 100 100" enable-background="new 0 0 100 100" xml:space="preserve">
<g>
	<g>
		<path d="M46.88,2.23c0-0.14-0.11-0.25-0.24-0.25c-0.14,0-0.25,0.11-0.25,0.25c0,0.14,0.11,0.24,0.25,0.24
			C46.77,2.47,46.88,2.36,46.88,2.23z"/>
		<path d="M47.04,3c-0.14,0-0.25,0.11-0.25,0.25s0.11,0.24,0.25,0.24c0.14,0,0.24-0.11,0.24-0.24S47.17,3,47.04,3z"/>
		<path d="M48.26,2.47c0.14,0,0.25-0.11,0.25-0.24c0-0.14-0.11-0.25-0.25-0.25c-0.14,0-0.24,0.11-0.24,0.25
			C48.02,2.36,48.13,2.47,48.26,2.47z"/>
		<path d="M48.67,3c-0.14,0-0.25,0.11-0.25,0.25s0.11,0.24,0.25,0.24c0.14,0,0.24-0.11,0.24-0.24S48.81,3,48.67,3z"/>
		<path d="M48.26,4.12c-0.14,0-0.24,0.11-0.24,0.24c0,0.14,0.11,0.25,0.24,0.25c0.14,0,0.25-0.11,0.25-0.25
			C48.51,4.23,48.4,4.12,48.26,4.12z"/>
		<path d="M49.9,4.12c-0.14,0-0.24,0.11-0.24,0.24c0,0.14,0.11,0.25,0.24,0.25c0.14,0,0.25-0.11,0.25-0.25
			C50.14,4.23,50.03,4.12,49.9,4.12z"/>
		<path d="M51.43,4.12c-0.14,0-0.25,0.11-0.25,0.24c0,0.14,0.11,0.25,0.25,0.25c0.13,0,0.24-0.11,0.24-0.25
			C51.67,4.23,51.56,4.12,51.43,4.12z"/>
		<path d="M52.96,4.12c-0.14,0-0.25,0.11-0.25,0.24c0,0.14,0.11,0.25,0.25,0.25c0.13,0,0.24-0.11,0.24-0.25
			C53.21,4.23,53.1,4.12,52.96,4.12z"/>
		<path d="M53.88,5.04c-0.14,0-0.25,0.11-0.25,0.25c0,0.14,0.11,0.24,0.25,0.24s0.25-0.11,0.25-0.24
			C54.12,5.15,54.01,5.04,53.88,5.04z"/>
		<path d="M50,2.47c0.14,0,0.25-0.11,0.25-0.24c0-0.14-0.11-0.25-0.25-0.25s-0.25,0.11-0.25,0.25C49.75,2.36,49.86,2.47,50,2.47z"/>
		<path d="M50.41,3c-0.14,0-0.24,0.11-0.24,0.25s0.11,0.24,0.24,0.24s0.24-0.11,0.24-0.24S50.54,3,50.41,3z"/>
		<path d="M51.63,2.47c0.14,0,0.25-0.11,0.25-0.24c0-0.14-0.11-0.25-0.25-0.25c-0.13,0-0.24,0.11-0.24,0.25
			C51.39,2.36,51.5,2.47,51.63,2.47z"/>
		<path d="M52.04,3c-0.14,0-0.25,0.11-0.25,0.25s0.11,0.24,0.25,0.24c0.14,0,0.25-0.11,0.25-0.24S52.18,3,52.04,3z"/>
		<path d="M49.18,5.25c-0.14,0-0.25,0.11-0.25,0.24c0,0.14,0.11,0.25,0.25,0.25s0.24-0.11,0.24-0.25
			C49.43,5.36,49.32,5.25,49.18,5.25z"/>
		<path d="M50.92,5.25c-0.14,0-0.25,0.11-0.25,0.24c0,0.14,0.11,0.25,0.25,0.25c0.13,0,0.24-0.11,0.24-0.25
			C51.16,5.36,51.05,5.25,50.92,5.25z"/>
		<path d="M52.55,5.25c-0.14,0-0.25,0.11-0.25,0.24c0,0.14,0.11,0.25,0.25,0.25c0.14,0,0.25-0.11,0.25-0.25
			C52.8,5.36,52.69,5.25,52.55,5.25z"/>
		<path d="M53.16,2.47c0.14,0,0.25-0.11,0.25-0.24c0-0.14-0.11-0.25-0.25-0.25c-0.13,0-0.24,0.11-0.24,0.25
			C52.92,2.36,53.03,2.47,53.16,2.47z"/>
		<path d="M53.82,3.25c0-0.14-0.11-0.25-0.25-0.25c-0.14,0-0.25,0.11-0.25,0.25s0.11,0.24,0.25,0.24
			C53.71,3.49,53.82,3.38,53.82,3.25z"/>
	</g>
	<g>
		<path d="M32.27,5.53c-0.04-0.13-0.18-0.2-0.31-0.16c-0.13,0.04-0.2,0.18-0.16,0.31c0.04,0.13,0.18,0.2,0.31,0.16
			C32.24,5.8,32.31,5.66,32.27,5.53z"/>
		<path d="M32.66,6.22c-0.13,0.04-0.2,0.18-0.16,0.31c0.04,0.13,0.18,0.2,0.31,0.16c0.13-0.04,0.2-0.18,0.16-0.31
			C32.93,6.25,32.79,6.17,32.66,6.22z"/>
		<path d="M33.66,5.33c0.13-0.04,0.2-0.18,0.16-0.31c-0.04-0.13-0.18-0.2-0.31-0.16s-0.2,0.18-0.16,0.31
			C33.4,5.3,33.53,5.37,33.66,5.33z"/>
		<path d="M34.21,5.71c-0.13,0.04-0.2,0.18-0.16,0.31c0.04,0.13,0.18,0.2,0.31,0.16c0.13-0.04,0.2-0.18,0.16-0.31
			C34.48,5.74,34.34,5.67,34.21,5.71z"/>
		<path d="M34.17,6.91c-0.13,0.04-0.2,0.18-0.16,0.31c0.04,0.13,0.18,0.2,0.31,0.16c0.13-0.04,0.2-0.18,0.16-0.31
			C34.44,6.93,34.3,6.86,34.17,6.91z"/>
		<path d="M35.73,6.4c-0.13,0.04-0.2,0.18-0.16,0.31c0.04,0.13,0.18,0.2,0.31,0.16c0.13-0.04,0.2-0.18,0.16-0.31
			C35.99,6.43,35.85,6.36,35.73,6.4z"/>
		<path d="M37.18,5.93c-0.13,0.04-0.2,0.18-0.16,0.31c0.04,0.13,0.18,0.2,0.31,0.16c0.13-0.04,0.2-0.18,0.16-0.31
			C37.45,5.96,37.31,5.89,37.18,5.93z"/>
		<path d="M38.64,5.45c-0.13,0.04-0.2,0.18-0.16,0.31c0.04,0.13,0.18,0.2,0.31,0.16c0.13-0.04,0.2-0.18,0.16-0.31
			C38.91,5.48,38.77,5.41,38.64,5.45z"/>
		<path d="M39.8,6.04c-0.13,0.04-0.2,0.18-0.16,0.31c0.04,0.13,0.18,0.2,0.31,0.16c0.13-0.04,0.2-0.18,0.16-0.31
			C40.06,6.07,39.93,6,39.8,6.04z"/>
		<path d="M35.31,4.8c0.13-0.04,0.2-0.18,0.16-0.31c-0.04-0.13-0.18-0.2-0.31-0.16S34.96,4.51,35,4.64
			C35.05,4.77,35.18,4.84,35.31,4.8z"/>
		<path d="M35.86,5.17c-0.13,0.04-0.2,0.18-0.16,0.31c0.04,0.13,0.18,0.2,0.31,0.16c0.13-0.04,0.2-0.18,0.16-0.31
			C36.13,5.2,35.99,5.13,35.86,5.17z"/>
		<path d="M36.87,4.29c0.13-0.04,0.2-0.18,0.16-0.31c-0.04-0.13-0.18-0.2-0.31-0.16c-0.13,0.04-0.2,0.18-0.16,0.31
			C36.6,4.26,36.74,4.33,36.87,4.29z"/>
		<path d="M37.42,4.67c-0.13,0.04-0.2,0.18-0.16,0.31c0.04,0.13,0.18,0.2,0.31,0.16s0.2-0.18,0.16-0.31
			C37.69,4.7,37.55,4.63,37.42,4.67z"/>
		<path d="M35.39,7.69c-0.13,0.04-0.2,0.18-0.16,0.31c0.04,0.13,0.18,0.2,0.31,0.16c0.13-0.04,0.2-0.18,0.16-0.31
			C35.66,7.72,35.52,7.65,35.39,7.69z"/>
		<path d="M37.04,7.15c-0.13,0.04-0.2,0.18-0.16,0.31c0.04,0.13,0.18,0.2,0.31,0.16c0.13-0.04,0.2-0.18,0.16-0.31
			C37.31,7.18,37.17,7.11,37.04,7.15z"/>
		<path d="M38.6,6.65c-0.13,0.04-0.2,0.18-0.16,0.31c0.04,0.13,0.18,0.2,0.31,0.16s0.2-0.18,0.16-0.31
			C38.86,6.68,38.73,6.61,38.6,6.65z"/>
		<path d="M38.32,3.82c0.13-0.04,0.2-0.18,0.16-0.31c-0.04-0.13-0.18-0.2-0.31-0.16c-0.13,0.04-0.2,0.18-0.16,0.31
			C38.06,3.79,38.19,3.86,38.32,3.82z"/>
		<path d="M39.18,4.35C39.14,4.23,39,4.16,38.87,4.2s-0.2,0.18-0.16,0.31c0.04,0.13,0.18,0.2,0.31,0.16
			C39.15,4.62,39.23,4.48,39.18,4.35z"/>
	</g>
	<g>
		<path d="M19.39,13.19c-0.08-0.11-0.23-0.13-0.34-0.05c-0.11,0.08-0.13,0.23-0.05,0.34c0.08,0.11,0.23,0.13,0.34,0.05
			C19.45,13.45,19.47,13.29,19.39,13.19z"/>
		<path d="M19.98,13.72c-0.11,0.08-0.13,0.23-0.05,0.34c0.08,0.11,0.23,0.13,0.34,0.05c0.11-0.08,0.13-0.23,0.05-0.34
			S20.09,13.64,19.98,13.72z"/>
		<path d="M20.66,12.57c0.11-0.08,0.13-0.23,0.05-0.34c-0.08-0.11-0.23-0.13-0.34-0.05c-0.11,0.08-0.13,0.23-0.05,0.34
			C20.4,12.62,20.55,12.65,20.66,12.57z"/>
		<path d="M21.3,12.76c-0.11,0.08-0.13,0.23-0.05,0.34c0.08,0.11,0.23,0.13,0.34,0.05c0.11-0.08,0.13-0.23,0.05-0.34
			C21.56,12.7,21.41,12.68,21.3,12.76z"/>
		<path d="M21.63,13.91c-0.11,0.08-0.13,0.23-0.05,0.34c0.08,0.11,0.23,0.13,0.34,0.05c0.11-0.08,0.13-0.23,0.05-0.34
			C21.89,13.85,21.74,13.83,21.63,13.91z"/>
		<path d="M22.95,12.95c-0.11,0.08-0.13,0.23-0.05,0.34c0.08,0.11,0.23,0.13,0.34,0.05c0.11-0.08,0.13-0.23,0.05-0.34
			C23.21,12.89,23.06,12.87,22.95,12.95z"/>
		<path d="M24.19,12.05c-0.11,0.08-0.13,0.23-0.05,0.34c0.08,0.11,0.23,0.13,0.34,0.05c0.11-0.08,0.13-0.23,0.05-0.34
			C24.45,11.99,24.3,11.97,24.19,12.05z"/>
		<path d="M25.43,11.15c-0.11,0.08-0.13,0.23-0.05,0.34s0.23,0.13,0.34,0.05c0.11-0.08,0.13-0.23,0.05-0.34
			C25.69,11.09,25.54,11.07,25.43,11.15z"/>
		<path d="M26.71,11.35c-0.11,0.08-0.13,0.23-0.05,0.34c0.08,0.11,0.23,0.13,0.34,0.05c0.11-0.08,0.13-0.23,0.05-0.34
			C26.98,11.29,26.82,11.27,26.71,11.35z"/>
		<path d="M22.06,11.55c0.11-0.08,0.13-0.23,0.05-0.34c-0.08-0.11-0.23-0.13-0.34-0.05c-0.11,0.08-0.13,0.23-0.05,0.34
			C21.8,11.6,21.95,11.63,22.06,11.55z"/>
		<path d="M22.7,11.74c-0.11,0.08-0.13,0.23-0.05,0.34s0.23,0.13,0.34,0.05c0.11-0.08,0.13-0.23,0.05-0.34
			C22.97,11.68,22.81,11.66,22.7,11.74z"/>
		<path d="M23.38,10.59c0.11-0.08,0.13-0.23,0.05-0.34c-0.08-0.11-0.23-0.13-0.34-0.05c-0.11,0.08-0.13,0.23-0.05,0.34
			C23.12,10.64,23.27,10.67,23.38,10.59z"/>
		<path d="M24.03,10.78c-0.11,0.08-0.13,0.23-0.05,0.34s0.23,0.13,0.34,0.05c0.11-0.08,0.13-0.23,0.05-0.34
			C24.29,10.72,24.14,10.7,24.03,10.78z"/>
		<path d="M23.03,14.27c-0.11,0.08-0.13,0.23-0.05,0.34c0.08,0.11,0.23,0.13,0.34,0.05c0.11-0.08,0.13-0.23,0.05-0.34
			C23.3,14.22,23.14,14.19,23.03,14.27z"/>
		<path d="M24.44,13.25c-0.11,0.08-0.13,0.23-0.05,0.34c0.08,0.11,0.23,0.13,0.34,0.05c0.11-0.08,0.13-0.23,0.05-0.34
			C24.7,13.2,24.55,13.17,24.44,13.25z"/>
		<path d="M25.76,12.29c-0.11,0.08-0.13,0.23-0.05,0.34c0.08,0.11,0.23,0.13,0.34,0.05c0.11-0.08,0.13-0.23,0.05-0.34
			S25.87,12.21,25.76,12.29z"/>
		<path d="M24.62,9.69c0.11-0.08,0.13-0.23,0.05-0.34c-0.08-0.11-0.23-0.13-0.34-0.05c-0.11,0.08-0.13,0.23-0.05,0.34
			C24.36,9.74,24.51,9.77,24.62,9.69z"/>
		<path d="M25.61,9.93c-0.08-0.11-0.23-0.13-0.34-0.05c-0.11,0.08-0.13,0.23-0.05,0.34c0.08,0.11,0.23,0.13,0.34,0.05
			C25.66,10.19,25.69,10.04,25.61,9.93z"/>
	</g>
	<g>
		<path d="M9.51,24.45c-0.11-0.08-0.26-0.06-0.34,0.05c-0.08,0.11-0.06,0.26,0.05,0.34c0.11,0.08,0.26,0.05,0.34-0.05
			S9.62,24.53,9.51,24.45z"/>
		<path d="M10.24,24.77c-0.08,0.11-0.06,0.26,0.05,0.34s0.26,0.05,0.34-0.05c0.08-0.11,0.06-0.26-0.05-0.34
			C10.47,24.64,10.32,24.66,10.24,24.77z"/>
		<path d="M10.53,23.47c0.08-0.11,0.06-0.26-0.05-0.34c-0.11-0.08-0.26-0.06-0.34,0.05c-0.08,0.11-0.05,0.26,0.05,0.34
			C10.29,23.6,10.45,23.58,10.53,23.47z"/>
		<path d="M11.2,23.45c-0.08,0.11-0.06,0.26,0.05,0.34c0.11,0.08,0.26,0.05,0.34-0.05c0.08-0.11,0.06-0.26-0.05-0.34
			C11.43,23.31,11.28,23.34,11.2,23.45z"/>
		<path d="M11.87,24.44c-0.08,0.11-0.06,0.26,0.05,0.34s0.26,0.06,0.34-0.05c0.08-0.11,0.06-0.26-0.05-0.34
			C12.1,24.3,11.94,24.33,11.87,24.44z"/>
		<path d="M12.83,23.12c-0.08,0.11-0.06,0.26,0.05,0.34c0.11,0.08,0.26,0.06,0.34-0.05c0.08-0.11,0.06-0.26-0.05-0.34
			C13.06,22.98,12.9,23.01,12.83,23.12z"/>
		<path d="M13.73,21.88c-0.08,0.11-0.06,0.26,0.05,0.34s0.26,0.06,0.34-0.05c0.08-0.11,0.05-0.26-0.05-0.34
			C13.96,21.74,13.8,21.77,13.73,21.88z"/>
		<path d="M14.63,20.64c-0.08,0.11-0.06,0.26,0.05,0.34c0.11,0.08,0.26,0.06,0.34-0.05c0.08-0.11,0.05-0.26-0.05-0.34
			C14.86,20.51,14.7,20.53,14.63,20.64z"/>
		<path d="M15.91,20.44c-0.08,0.11-0.06,0.26,0.05,0.34c0.11,0.08,0.26,0.06,0.34-0.05c0.08-0.11,0.06-0.26-0.05-0.34
			S15.99,20.33,15.91,20.44z"/>
		<path d="M11.55,22.06c0.08-0.11,0.06-0.26-0.05-0.34c-0.11-0.08-0.26-0.06-0.34,0.05c-0.08,0.11-0.06,0.26,0.05,0.34
			C11.31,22.2,11.47,22.17,11.55,22.06z"/>
		<path d="M12.22,22.04c-0.08,0.11-0.05,0.26,0.05,0.34c0.11,0.08,0.26,0.06,0.34-0.05c0.08-0.11,0.06-0.26-0.05-0.34
			C12.45,21.91,12.3,21.94,12.22,22.04z"/>
		<path d="M12.51,20.74c0.08-0.11,0.06-0.26-0.05-0.34c-0.11-0.08-0.26-0.06-0.34,0.05c-0.08,0.11-0.05,0.26,0.05,0.34
			C12.27,20.87,12.43,20.85,12.51,20.74z"/>
		<path d="M13.18,20.72c-0.08,0.11-0.06,0.26,0.05,0.34c0.11,0.08,0.26,0.06,0.34-0.05c0.08-0.11,0.06-0.26-0.05-0.34
			C13.41,20.59,13.26,20.61,13.18,20.72z"/>
		<path d="M13.31,24.36c-0.08,0.11-0.06,0.26,0.05,0.34c0.11,0.08,0.26,0.06,0.34-0.05c0.08-0.11,0.05-0.26-0.05-0.34
			C13.55,24.22,13.39,24.25,13.31,24.36z"/>
		<path d="M14.33,22.95c-0.08,0.11-0.06,0.26,0.05,0.34c0.11,0.08,0.26,0.06,0.34-0.05c0.08-0.11,0.05-0.26-0.05-0.34
			C14.57,22.82,14.41,22.84,14.33,22.95z"/>
		<path d="M15.29,21.63c-0.08,0.11-0.06,0.26,0.05,0.34c0.11,0.08,0.26,0.06,0.34-0.05s0.06-0.26-0.05-0.34
			C15.53,21.5,15.37,21.52,15.29,21.63z"/>
		<path d="M13.41,19.5c0.08-0.11,0.06-0.26-0.05-0.34c-0.11-0.08-0.26-0.06-0.34,0.05c-0.08,0.11-0.05,0.26,0.05,0.34
			C13.17,19.64,13.33,19.61,13.41,19.5z"/>
		<path d="M14.42,19.43c-0.11-0.08-0.26-0.06-0.34,0.05s-0.06,0.26,0.05,0.34c0.11,0.08,0.26,0.06,0.34-0.05
			C14.55,19.66,14.53,19.51,14.42,19.43z"/>
	</g>
	<g>
		<path d="M3.6,38.21c-0.13-0.04-0.27,0.03-0.31,0.16s0.03,0.27,0.16,0.31c0.13,0.04,0.27-0.03,0.31-0.16
			C3.8,38.39,3.73,38.25,3.6,38.21z"/>
		<path d="M4.39,38.29c-0.04,0.13,0.03,0.27,0.16,0.31c0.13,0.04,0.27-0.03,0.31-0.16c0.04-0.13-0.03-0.27-0.16-0.31
			C4.57,38.09,4.43,38.16,4.39,38.29z"/>
		<path d="M4.26,36.96c0.04-0.13-0.03-0.27-0.16-0.31c-0.13-0.04-0.27,0.03-0.31,0.16c-0.04,0.13,0.03,0.27,0.16,0.31
			C4.08,37.16,4.22,37.09,4.26,36.96z"/>
		<path d="M4.89,36.74c-0.04,0.13,0.03,0.27,0.16,0.31c0.13,0.04,0.27-0.03,0.31-0.16c0.04-0.13-0.03-0.27-0.16-0.31
			C5.07,36.54,4.93,36.61,4.89,36.74z"/>
		<path d="M5.83,37.47c-0.04,0.13,0.03,0.27,0.16,0.31c0.13,0.04,0.27-0.03,0.31-0.16c0.04-0.13-0.03-0.27-0.16-0.31
			C6.01,37.27,5.87,37.35,5.83,37.47z"/>
		<path d="M6.34,35.92c-0.04,0.13,0.03,0.27,0.16,0.31c0.13,0.04,0.27-0.03,0.31-0.16c0.04-0.13-0.03-0.27-0.16-0.31
			C6.52,35.72,6.38,35.79,6.34,35.92z"/>
		<path d="M6.81,34.46c-0.04,0.13,0.03,0.27,0.16,0.31c0.13,0.04,0.27-0.03,0.31-0.16c0.04-0.13-0.03-0.27-0.16-0.31
			C6.99,34.27,6.85,34.34,6.81,34.46z"/>
		<path d="M7.28,33.01c-0.04,0.13,0.03,0.27,0.16,0.31c0.13,0.04,0.27-0.03,0.31-0.16c0.04-0.13-0.03-0.27-0.16-0.31
			C7.46,32.81,7.33,32.88,7.28,33.01z"/>
		<path d="M8.44,32.42c-0.04,0.13,0.03,0.27,0.16,0.31c0.13,0.04,0.27-0.03,0.31-0.16c0.04-0.13-0.03-0.27-0.16-0.31
			C8.62,32.22,8.48,32.29,8.44,32.42z"/>
		<path d="M4.8,35.31c0.04-0.13-0.03-0.27-0.16-0.31c-0.13-0.04-0.27,0.03-0.31,0.16s0.03,0.27,0.16,0.31
			C4.62,35.51,4.75,35.44,4.8,35.31z"/>
		<path d="M5.43,35.09c-0.04,0.13,0.03,0.27,0.16,0.31c0.13,0.04,0.27-0.03,0.31-0.16c0.04-0.13-0.03-0.27-0.16-0.31
			C5.61,34.89,5.47,34.96,5.43,35.09z"/>
		<path d="M5.3,33.76c0.04-0.13-0.03-0.27-0.16-0.31c-0.13-0.04-0.27,0.03-0.31,0.16c-0.04,0.13,0.03,0.27,0.16,0.31
			C5.12,33.96,5.26,33.89,5.3,33.76z"/>
		<path d="M5.93,33.53c-0.04,0.13,0.03,0.27,0.16,0.31c0.13,0.04,0.27-0.03,0.31-0.16s-0.03-0.27-0.16-0.31
			C6.11,33.34,5.97,33.41,5.93,33.53z"/>
		<path d="M7.18,36.95c-0.04,0.13,0.03,0.27,0.16,0.31c0.13,0.04,0.27-0.03,0.31-0.16c0.04-0.13-0.03-0.27-0.16-0.31
			C7.36,36.75,7.23,36.82,7.18,36.95z"/>
		<path d="M7.72,35.3c-0.04,0.13,0.03,0.27,0.16,0.31c0.13,0.04,0.27-0.03,0.31-0.16c0.04-0.13-0.03-0.27-0.16-0.31
			C7.9,35.1,7.76,35.17,7.72,35.3z"/>
		<path d="M8.23,33.74c-0.04,0.13,0.03,0.27,0.16,0.31c0.13,0.04,0.27-0.03,0.31-0.16c0.04-0.13-0.03-0.27-0.16-0.31
			C8.41,33.54,8.27,33.61,8.23,33.74z"/>
		<path d="M5.77,32.3c0.04-0.13-0.03-0.27-0.16-0.31c-0.13-0.04-0.27,0.03-0.31,0.16c-0.04,0.13,0.03,0.27,0.16,0.31
			C5.59,32.5,5.73,32.43,5.77,32.3z"/>
		<path d="M6.71,31.92c-0.13-0.04-0.27,0.03-0.31,0.16c-0.04,0.13,0.03,0.27,0.16,0.31c0.13,0.04,0.27-0.03,0.31-0.16
			S6.84,31.96,6.71,31.92z"/>
	</g>
	<g>
		<path d="M2.23,53.12c-0.14,0-0.25,0.11-0.25,0.24c0,0.14,0.11,0.25,0.25,0.25c0.14,0,0.24-0.11,0.24-0.25
			C2.47,53.23,2.36,53.12,2.23,53.12z"/>
		<path d="M3,52.96c0,0.14,0.11,0.25,0.25,0.25s0.24-0.11,0.24-0.25c0-0.14-0.11-0.24-0.24-0.24S3,52.83,3,52.96z"/>
		<path d="M2.47,51.74c0-0.14-0.11-0.25-0.24-0.25c-0.14,0-0.25,0.11-0.25,0.25c0,0.14,0.11,0.24,0.25,0.24
			C2.36,51.98,2.47,51.87,2.47,51.74z"/>
		<path d="M3,51.33c0,0.14,0.11,0.25,0.25,0.25s0.24-0.11,0.24-0.25c0-0.14-0.11-0.24-0.24-0.24S3,51.19,3,51.33z"/>
		<path d="M4.12,51.74c0,0.14,0.11,0.24,0.24,0.24c0.14,0,0.25-0.11,0.25-0.24c0-0.14-0.11-0.25-0.25-0.25
			C4.23,51.49,4.12,51.6,4.12,51.74z"/>
		<path d="M4.12,50.1c0,0.14,0.11,0.24,0.24,0.24c0.14,0,0.25-0.11,0.25-0.24c0-0.14-0.11-0.25-0.25-0.25
			C4.23,49.86,4.12,49.97,4.12,50.1z"/>
		<path d="M4.12,48.57c0,0.14,0.11,0.25,0.24,0.25c0.14,0,0.25-0.11,0.25-0.25c0-0.13-0.11-0.24-0.25-0.24
			C4.23,48.33,4.12,48.44,4.12,48.57z"/>
		<path d="M4.12,47.04c0,0.14,0.11,0.25,0.24,0.25c0.14,0,0.25-0.11,0.25-0.25c0-0.13-0.11-0.24-0.25-0.24
			C4.23,46.79,4.12,46.9,4.12,47.04z"/>
		<path d="M5.04,46.12c0,0.14,0.11,0.25,0.25,0.25c0.14,0,0.24-0.11,0.24-0.25s-0.11-0.25-0.24-0.25
			C5.15,45.88,5.04,45.99,5.04,46.12z"/>
		<path d="M2.47,50c0-0.14-0.11-0.25-0.24-0.25c-0.14,0-0.25,0.11-0.25,0.25s0.11,0.25,0.25,0.25C2.36,50.25,2.47,50.14,2.47,50z"/>
		<path d="M3,49.59c0,0.14,0.11,0.24,0.25,0.24s0.24-0.11,0.24-0.24s-0.11-0.24-0.24-0.24S3,49.46,3,49.59z"/>
		<path d="M2.47,48.37c0-0.14-0.11-0.25-0.24-0.25c-0.14,0-0.25,0.11-0.25,0.25c0,0.13,0.11,0.24,0.25,0.24
			C2.36,48.61,2.47,48.5,2.47,48.37z"/>
		<path d="M3,47.96c0,0.14,0.11,0.25,0.25,0.25s0.24-0.11,0.24-0.25c0-0.14-0.11-0.25-0.24-0.25S3,47.82,3,47.96z"/>
		<path d="M5.25,50.82c0,0.14,0.11,0.25,0.24,0.25c0.14,0,0.25-0.11,0.25-0.25s-0.11-0.24-0.25-0.24
			C5.36,50.57,5.25,50.68,5.25,50.82z"/>
		<path d="M5.25,49.08c0,0.14,0.11,0.25,0.24,0.25c0.14,0,0.25-0.11,0.25-0.25c0-0.13-0.11-0.24-0.25-0.24
			C5.36,48.84,5.25,48.95,5.25,49.08z"/>
		<path d="M5.25,47.45c0,0.14,0.11,0.25,0.24,0.25c0.14,0,0.25-0.11,0.25-0.25c0-0.14-0.11-0.25-0.25-0.25
			C5.36,47.2,5.25,47.31,5.25,47.45z"/>
		<path d="M2.47,46.84c0-0.14-0.11-0.25-0.24-0.25c-0.14,0-0.25,0.11-0.25,0.25c0,0.13,0.11,0.24,0.25,0.24
			C2.36,47.08,2.47,46.97,2.47,46.84z"/>
		<path d="M3.25,46.18C3.11,46.18,3,46.29,3,46.43c0,0.14,0.11,0.25,0.25,0.25s0.24-0.11,0.24-0.25
			C3.49,46.29,3.38,46.18,3.25,46.18z"/>
	</g>
	<g>
		<path d="M5.53,67.73c-0.13,0.04-0.2,0.18-0.16,0.31c0.04,0.13,0.18,0.2,0.31,0.16c0.13-0.04,0.2-0.18,0.16-0.31
			C5.8,67.76,5.66,67.69,5.53,67.73z"/>
		<path d="M6.22,67.34c0.04,0.13,0.18,0.2,0.31,0.16s0.2-0.18,0.16-0.31s-0.18-0.2-0.31-0.16C6.25,67.07,6.17,67.21,6.22,67.34z"/>
		<path d="M5.33,66.34c-0.04-0.13-0.18-0.2-0.31-0.16c-0.13,0.04-0.2,0.18-0.16,0.31s0.18,0.2,0.31,0.16
			C5.3,66.6,5.37,66.47,5.33,66.34z"/>
		<path d="M5.71,65.79c0.04,0.13,0.18,0.2,0.31,0.16c0.13-0.04,0.2-0.18,0.16-0.31c-0.04-0.13-0.18-0.2-0.31-0.16
			S5.67,65.66,5.71,65.79z"/>
		<path d="M6.91,65.83c0.04,0.13,0.18,0.2,0.31,0.16c0.13-0.04,0.2-0.18,0.16-0.31s-0.18-0.2-0.31-0.16
			C6.93,65.56,6.86,65.7,6.91,65.83z"/>
		<path d="M6.4,64.27c0.04,0.13,0.18,0.2,0.31,0.16c0.13-0.04,0.2-0.18,0.16-0.31c-0.04-0.13-0.18-0.2-0.31-0.16
			S6.36,64.15,6.4,64.27z"/>
		<path d="M5.93,62.82c0.04,0.13,0.18,0.2,0.31,0.16c0.13-0.04,0.2-0.18,0.16-0.31c-0.04-0.13-0.18-0.2-0.31-0.16
			C5.96,62.55,5.89,62.69,5.93,62.82z"/>
		<path d="M5.45,61.36c0.04,0.13,0.18,0.2,0.31,0.16c0.13-0.04,0.2-0.18,0.16-0.31c-0.04-0.13-0.18-0.2-0.31-0.16
			C5.48,61.09,5.41,61.23,5.45,61.36z"/>
		<path d="M6.04,60.2c0.04,0.13,0.18,0.2,0.31,0.16c0.13-0.04,0.2-0.18,0.16-0.31c-0.04-0.13-0.18-0.2-0.31-0.16
			C6.07,59.94,6,60.07,6.04,60.2z"/>
		<path d="M4.8,64.69c-0.04-0.13-0.18-0.2-0.31-0.16c-0.13,0.04-0.2,0.18-0.16,0.31c0.04,0.13,0.18,0.2,0.31,0.16
			C4.77,64.95,4.84,64.82,4.8,64.69z"/>
		<path d="M5.17,64.14c0.04,0.13,0.18,0.2,0.31,0.16c0.13-0.04,0.2-0.18,0.16-0.31c-0.04-0.13-0.18-0.2-0.31-0.16
			C5.2,63.87,5.13,64.01,5.17,64.14z"/>
		<path d="M4.29,63.13c-0.04-0.13-0.18-0.2-0.31-0.16c-0.13,0.04-0.2,0.18-0.16,0.31c0.04,0.13,0.18,0.2,0.31,0.16
			C4.26,63.4,4.33,63.26,4.29,63.13z"/>
		<path d="M4.67,62.58c0.04,0.13,0.18,0.2,0.31,0.16c0.13-0.04,0.2-0.18,0.16-0.31s-0.18-0.2-0.31-0.16
			C4.7,62.31,4.63,62.45,4.67,62.58z"/>
		<path d="M7.69,64.61c0.04,0.13,0.18,0.2,0.31,0.16s0.2-0.18,0.16-0.31c-0.04-0.13-0.18-0.2-0.31-0.16
			C7.72,64.34,7.65,64.48,7.69,64.61z"/>
		<path d="M7.15,62.96c0.04,0.13,0.18,0.2,0.31,0.16c0.13-0.04,0.2-0.18,0.16-0.31c-0.04-0.13-0.18-0.2-0.31-0.16
			C7.18,62.69,7.11,62.83,7.15,62.96z"/>
		<path d="M6.65,61.4c0.04,0.13,0.18,0.2,0.31,0.16c0.13-0.04,0.2-0.18,0.16-0.31s-0.18-0.2-0.31-0.16
			C6.68,61.14,6.61,61.27,6.65,61.4z"/>
		<path d="M3.82,61.68c-0.04-0.13-0.18-0.2-0.31-0.16c-0.13,0.04-0.2,0.18-0.16,0.31c0.04,0.13,0.18,0.2,0.31,0.16
			C3.79,61.94,3.86,61.81,3.82,61.68z"/>
		<path d="M4.35,60.82C4.23,60.86,4.16,61,4.2,61.13s0.18,0.2,0.31,0.16c0.13-0.04,0.2-0.18,0.16-0.31
			C4.62,60.85,4.48,60.77,4.35,60.82z"/>
	</g>
	<g>
		<path d="M13.19,80.61c-0.11,0.08-0.13,0.23-0.05,0.34c0.08,0.11,0.23,0.13,0.34,0.05s0.13-0.23,0.05-0.34
			C13.45,80.55,13.29,80.53,13.19,80.61z"/>
		<path d="M13.72,80.02c0.08,0.11,0.23,0.13,0.34,0.05c0.11-0.08,0.13-0.23,0.05-0.34c-0.08-0.11-0.23-0.13-0.34-0.05
			S13.64,79.91,13.72,80.02z"/>
		<path d="M12.57,79.34c-0.08-0.11-0.23-0.13-0.34-0.05c-0.11,0.08-0.13,0.23-0.05,0.34c0.08,0.11,0.23,0.13,0.34,0.05
			C12.62,79.6,12.65,79.45,12.57,79.34z"/>
		<path d="M12.76,78.7c0.08,0.11,0.23,0.13,0.34,0.05s0.13-0.23,0.05-0.34c-0.08-0.11-0.23-0.13-0.34-0.05S12.68,78.59,12.76,78.7z"
			/>
		<path d="M13.91,78.37c0.08,0.11,0.23,0.13,0.34,0.05c0.11-0.08,0.13-0.23,0.05-0.34c-0.08-0.11-0.23-0.13-0.34-0.05
			C13.85,78.11,13.83,78.26,13.91,78.37z"/>
		<path d="M12.95,77.05c0.08,0.11,0.23,0.13,0.34,0.05c0.11-0.08,0.13-0.23,0.05-0.34c-0.08-0.11-0.23-0.13-0.34-0.05
			C12.89,76.79,12.87,76.94,12.95,77.05z"/>
		<path d="M12.05,75.81c0.08,0.11,0.23,0.13,0.34,0.05c0.11-0.08,0.13-0.23,0.05-0.34c-0.08-0.11-0.23-0.13-0.34-0.05
			C11.99,75.55,11.97,75.7,12.05,75.81z"/>
		<path d="M11.15,74.57c0.08,0.11,0.23,0.13,0.34,0.05c0.11-0.08,0.13-0.23,0.05-0.34c-0.08-0.11-0.23-0.13-0.34-0.05
			S11.07,74.46,11.15,74.57z"/>
		<path d="M11.35,73.29c0.08,0.11,0.23,0.13,0.34,0.05s0.13-0.23,0.05-0.34c-0.08-0.11-0.23-0.13-0.34-0.05
			C11.29,73.02,11.27,73.18,11.35,73.29z"/>
		<path d="M11.55,77.94c-0.08-0.11-0.23-0.13-0.34-0.05c-0.11,0.08-0.13,0.23-0.05,0.34c0.08,0.11,0.23,0.13,0.34,0.05
			C11.6,78.2,11.63,78.05,11.55,77.94z"/>
		<path d="M11.74,77.3c0.08,0.11,0.23,0.13,0.34,0.05s0.13-0.23,0.05-0.34c-0.08-0.11-0.23-0.13-0.34-0.05S11.66,77.19,11.74,77.3z"
			/>
		<path d="M10.59,76.62c-0.08-0.11-0.23-0.13-0.34-0.05c-0.11,0.08-0.13,0.23-0.05,0.34c0.08,0.11,0.23,0.13,0.34,0.05
			C10.64,76.88,10.67,76.73,10.59,76.62z"/>
		<path d="M10.78,75.97c0.08,0.11,0.23,0.13,0.34,0.05s0.13-0.23,0.05-0.34c-0.08-0.11-0.23-0.13-0.34-0.05
			C10.72,75.71,10.7,75.86,10.78,75.97z"/>
		<path d="M14.27,76.97c0.08,0.11,0.23,0.13,0.34,0.05c0.11-0.08,0.13-0.23,0.05-0.34c-0.08-0.11-0.23-0.13-0.34-0.05
			C14.22,76.7,14.19,76.86,14.27,76.97z"/>
		<path d="M13.25,75.56c0.08,0.11,0.23,0.13,0.34,0.05s0.13-0.23,0.05-0.34c-0.08-0.11-0.23-0.13-0.34-0.05
			C13.2,75.3,13.17,75.45,13.25,75.56z"/>
		<path d="M12.29,74.24c0.08,0.11,0.23,0.13,0.34,0.05c0.11-0.08,0.13-0.23,0.05-0.34c-0.08-0.11-0.23-0.13-0.34-0.05
			C12.24,73.98,12.21,74.13,12.29,74.24z"/>
		<path d="M9.69,75.38c-0.08-0.11-0.23-0.13-0.34-0.05c-0.11,0.08-0.13,0.23-0.05,0.34c0.08,0.11,0.23,0.13,0.34,0.05
			C9.74,75.64,9.77,75.49,9.69,75.38z"/>
		<path d="M9.93,74.39c-0.11,0.08-0.13,0.23-0.05,0.34c0.08,0.11,0.23,0.13,0.34,0.05c0.11-0.08,0.13-0.23,0.05-0.34
			C10.19,74.34,10.04,74.31,9.93,74.39z"/>
	</g>
	<g>
		<path d="M24.45,90.49c-0.08,0.11-0.06,0.26,0.05,0.34c0.11,0.08,0.26,0.06,0.34-0.05c0.08-0.11,0.05-0.26-0.05-0.34
			S24.53,90.38,24.45,90.49z"/>
		<path d="M24.77,89.76c0.11,0.08,0.26,0.06,0.34-0.05s0.05-0.26-0.05-0.34c-0.11-0.08-0.26-0.06-0.34,0.05S24.66,89.68,24.77,89.76
			z"/>
		<path d="M23.47,89.47c-0.11-0.08-0.26-0.06-0.34,0.05c-0.08,0.11-0.06,0.26,0.05,0.34c0.11,0.08,0.26,0.05,0.34-0.05
			S23.58,89.55,23.47,89.47z"/>
		<path d="M23.45,88.8c0.11,0.08,0.26,0.06,0.34-0.05c0.08-0.11,0.05-0.26-0.05-0.34s-0.26-0.06-0.34,0.05
			C23.31,88.57,23.34,88.72,23.45,88.8z"/>
		<path d="M24.44,88.13c0.11,0.08,0.26,0.06,0.34-0.05s0.06-0.26-0.05-0.34c-0.11-0.08-0.26-0.06-0.34,0.05S24.33,88.06,24.44,88.13
			z"/>
		<path d="M23.12,87.17c0.11,0.08,0.26,0.06,0.34-0.05c0.08-0.11,0.06-0.26-0.05-0.34s-0.26-0.06-0.34,0.05
			C22.98,86.94,23.01,87.1,23.12,87.17z"/>
		<path d="M21.88,86.27c0.11,0.08,0.26,0.06,0.34-0.05s0.06-0.26-0.05-0.34c-0.11-0.08-0.26-0.05-0.34,0.05
			C21.74,86.04,21.77,86.2,21.88,86.27z"/>
		<path d="M20.64,85.37c0.11,0.08,0.26,0.06,0.34-0.05s0.06-0.26-0.05-0.34c-0.11-0.08-0.26-0.05-0.34,0.05
			C20.51,85.14,20.53,85.3,20.64,85.37z"/>
		<path d="M20.44,84.09c0.11,0.08,0.26,0.06,0.34-0.05c0.08-0.11,0.06-0.26-0.05-0.34c-0.11-0.08-0.26-0.06-0.34,0.05
			S20.33,84.01,20.44,84.09z"/>
		<path d="M22.06,88.45c-0.11-0.08-0.26-0.06-0.34,0.05s-0.06,0.26,0.05,0.34s0.26,0.06,0.34-0.05
			C22.2,88.69,22.17,88.53,22.06,88.45z"/>
		<path d="M22.04,87.78c0.11,0.08,0.26,0.05,0.34-0.05c0.08-0.11,0.06-0.26-0.05-0.34s-0.26-0.06-0.34,0.05S21.94,87.7,22.04,87.78z
			"/>
		<path d="M20.74,87.49c-0.11-0.08-0.26-0.06-0.34,0.05s-0.06,0.26,0.05,0.34c0.11,0.08,0.26,0.05,0.34-0.05
			C20.87,87.73,20.85,87.57,20.74,87.49z"/>
		<path d="M20.72,86.82c0.11,0.08,0.26,0.06,0.34-0.05c0.08-0.11,0.06-0.26-0.05-0.34c-0.11-0.08-0.26-0.06-0.34,0.05
			S20.61,86.74,20.72,86.82z"/>
		<path d="M24.36,86.69c0.11,0.08,0.26,0.06,0.34-0.05s0.06-0.26-0.05-0.34c-0.11-0.08-0.26-0.05-0.34,0.05S24.25,86.61,24.36,86.69
			z"/>
		<path d="M22.95,85.67c0.11,0.08,0.26,0.06,0.34-0.05c0.08-0.11,0.06-0.26-0.05-0.34c-0.11-0.08-0.26-0.05-0.34,0.05
			S22.84,85.59,22.95,85.67z"/>
		<path d="M21.63,84.71c0.11,0.08,0.26,0.06,0.34-0.05c0.08-0.11,0.06-0.26-0.05-0.34c-0.11-0.08-0.26-0.06-0.34,0.05
			S21.52,84.63,21.63,84.71z"/>
		<path d="M19.5,86.59c-0.11-0.08-0.26-0.06-0.34,0.05s-0.06,0.26,0.05,0.34c0.11,0.08,0.26,0.05,0.34-0.05
			C19.64,86.83,19.61,86.67,19.5,86.59z"/>
		<path d="M19.43,85.58c-0.08,0.11-0.06,0.26,0.05,0.34s0.26,0.06,0.34-0.05c0.08-0.11,0.06-0.26-0.05-0.34
			C19.66,85.45,19.51,85.47,19.43,85.58z"/>
	</g>
	<g>
		<path d="M38.21,96.4c-0.04,0.13,0.03,0.27,0.16,0.31c0.13,0.04,0.27-0.03,0.31-0.16c0.04-0.13-0.03-0.27-0.16-0.31
			C38.39,96.2,38.25,96.27,38.21,96.4z"/>
		<path d="M38.29,95.61c0.13,0.04,0.27-0.03,0.31-0.16c0.04-0.13-0.03-0.27-0.16-0.31c-0.13-0.04-0.27,0.03-0.31,0.16
			C38.09,95.43,38.16,95.57,38.29,95.61z"/>
		<path d="M36.96,95.74c-0.13-0.04-0.27,0.03-0.31,0.16c-0.04,0.13,0.03,0.27,0.16,0.31c0.13,0.04,0.27-0.03,0.31-0.16
			C37.16,95.92,37.09,95.78,36.96,95.74z"/>
		<path d="M36.74,95.11c0.13,0.04,0.27-0.03,0.31-0.16c0.04-0.13-0.03-0.27-0.16-0.31c-0.13-0.04-0.27,0.03-0.31,0.16
			C36.54,94.93,36.61,95.07,36.74,95.11z"/>
		<path d="M37.47,94.17c0.13,0.04,0.27-0.03,0.31-0.16c0.04-0.13-0.03-0.27-0.16-0.31c-0.13-0.04-0.27,0.03-0.31,0.16
			C37.27,93.99,37.35,94.13,37.47,94.17z"/>
		<path d="M35.92,93.66c0.13,0.04,0.27-0.03,0.31-0.16c0.04-0.13-0.03-0.27-0.16-0.31c-0.13-0.04-0.27,0.03-0.31,0.16
			C35.72,93.48,35.79,93.62,35.92,93.66z"/>
		<path d="M34.46,93.19c0.13,0.04,0.27-0.03,0.31-0.16c0.04-0.13-0.03-0.27-0.16-0.31c-0.13-0.04-0.27,0.03-0.31,0.16
			C34.27,93.01,34.34,93.15,34.46,93.19z"/>
		<path d="M33.01,92.72c0.13,0.04,0.27-0.03,0.31-0.16c0.04-0.13-0.03-0.27-0.16-0.31c-0.13-0.04-0.27,0.03-0.31,0.16
			C32.81,92.54,32.88,92.67,33.01,92.72z"/>
		<path d="M32.42,91.56c0.13,0.04,0.27-0.03,0.31-0.16c0.04-0.13-0.03-0.27-0.16-0.31c-0.13-0.04-0.27,0.03-0.31,0.16
			C32.22,91.38,32.29,91.52,32.42,91.56z"/>
		<path d="M35.31,95.2c-0.13-0.04-0.27,0.03-0.31,0.16c-0.04,0.13,0.03,0.27,0.16,0.31c0.13,0.04,0.27-0.03,0.31-0.16
			C35.51,95.38,35.44,95.25,35.31,95.2z"/>
		<path d="M35.09,94.57c0.13,0.04,0.27-0.03,0.31-0.16c0.04-0.13-0.03-0.27-0.16-0.31c-0.13-0.04-0.27,0.03-0.31,0.16
			C34.89,94.39,34.96,94.53,35.09,94.57z"/>
		<path d="M33.76,94.7c-0.13-0.04-0.27,0.03-0.31,0.16c-0.04,0.13,0.03,0.27,0.16,0.31c0.13,0.04,0.27-0.03,0.31-0.16
			C33.96,94.88,33.89,94.74,33.76,94.7z"/>
		<path d="M33.53,94.07c0.13,0.04,0.27-0.03,0.31-0.16c0.04-0.13-0.03-0.27-0.16-0.31c-0.13-0.04-0.27,0.03-0.31,0.16
			C33.34,93.89,33.41,94.03,33.53,94.07z"/>
		<path d="M36.95,92.82c0.13,0.04,0.27-0.03,0.31-0.16c0.04-0.13-0.03-0.27-0.16-0.31c-0.13-0.04-0.27,0.03-0.31,0.16
			C36.75,92.64,36.82,92.77,36.95,92.82z"/>
		<path d="M35.3,92.28c0.13,0.04,0.27-0.03,0.31-0.16c0.04-0.13-0.03-0.27-0.16-0.31c-0.13-0.04-0.27,0.03-0.31,0.16
			C35.1,92.1,35.17,92.24,35.3,92.28z"/>
		<path d="M33.74,91.77c0.13,0.04,0.27-0.03,0.31-0.16c0.04-0.13-0.03-0.27-0.16-0.31c-0.13-0.04-0.27,0.03-0.31,0.16
			C33.54,91.59,33.61,91.73,33.74,91.77z"/>
		<path d="M32.3,94.23c-0.13-0.04-0.27,0.03-0.31,0.16c-0.04,0.13,0.03,0.27,0.16,0.31c0.13,0.04,0.27-0.03,0.31-0.16
			C32.5,94.41,32.43,94.27,32.3,94.23z"/>
		<path d="M31.92,93.29c-0.04,0.13,0.03,0.27,0.16,0.31c0.13,0.04,0.27-0.03,0.31-0.16c0.04-0.13-0.03-0.27-0.16-0.31
			C32.1,93.09,31.96,93.16,31.92,93.29z"/>
	</g>
	<g>
		<path d="M53.12,97.77c0,0.14,0.11,0.25,0.24,0.25c0.14,0,0.25-0.11,0.25-0.25c0-0.14-0.11-0.24-0.25-0.24
			C53.23,97.53,53.12,97.64,53.12,97.77z"/>
		<path d="M52.96,97c0.14,0,0.25-0.11,0.25-0.25s-0.11-0.24-0.25-0.24c-0.14,0-0.24,0.11-0.24,0.24S52.83,97,52.96,97z"/>
		<path d="M51.74,97.53c-0.14,0-0.25,0.11-0.25,0.24c0,0.14,0.11,0.25,0.25,0.25c0.14,0,0.24-0.11,0.24-0.25
			C51.98,97.64,51.87,97.53,51.74,97.53z"/>
		<path d="M51.33,97c0.14,0,0.25-0.11,0.25-0.25s-0.11-0.24-0.25-0.24c-0.14,0-0.24,0.11-0.24,0.24S51.19,97,51.33,97z"/>
		<path d="M51.74,95.88c0.14,0,0.24-0.11,0.24-0.24c0-0.14-0.11-0.25-0.24-0.25c-0.14,0-0.25,0.11-0.25,0.25
			C51.49,95.77,51.6,95.88,51.74,95.88z"/>
		<path d="M50.1,95.88c0.14,0,0.24-0.11,0.24-0.24c0-0.14-0.11-0.25-0.24-0.25c-0.14,0-0.25,0.11-0.25,0.25
			C49.86,95.77,49.97,95.88,50.1,95.88z"/>
		<path d="M48.57,95.88c0.14,0,0.25-0.11,0.25-0.24c0-0.14-0.11-0.25-0.25-0.25c-0.13,0-0.24,0.11-0.24,0.25
			C48.33,95.77,48.44,95.88,48.57,95.88z"/>
		<path d="M47.04,95.88c0.14,0,0.25-0.11,0.25-0.24c0-0.14-0.11-0.25-0.25-0.25c-0.13,0-0.24,0.11-0.24,0.25
			C46.79,95.77,46.9,95.88,47.04,95.88z"/>
		<path d="M46.12,94.96c0.14,0,0.25-0.11,0.25-0.25c0-0.14-0.11-0.24-0.25-0.24s-0.25,0.11-0.25,0.24
			C45.88,94.85,45.99,94.96,46.12,94.96z"/>
		<path d="M50,97.53c-0.14,0-0.25,0.11-0.25,0.24c0,0.14,0.11,0.25,0.25,0.25s0.25-0.11,0.25-0.25C50.25,97.64,50.14,97.53,50,97.53
			z"/>
		<path d="M49.59,97c0.14,0,0.24-0.11,0.24-0.25s-0.11-0.24-0.24-0.24s-0.24,0.11-0.24,0.24S49.46,97,49.59,97z"/>
		<path d="M48.37,97.53c-0.14,0-0.25,0.11-0.25,0.24c0,0.14,0.11,0.25,0.25,0.25c0.13,0,0.24-0.11,0.24-0.25
			C48.61,97.64,48.5,97.53,48.37,97.53z"/>
		<path d="M47.96,97c0.14,0,0.25-0.11,0.25-0.25s-0.11-0.24-0.25-0.24c-0.14,0-0.25,0.11-0.25,0.24S47.82,97,47.96,97z"/>
		<path d="M50.82,94.75c0.14,0,0.25-0.11,0.25-0.24c0-0.14-0.11-0.25-0.25-0.25s-0.24,0.11-0.24,0.25
			C50.57,94.64,50.68,94.75,50.82,94.75z"/>
		<path d="M49.08,94.75c0.14,0,0.25-0.11,0.25-0.24c0-0.14-0.11-0.25-0.25-0.25c-0.13,0-0.24,0.11-0.24,0.25
			C48.84,94.64,48.95,94.75,49.08,94.75z"/>
		<path d="M47.45,94.75c0.14,0,0.25-0.11,0.25-0.24c0-0.14-0.11-0.25-0.25-0.25c-0.14,0-0.25,0.11-0.25,0.25
			C47.2,94.64,47.31,94.75,47.45,94.75z"/>
		<path d="M46.84,97.53c-0.14,0-0.25,0.11-0.25,0.24c0,0.14,0.11,0.25,0.25,0.25c0.13,0,0.24-0.11,0.24-0.25
			C47.08,97.64,46.97,97.53,46.84,97.53z"/>
		<path d="M46.18,96.75c0,0.14,0.11,0.25,0.25,0.25c0.14,0,0.25-0.11,0.25-0.25s-0.11-0.24-0.25-0.24
			C46.29,96.51,46.18,96.62,46.18,96.75z"/>
	</g>
	<g>
		<path d="M67.73,94.47c0.04,0.13,0.18,0.2,0.31,0.16c0.13-0.04,0.2-0.18,0.16-0.31c-0.04-0.13-0.18-0.2-0.31-0.16
			C67.76,94.2,67.69,94.34,67.73,94.47z"/>
		<path d="M67.34,93.78c0.13-0.04,0.2-0.18,0.16-0.31c-0.04-0.13-0.18-0.2-0.31-0.16s-0.2,0.18-0.16,0.31
			C67.07,93.75,67.21,93.83,67.34,93.78z"/>
		<path d="M66.34,94.67c-0.13,0.04-0.2,0.18-0.16,0.31s0.18,0.2,0.31,0.16s0.2-0.18,0.16-0.31C66.6,94.7,66.47,94.63,66.34,94.67z"
			/>
		<path d="M65.79,94.29c0.13-0.04,0.2-0.18,0.16-0.31s-0.18-0.2-0.31-0.16c-0.13,0.04-0.2,0.18-0.16,0.31S65.66,94.33,65.79,94.29z"
			/>
		<path d="M65.83,93.09c0.13-0.04,0.2-0.18,0.16-0.31c-0.04-0.13-0.18-0.2-0.31-0.16s-0.2,0.18-0.16,0.31
			C65.56,93.07,65.7,93.14,65.83,93.09z"/>
		<path d="M64.27,93.6c0.13-0.04,0.2-0.18,0.16-0.31c-0.04-0.13-0.18-0.2-0.31-0.16c-0.13,0.04-0.2,0.18-0.16,0.31
			C64.01,93.57,64.15,93.64,64.27,93.6z"/>
		<path d="M62.82,94.07c0.13-0.04,0.2-0.18,0.16-0.31c-0.04-0.13-0.18-0.2-0.31-0.16c-0.13,0.04-0.2,0.18-0.16,0.31
			C62.55,94.04,62.69,94.11,62.82,94.07z"/>
		<path d="M61.36,94.55c0.13-0.04,0.2-0.18,0.16-0.31c-0.04-0.13-0.18-0.2-0.31-0.16c-0.13,0.04-0.2,0.18-0.16,0.31
			C61.09,94.52,61.23,94.59,61.36,94.55z"/>
		<path d="M60.2,93.96c0.13-0.04,0.2-0.18,0.16-0.31c-0.04-0.13-0.18-0.2-0.31-0.16c-0.13,0.04-0.2,0.18-0.16,0.31
			C59.94,93.93,60.07,94,60.2,93.96z"/>
		<path d="M64.69,95.2c-0.13,0.04-0.2,0.18-0.16,0.31c0.04,0.13,0.18,0.2,0.31,0.16c0.13-0.04,0.2-0.18,0.16-0.31
			C64.95,95.23,64.82,95.16,64.69,95.2z"/>
		<path d="M64.14,94.83c0.13-0.04,0.2-0.18,0.16-0.31c-0.04-0.13-0.18-0.2-0.31-0.16c-0.13,0.04-0.2,0.18-0.16,0.31
			C63.87,94.8,64.01,94.87,64.14,94.83z"/>
		<path d="M63.13,95.71c-0.13,0.04-0.2,0.18-0.16,0.31c0.04,0.13,0.18,0.2,0.31,0.16c0.13-0.04,0.2-0.18,0.16-0.31
			C63.4,95.74,63.26,95.67,63.13,95.71z"/>
		<path d="M62.58,95.33c0.13-0.04,0.2-0.18,0.16-0.31c-0.04-0.13-0.18-0.2-0.31-0.16c-0.13,0.04-0.2,0.18-0.16,0.31
			C62.31,95.3,62.45,95.37,62.58,95.33z"/>
		<path d="M64.61,92.31c0.13-0.04,0.2-0.18,0.16-0.31c-0.04-0.13-0.18-0.2-0.31-0.16c-0.13,0.04-0.2,0.18-0.16,0.31
			C64.34,92.28,64.48,92.35,64.61,92.31z"/>
		<path d="M62.96,92.85c0.13-0.04,0.2-0.18,0.16-0.31c-0.04-0.13-0.18-0.2-0.31-0.16c-0.13,0.04-0.2,0.18-0.16,0.31
			C62.69,92.82,62.83,92.89,62.96,92.85z"/>
		<path d="M61.4,93.35c0.13-0.04,0.2-0.18,0.16-0.31c-0.04-0.13-0.18-0.2-0.31-0.16c-0.13,0.04-0.2,0.18-0.16,0.31
			C61.14,93.32,61.27,93.39,61.4,93.35z"/>
		<path d="M61.68,96.18c-0.13,0.04-0.2,0.18-0.16,0.31c0.04,0.13,0.18,0.2,0.31,0.16c0.13-0.04,0.2-0.18,0.16-0.31
			C61.94,96.21,61.81,96.14,61.68,96.18z"/>
		<path d="M60.82,95.65c0.04,0.13,0.18,0.2,0.31,0.16s0.2-0.18,0.16-0.31c-0.04-0.13-0.18-0.2-0.31-0.16
			C60.85,95.38,60.77,95.52,60.82,95.65z"/>
	</g>
	<g>
		<path d="M80.61,86.81c0.08,0.11,0.23,0.13,0.34,0.05s0.13-0.23,0.05-0.34c-0.08-0.11-0.23-0.13-0.34-0.05S80.53,86.71,80.61,86.81
			z"/>
		<path d="M80.02,86.28c0.11-0.08,0.13-0.23,0.05-0.34c-0.08-0.11-0.23-0.13-0.34-0.05s-0.13,0.23-0.05,0.34
			S79.91,86.36,80.02,86.28z"/>
		<path d="M79.34,87.43c-0.11,0.08-0.13,0.23-0.05,0.34s0.23,0.13,0.34,0.05s0.13-0.23,0.05-0.34S79.45,87.35,79.34,87.43z"/>
		<path d="M78.7,87.24c0.11-0.08,0.13-0.23,0.05-0.34s-0.23-0.13-0.34-0.05s-0.13,0.23-0.05,0.34C78.44,87.3,78.59,87.32,78.7,87.24
			z"/>
		<path d="M78.37,86.09c0.11-0.08,0.13-0.23,0.05-0.34s-0.23-0.13-0.34-0.05s-0.13,0.23-0.05,0.34
			C78.11,86.15,78.26,86.17,78.37,86.09z"/>
		<path d="M77.05,87.05c0.11-0.08,0.13-0.23,0.05-0.34s-0.23-0.13-0.34-0.05c-0.11,0.08-0.13,0.23-0.05,0.34
			S76.94,87.13,77.05,87.05z"/>
		<path d="M75.81,87.95c0.11-0.08,0.13-0.23,0.05-0.34s-0.23-0.13-0.34-0.05c-0.11,0.08-0.13,0.23-0.05,0.34S75.7,88.03,75.81,87.95
			z"/>
		<path d="M74.57,88.85c0.11-0.08,0.13-0.23,0.05-0.34c-0.08-0.11-0.23-0.13-0.34-0.05c-0.11,0.08-0.13,0.23-0.05,0.34
			S74.46,88.93,74.57,88.85z"/>
		<path d="M73.29,88.65c0.11-0.08,0.13-0.23,0.05-0.34s-0.23-0.13-0.34-0.05c-0.11,0.08-0.13,0.23-0.05,0.34
			S73.18,88.73,73.29,88.65z"/>
		<path d="M77.94,88.45c-0.11,0.08-0.13,0.23-0.05,0.34c0.08,0.11,0.23,0.13,0.34,0.05s0.13-0.23,0.05-0.34S78.05,88.37,77.94,88.45
			z"/>
		<path d="M77.3,88.26c0.11-0.08,0.13-0.23,0.05-0.34s-0.23-0.13-0.34-0.05s-0.13,0.23-0.05,0.34S77.19,88.34,77.3,88.26z"/>
		<path d="M76.62,89.41c-0.11,0.08-0.13,0.23-0.05,0.34c0.08,0.11,0.23,0.13,0.34,0.05c0.11-0.08,0.13-0.23,0.05-0.34
			S76.73,89.33,76.62,89.41z"/>
		<path d="M75.97,89.22c0.11-0.08,0.13-0.23,0.05-0.34s-0.23-0.13-0.34-0.05c-0.11,0.08-0.13,0.23-0.05,0.34S75.86,89.3,75.97,89.22
			z"/>
		<path d="M76.97,85.73c0.11-0.08,0.13-0.23,0.05-0.34s-0.23-0.13-0.34-0.05s-0.13,0.23-0.05,0.34S76.86,85.81,76.97,85.73z"/>
		<path d="M75.56,86.75c0.11-0.08,0.13-0.23,0.05-0.34s-0.23-0.13-0.34-0.05c-0.11,0.08-0.13,0.23-0.05,0.34
			S75.45,86.83,75.56,86.75z"/>
		<path d="M74.24,87.71c0.11-0.08,0.13-0.23,0.05-0.34c-0.08-0.11-0.23-0.13-0.34-0.05s-0.13,0.23-0.05,0.34
			C73.98,87.76,74.13,87.79,74.24,87.71z"/>
		<path d="M75.38,90.31c-0.11,0.08-0.13,0.23-0.05,0.34s0.23,0.13,0.34,0.05c0.11-0.08,0.13-0.23,0.05-0.34
			C75.64,90.26,75.49,90.23,75.38,90.31z"/>
		<path d="M74.39,90.07c0.08,0.11,0.23,0.13,0.34,0.05c0.11-0.08,0.13-0.23,0.05-0.34s-0.23-0.13-0.34-0.05
			C74.34,89.81,74.31,89.96,74.39,90.07z"/>
	</g>
	<g>
		<path d="M90.49,75.55c0.11,0.08,0.26,0.06,0.34-0.05s0.06-0.26-0.05-0.34s-0.26-0.05-0.34,0.05
			C90.35,75.32,90.38,75.47,90.49,75.55z"/>
		<path d="M89.76,75.23c0.08-0.11,0.06-0.26-0.05-0.34c-0.11-0.08-0.26-0.05-0.34,0.05s-0.06,0.26,0.05,0.34
			S89.68,75.34,89.76,75.23z"/>
		<path d="M89.47,76.53c-0.08,0.11-0.06,0.26,0.05,0.34s0.26,0.06,0.34-0.05c0.08-0.11,0.05-0.26-0.05-0.34S89.55,76.42,89.47,76.53
			z"/>
		<path d="M88.8,76.55c0.08-0.11,0.06-0.26-0.05-0.34s-0.26-0.05-0.34,0.05c-0.08,0.11-0.06,0.26,0.05,0.34S88.72,76.66,88.8,76.55z
			"/>
		<path d="M88.13,75.56c0.08-0.11,0.06-0.26-0.05-0.34s-0.26-0.06-0.34,0.05s-0.06,0.26,0.05,0.34S88.06,75.67,88.13,75.56z"/>
		<path d="M87.17,76.88c0.08-0.11,0.06-0.26-0.05-0.34s-0.26-0.06-0.34,0.05c-0.08,0.11-0.06,0.26,0.05,0.34S87.1,76.99,87.17,76.88
			z"/>
		<path d="M86.27,78.12c0.08-0.11,0.06-0.26-0.05-0.34s-0.26-0.06-0.34,0.05c-0.08,0.11-0.05,0.26,0.05,0.34S86.2,78.23,86.27,78.12
			z"/>
		<path d="M85.37,79.36c0.08-0.11,0.06-0.26-0.05-0.34s-0.26-0.06-0.34,0.05c-0.08,0.11-0.05,0.26,0.05,0.34S85.3,79.47,85.37,79.36
			z"/>
		<path d="M84.09,79.56c0.08-0.11,0.06-0.26-0.05-0.34c-0.11-0.08-0.26-0.06-0.34,0.05c-0.08,0.11-0.06,0.26,0.05,0.34
			S84.01,79.67,84.09,79.56z"/>
		<path d="M88.45,77.94c-0.08,0.11-0.06,0.26,0.05,0.34s0.26,0.06,0.34-0.05s0.06-0.26-0.05-0.34
			C88.69,77.8,88.53,77.83,88.45,77.94z"/>
		<path d="M87.78,77.96c0.08-0.11,0.05-0.26-0.05-0.34s-0.26-0.06-0.34,0.05c-0.08,0.11-0.06,0.26,0.05,0.34S87.7,78.06,87.78,77.96
			z"/>
		<path d="M87.49,79.26c-0.08,0.11-0.06,0.26,0.05,0.34s0.26,0.06,0.34-0.05c0.08-0.11,0.05-0.26-0.05-0.34S87.57,79.15,87.49,79.26
			z"/>
		<path d="M86.82,79.28c0.08-0.11,0.06-0.26-0.05-0.34c-0.11-0.08-0.26-0.06-0.34,0.05c-0.08,0.11-0.06,0.26,0.05,0.34
			S86.74,79.39,86.82,79.28z"/>
		<path d="M86.69,75.64c0.08-0.11,0.06-0.26-0.05-0.34s-0.26-0.06-0.34,0.05c-0.08,0.11-0.05,0.26,0.05,0.34
			C86.45,75.78,86.61,75.75,86.69,75.64z"/>
		<path d="M85.67,77.05c0.08-0.11,0.06-0.26-0.05-0.34c-0.11-0.08-0.26-0.06-0.34,0.05c-0.08,0.11-0.05,0.26,0.05,0.34
			C85.43,77.18,85.59,77.16,85.67,77.05z"/>
		<path d="M84.71,78.37c0.08-0.11,0.06-0.26-0.05-0.34c-0.11-0.08-0.26-0.06-0.34,0.05c-0.08,0.11-0.06,0.26,0.05,0.34
			S84.63,78.48,84.71,78.37z"/>
		<path d="M86.59,80.5c-0.08,0.11-0.06,0.26,0.05,0.34s0.26,0.06,0.34-0.05c0.08-0.11,0.05-0.26-0.05-0.34S86.67,80.39,86.59,80.5z"
			/>
		<path d="M85.58,80.57c0.11,0.08,0.26,0.06,0.34-0.05s0.06-0.26-0.05-0.34s-0.26-0.06-0.34,0.05
			C85.45,80.34,85.47,80.49,85.58,80.57z"/>
	</g>
	<g>
		<path d="M96.4,61.79c0.13,0.04,0.27-0.03,0.31-0.16c0.04-0.13-0.03-0.27-0.16-0.31c-0.13-0.04-0.27,0.03-0.31,0.16
			C96.2,61.61,96.27,61.75,96.4,61.79z"/>
		<path d="M95.61,61.71c0.04-0.13-0.03-0.27-0.16-0.31c-0.13-0.04-0.27,0.03-0.31,0.16c-0.04,0.13,0.03,0.27,0.16,0.31
			C95.43,61.91,95.57,61.84,95.61,61.71z"/>
		<path d="M95.74,63.04c-0.04,0.13,0.03,0.27,0.16,0.31c0.13,0.04,0.27-0.03,0.31-0.16c0.04-0.13-0.03-0.27-0.16-0.31
			C95.92,62.84,95.78,62.91,95.74,63.04z"/>
		<path d="M95.11,63.26c0.04-0.13-0.03-0.27-0.16-0.31c-0.13-0.04-0.27,0.03-0.31,0.16c-0.04,0.13,0.03,0.27,0.16,0.31
			C94.93,63.46,95.07,63.39,95.11,63.26z"/>
		<path d="M94.17,62.53c0.04-0.13-0.03-0.27-0.16-0.31c-0.13-0.04-0.27,0.03-0.31,0.16c-0.04,0.13,0.03,0.27,0.16,0.31
			C93.99,62.73,94.13,62.65,94.17,62.53z"/>
		<path d="M93.66,64.08c0.04-0.13-0.03-0.27-0.16-0.31c-0.13-0.04-0.27,0.03-0.31,0.16c-0.04,0.13,0.03,0.27,0.16,0.31
			S93.62,64.21,93.66,64.08z"/>
		<path d="M93.19,65.54c0.04-0.13-0.03-0.27-0.16-0.31c-0.13-0.04-0.27,0.03-0.31,0.16c-0.04,0.13,0.03,0.27,0.16,0.31
			S93.15,65.66,93.19,65.54z"/>
		<path d="M92.72,66.99c0.04-0.13-0.03-0.27-0.16-0.31c-0.13-0.04-0.27,0.03-0.31,0.16c-0.04,0.13,0.03,0.27,0.16,0.31
			S92.67,67.12,92.72,66.99z"/>
		<path d="M91.56,67.58c0.04-0.13-0.03-0.27-0.16-0.31s-0.27,0.03-0.31,0.16c-0.04,0.13,0.03,0.27,0.16,0.31
			C91.38,67.78,91.52,67.71,91.56,67.58z"/>
		<path d="M95.2,64.69c-0.04,0.13,0.03,0.27,0.16,0.31c0.13,0.04,0.27-0.03,0.31-0.16c0.04-0.13-0.03-0.27-0.16-0.31
			C95.38,64.49,95.25,64.56,95.2,64.69z"/>
		<path d="M94.57,64.91c0.04-0.13-0.03-0.27-0.16-0.31c-0.13-0.04-0.27,0.03-0.31,0.16c-0.04,0.13,0.03,0.27,0.16,0.31
			S94.53,65.04,94.57,64.91z"/>
		<path d="M94.7,66.24c-0.04,0.13,0.03,0.27,0.16,0.31s0.27-0.03,0.31-0.16c0.04-0.13-0.03-0.27-0.16-0.31
			C94.88,66.04,94.74,66.11,94.7,66.24z"/>
		<path d="M94.07,66.47c0.04-0.13-0.03-0.27-0.16-0.31s-0.27,0.03-0.31,0.16c-0.04,0.13,0.03,0.27,0.16,0.31
			C93.89,66.66,94.03,66.59,94.07,66.47z"/>
		<path d="M92.82,63.05c0.04-0.13-0.03-0.27-0.16-0.31c-0.13-0.04-0.27,0.03-0.31,0.16c-0.04,0.13,0.03,0.27,0.16,0.31
			C92.64,63.25,92.77,63.18,92.82,63.05z"/>
		<path d="M92.28,64.7c0.04-0.13-0.03-0.27-0.16-0.31c-0.13-0.04-0.27,0.03-0.31,0.16c-0.04,0.13,0.03,0.27,0.16,0.31
			S92.24,64.83,92.28,64.7z"/>
		<path d="M91.77,66.26c0.04-0.13-0.03-0.27-0.16-0.31s-0.27,0.03-0.31,0.16c-0.04,0.13,0.03,0.27,0.16,0.31
			C91.59,66.46,91.73,66.39,91.77,66.26z"/>
		<path d="M94.23,67.7c-0.04,0.13,0.03,0.27,0.16,0.31c0.13,0.04,0.27-0.03,0.31-0.16c0.04-0.13-0.03-0.27-0.16-0.31
			C94.41,67.5,94.27,67.57,94.23,67.7z"/>
		<path d="M93.29,68.08c0.13,0.04,0.27-0.03,0.31-0.16c0.04-0.13-0.03-0.27-0.16-0.31s-0.27,0.03-0.31,0.16
			C93.09,67.9,93.16,68.04,93.29,68.08z"/>
	</g>
	<g>
		<path d="M97.77,46.88c0.14,0,0.25-0.11,0.25-0.24c0-0.14-0.11-0.25-0.25-0.25c-0.14,0-0.24,0.11-0.24,0.25
			C97.53,46.77,97.64,46.88,97.77,46.88z"/>
		<path d="M97,47.04c0-0.14-0.11-0.25-0.25-0.25s-0.24,0.11-0.24,0.25c0,0.14,0.11,0.24,0.24,0.24S97,47.17,97,47.04z"/>
		<path d="M97.53,48.26c0,0.14,0.11,0.25,0.24,0.25c0.14,0,0.25-0.11,0.25-0.25c0-0.14-0.11-0.24-0.25-0.24
			C97.64,48.02,97.53,48.13,97.53,48.26z"/>
		<path d="M97,48.67c0-0.14-0.11-0.25-0.25-0.25s-0.24,0.11-0.24,0.25c0,0.14,0.11,0.24,0.24,0.24S97,48.81,97,48.67z"/>
		<path d="M95.88,48.26c0-0.14-0.11-0.24-0.24-0.24c-0.14,0-0.25,0.11-0.25,0.24c0,0.14,0.11,0.25,0.25,0.25
			C95.77,48.51,95.88,48.4,95.88,48.26z"/>
		<path d="M95.88,49.9c0-0.14-0.11-0.24-0.24-0.24c-0.14,0-0.25,0.11-0.25,0.24c0,0.14,0.11,0.25,0.25,0.25
			C95.77,50.14,95.88,50.03,95.88,49.9z"/>
		<path d="M95.88,51.43c0-0.14-0.11-0.25-0.24-0.25c-0.14,0-0.25,0.11-0.25,0.25c0,0.13,0.11,0.24,0.25,0.24
			C95.77,51.67,95.88,51.56,95.88,51.43z"/>
		<path d="M95.88,52.96c0-0.14-0.11-0.25-0.24-0.25c-0.14,0-0.25,0.11-0.25,0.25c0,0.13,0.11,0.24,0.25,0.24
			C95.77,53.21,95.88,53.1,95.88,52.96z"/>
		<path d="M94.96,53.88c0-0.14-0.11-0.25-0.25-0.25c-0.14,0-0.24,0.11-0.24,0.25s0.11,0.25,0.24,0.25
			C94.85,54.12,94.96,54.01,94.96,53.88z"/>
		<path d="M97.53,50c0,0.14,0.11,0.25,0.24,0.25c0.14,0,0.25-0.11,0.25-0.25s-0.11-0.25-0.25-0.25C97.64,49.75,97.53,49.86,97.53,50
			z"/>
		<path d="M97,50.41c0-0.14-0.11-0.24-0.25-0.24s-0.24,0.11-0.24,0.24s0.11,0.24,0.24,0.24S97,50.54,97,50.41z"/>
		<path d="M97.53,51.63c0,0.14,0.11,0.25,0.24,0.25c0.14,0,0.25-0.11,0.25-0.25c0-0.13-0.11-0.24-0.25-0.24
			C97.64,51.39,97.53,51.5,97.53,51.63z"/>
		<path d="M97,52.04c0-0.14-0.11-0.25-0.25-0.25s-0.24,0.11-0.24,0.25c0,0.14,0.11,0.25,0.24,0.25S97,52.18,97,52.04z"/>
		<path d="M94.75,49.18c0-0.14-0.11-0.25-0.24-0.25c-0.14,0-0.25,0.11-0.25,0.25s0.11,0.24,0.25,0.24
			C94.64,49.43,94.75,49.32,94.75,49.18z"/>
		<path d="M94.75,50.92c0-0.14-0.11-0.25-0.24-0.25c-0.14,0-0.25,0.11-0.25,0.25c0,0.13,0.11,0.24,0.25,0.24
			C94.64,51.16,94.75,51.05,94.75,50.92z"/>
		<path d="M94.75,52.55c0-0.14-0.11-0.25-0.24-0.25c-0.14,0-0.25,0.11-0.25,0.25c0,0.14,0.11,0.25,0.25,0.25
			C94.64,52.8,94.75,52.69,94.75,52.55z"/>
		<path d="M97.53,53.16c0,0.14,0.11,0.25,0.24,0.25c0.14,0,0.25-0.11,0.25-0.25c0-0.13-0.11-0.24-0.25-0.24
			C97.64,52.92,97.53,53.03,97.53,53.16z"/>
		<path d="M96.75,53.82c0.14,0,0.25-0.11,0.25-0.25c0-0.14-0.11-0.25-0.25-0.25s-0.24,0.11-0.24,0.25
			C96.51,53.71,96.62,53.82,96.75,53.82z"/>
	</g>
	<g>
		<path d="M94.47,32.27c0.13-0.04,0.2-0.18,0.16-0.31c-0.04-0.13-0.18-0.2-0.31-0.16c-0.13,0.04-0.2,0.18-0.16,0.31
			C94.2,32.24,94.34,32.31,94.47,32.27z"/>
		<path d="M93.78,32.66c-0.04-0.13-0.18-0.2-0.31-0.16c-0.13,0.04-0.2,0.18-0.16,0.31c0.04,0.13,0.18,0.2,0.31,0.16
			C93.75,32.93,93.83,32.79,93.78,32.66z"/>
		<path d="M94.67,33.66c0.04,0.13,0.18,0.2,0.31,0.16c0.13-0.04,0.2-0.18,0.16-0.31s-0.18-0.2-0.31-0.16
			C94.7,33.4,94.63,33.53,94.67,33.66z"/>
		<path d="M94.29,34.21c-0.04-0.13-0.18-0.2-0.31-0.16c-0.13,0.04-0.2,0.18-0.16,0.31c0.04,0.13,0.18,0.2,0.31,0.16
			C94.26,34.48,94.33,34.34,94.29,34.21z"/>
		<path d="M93.09,34.17c-0.04-0.13-0.18-0.2-0.31-0.16c-0.13,0.04-0.2,0.18-0.16,0.31c0.04,0.13,0.18,0.2,0.31,0.16
			C93.07,34.44,93.14,34.3,93.09,34.17z"/>
		<path d="M93.6,35.73c-0.04-0.13-0.18-0.2-0.31-0.16c-0.13,0.04-0.2,0.18-0.16,0.31c0.04,0.13,0.18,0.2,0.31,0.16
			C93.57,35.99,93.64,35.85,93.6,35.73z"/>
		<path d="M94.07,37.18c-0.04-0.13-0.18-0.2-0.31-0.16c-0.13,0.04-0.2,0.18-0.16,0.31c0.04,0.13,0.18,0.2,0.31,0.16
			C94.04,37.45,94.11,37.31,94.07,37.18z"/>
		<path d="M94.55,38.64c-0.04-0.13-0.18-0.2-0.31-0.16c-0.13,0.04-0.2,0.18-0.16,0.31c0.04,0.13,0.18,0.2,0.31,0.16
			C94.52,38.91,94.59,38.77,94.55,38.64z"/>
		<path d="M93.96,39.8c-0.04-0.13-0.18-0.2-0.31-0.16c-0.13,0.04-0.2,0.18-0.16,0.31c0.04,0.13,0.18,0.2,0.31,0.16
			C93.93,40.06,94,39.93,93.96,39.8z"/>
		<path d="M95.2,35.31c0.04,0.13,0.18,0.2,0.31,0.16c0.13-0.04,0.2-0.18,0.16-0.31c-0.04-0.13-0.18-0.2-0.31-0.16
			C95.23,35.05,95.16,35.18,95.2,35.31z"/>
		<path d="M94.83,35.86c-0.04-0.13-0.18-0.2-0.31-0.16c-0.13,0.04-0.2,0.18-0.16,0.31c0.04,0.13,0.18,0.2,0.31,0.16
			C94.8,36.13,94.87,35.99,94.83,35.86z"/>
		<path d="M95.71,36.87c0.04,0.13,0.18,0.2,0.31,0.16c0.13-0.04,0.2-0.18,0.16-0.31c-0.04-0.13-0.18-0.2-0.31-0.16
			C95.74,36.6,95.67,36.74,95.71,36.87z"/>
		<path d="M95.33,37.42c-0.04-0.13-0.18-0.2-0.31-0.16c-0.13,0.04-0.2,0.18-0.16,0.31c0.04,0.13,0.18,0.2,0.31,0.16
			C95.3,37.69,95.37,37.55,95.33,37.42z"/>
		<path d="M92.31,35.39c-0.04-0.13-0.18-0.2-0.31-0.16c-0.13,0.04-0.2,0.18-0.16,0.31c0.04,0.13,0.18,0.2,0.31,0.16
			C92.28,35.66,92.35,35.52,92.31,35.39z"/>
		<path d="M92.85,37.04c-0.04-0.13-0.18-0.2-0.31-0.16c-0.13,0.04-0.2,0.18-0.16,0.31c0.04,0.13,0.18,0.2,0.31,0.16
			C92.82,37.31,92.89,37.17,92.85,37.04z"/>
		<path d="M93.35,38.6c-0.04-0.13-0.18-0.2-0.31-0.16c-0.13,0.04-0.2,0.18-0.16,0.31c0.04,0.13,0.18,0.2,0.31,0.16
			C93.32,38.86,93.39,38.73,93.35,38.6z"/>
		<path d="M96.18,38.32c0.04,0.13,0.18,0.2,0.31,0.16c0.13-0.04,0.2-0.18,0.16-0.31c-0.04-0.13-0.18-0.2-0.31-0.16
			C96.21,38.06,96.14,38.19,96.18,38.32z"/>
		<path d="M95.65,39.18c0.13-0.04,0.2-0.18,0.16-0.31s-0.18-0.2-0.31-0.16c-0.13,0.04-0.2,0.18-0.16,0.31
			C95.38,39.15,95.52,39.23,95.65,39.18z"/>
	</g>
	<g>
		<path d="M86.81,19.39c0.11-0.08,0.13-0.23,0.05-0.34c-0.08-0.11-0.23-0.13-0.34-0.05c-0.11,0.08-0.13,0.23-0.05,0.34
			C86.55,19.45,86.71,19.47,86.81,19.39z"/>
		<path d="M86.28,19.98c-0.08-0.11-0.23-0.13-0.34-0.05s-0.13,0.23-0.05,0.34c0.08,0.11,0.23,0.13,0.34,0.05
			S86.36,20.09,86.28,19.98z"/>
		<path d="M87.43,20.66c0.08,0.11,0.23,0.13,0.34,0.05s0.13-0.23,0.05-0.34s-0.23-0.13-0.34-0.05S87.35,20.55,87.43,20.66z"/>
		<path d="M87.24,21.3c-0.08-0.11-0.23-0.13-0.34-0.05c-0.11,0.08-0.13,0.23-0.05,0.34c0.08,0.11,0.23,0.13,0.34,0.05
			C87.3,21.56,87.32,21.41,87.24,21.3z"/>
		<path d="M86.09,21.63c-0.08-0.11-0.23-0.13-0.34-0.05s-0.13,0.23-0.05,0.34s0.23,0.13,0.34,0.05S86.17,21.74,86.09,21.63z"/>
		<path d="M87.05,22.95c-0.08-0.11-0.23-0.13-0.34-0.05c-0.11,0.08-0.13,0.23-0.05,0.34c0.08,0.11,0.23,0.13,0.34,0.05
			C87.11,23.21,87.13,23.06,87.05,22.95z"/>
		<path d="M87.95,24.19c-0.08-0.11-0.23-0.13-0.34-0.05c-0.11,0.08-0.13,0.23-0.05,0.34c0.08,0.11,0.23,0.13,0.34,0.05
			S88.03,24.3,87.95,24.19z"/>
		<path d="M88.85,25.43c-0.08-0.11-0.23-0.13-0.34-0.05s-0.13,0.23-0.05,0.34c0.08,0.11,0.23,0.13,0.34,0.05
			C88.91,25.69,88.93,25.54,88.85,25.43z"/>
		<path d="M88.65,26.71c-0.08-0.11-0.23-0.13-0.34-0.05c-0.11,0.08-0.13,0.23-0.05,0.34s0.23,0.13,0.34,0.05
			S88.73,26.82,88.65,26.71z"/>
		<path d="M88.45,22.06c0.08,0.11,0.23,0.13,0.34,0.05c0.11-0.08,0.13-0.23,0.05-0.34s-0.23-0.13-0.34-0.05S88.37,21.95,88.45,22.06
			z"/>
		<path d="M88.26,22.7c-0.08-0.11-0.23-0.13-0.34-0.05s-0.13,0.23-0.05,0.34s0.23,0.13,0.34,0.05
			C88.32,22.97,88.34,22.81,88.26,22.7z"/>
		<path d="M89.41,23.38c0.08,0.11,0.23,0.13,0.34,0.05c0.11-0.08,0.13-0.23,0.05-0.34c-0.08-0.11-0.23-0.13-0.34-0.05
			S89.33,23.27,89.41,23.38z"/>
		<path d="M89.22,24.03c-0.08-0.11-0.23-0.13-0.34-0.05s-0.13,0.23-0.05,0.34c0.08,0.11,0.23,0.13,0.34,0.05
			C89.28,24.29,89.3,24.14,89.22,24.03z"/>
		<path d="M85.73,23.03c-0.08-0.11-0.23-0.13-0.34-0.05c-0.11,0.08-0.13,0.23-0.05,0.34c0.08,0.11,0.23,0.13,0.34,0.05
			C85.78,23.3,85.81,23.14,85.73,23.03z"/>
		<path d="M86.75,24.44c-0.08-0.11-0.23-0.13-0.34-0.05c-0.11,0.08-0.13,0.23-0.05,0.34c0.08,0.11,0.23,0.13,0.34,0.05
			S86.83,24.55,86.75,24.44z"/>
		<path d="M87.71,25.76c-0.08-0.11-0.23-0.13-0.34-0.05s-0.13,0.23-0.05,0.34s0.23,0.13,0.34,0.05S87.79,25.87,87.71,25.76z"/>
		<path d="M90.31,24.62c0.08,0.11,0.23,0.13,0.34,0.05c0.11-0.08,0.13-0.23,0.05-0.34c-0.08-0.11-0.23-0.13-0.34-0.05
			C90.26,24.36,90.23,24.51,90.31,24.62z"/>
		<path d="M90.07,25.61c0.11-0.08,0.13-0.23,0.05-0.34c-0.08-0.11-0.23-0.13-0.34-0.05s-0.13,0.23-0.05,0.34
			C89.81,25.66,89.96,25.69,90.07,25.61z"/>
	</g>
	<g>
		<path d="M75.55,9.51c0.08-0.11,0.06-0.26-0.05-0.34c-0.11-0.08-0.26-0.06-0.34,0.05c-0.08,0.11-0.05,0.26,0.05,0.34
			C75.32,9.65,75.47,9.62,75.55,9.51z"/>
		<path d="M75.23,10.24c-0.11-0.08-0.26-0.06-0.34,0.05c-0.08,0.11-0.05,0.26,0.05,0.34c0.11,0.08,0.26,0.06,0.34-0.05
			C75.36,10.47,75.34,10.32,75.23,10.24z"/>
		<path d="M76.53,10.53c0.11,0.08,0.26,0.06,0.34-0.05c0.08-0.11,0.06-0.26-0.05-0.34s-0.26-0.05-0.34,0.05
			C76.4,10.29,76.42,10.45,76.53,10.53z"/>
		<path d="M76.55,11.2c-0.11-0.08-0.26-0.06-0.34,0.05s-0.05,0.26,0.05,0.34c0.11,0.08,0.26,0.06,0.34-0.05
			C76.69,11.43,76.66,11.28,76.55,11.2z"/>
		<path d="M75.56,11.87c-0.11-0.08-0.26-0.06-0.34,0.05s-0.06,0.26,0.05,0.34c0.11,0.08,0.26,0.06,0.34-0.05
			C75.7,12.1,75.67,11.94,75.56,11.87z"/>
		<path d="M76.88,12.83c-0.11-0.08-0.26-0.06-0.34,0.05s-0.06,0.26,0.05,0.34c0.11,0.08,0.26,0.06,0.34-0.05
			C77.02,13.06,76.99,12.9,76.88,12.83z"/>
		<path d="M78.12,13.73c-0.11-0.08-0.26-0.06-0.34,0.05s-0.06,0.26,0.05,0.34c0.11,0.08,0.26,0.05,0.34-0.05S78.23,13.8,78.12,13.73
			z"/>
		<path d="M79.36,14.63c-0.11-0.08-0.26-0.06-0.34,0.05c-0.08,0.11-0.06,0.26,0.05,0.34c0.11,0.08,0.26,0.05,0.34-0.05
			C79.49,14.86,79.47,14.7,79.36,14.63z"/>
		<path d="M79.56,15.91c-0.11-0.08-0.26-0.06-0.34,0.05c-0.08,0.11-0.06,0.26,0.05,0.34c0.11,0.08,0.26,0.06,0.34-0.05
			S79.67,15.99,79.56,15.91z"/>
		<path d="M77.94,11.55c0.11,0.08,0.26,0.06,0.34-0.05c0.08-0.11,0.06-0.26-0.05-0.34c-0.11-0.08-0.26-0.06-0.34,0.05
			C77.8,11.31,77.83,11.47,77.94,11.55z"/>
		<path d="M77.96,12.22c-0.11-0.08-0.26-0.05-0.34,0.05c-0.08,0.11-0.06,0.26,0.05,0.34c0.11,0.08,0.26,0.06,0.34-0.05
			C78.09,12.45,78.06,12.3,77.96,12.22z"/>
		<path d="M79.26,12.51c0.11,0.08,0.26,0.06,0.34-0.05c0.08-0.11,0.06-0.26-0.05-0.34c-0.11-0.08-0.26-0.05-0.34,0.05
			C79.13,12.27,79.15,12.43,79.26,12.51z"/>
		<path d="M79.28,13.18c-0.11-0.08-0.26-0.06-0.34,0.05c-0.08,0.11-0.06,0.26,0.05,0.34s0.26,0.06,0.34-0.05
			C79.41,13.41,79.39,13.26,79.28,13.18z"/>
		<path d="M75.64,13.31c-0.11-0.08-0.26-0.06-0.34,0.05c-0.08,0.11-0.06,0.26,0.05,0.34c0.11,0.08,0.26,0.05,0.34-0.05
			C75.78,13.55,75.75,13.39,75.64,13.31z"/>
		<path d="M77.05,14.33c-0.11-0.08-0.26-0.06-0.34,0.05c-0.08,0.11-0.06,0.26,0.05,0.34c0.11,0.08,0.26,0.05,0.34-0.05
			C77.18,14.57,77.16,14.41,77.05,14.33z"/>
		<path d="M78.37,15.29c-0.11-0.08-0.26-0.06-0.34,0.05c-0.08,0.11-0.06,0.26,0.05,0.34s0.26,0.06,0.34-0.05
			C78.5,15.53,78.48,15.37,78.37,15.29z"/>
		<path d="M80.5,13.41c0.11,0.08,0.26,0.06,0.34-0.05c0.08-0.11,0.06-0.26-0.05-0.34c-0.11-0.08-0.26-0.05-0.34,0.05
			C80.36,13.17,80.39,13.33,80.5,13.41z"/>
		<path d="M80.57,14.42c0.08-0.11,0.06-0.26-0.05-0.34s-0.26-0.06-0.34,0.05s-0.06,0.26,0.05,0.34
			C80.34,14.55,80.49,14.53,80.57,14.42z"/>
	</g>
	<g>
		<path d="M61.79,3.6c0.04-0.13-0.03-0.27-0.16-0.31s-0.27,0.03-0.31,0.16c-0.04,0.13,0.03,0.27,0.16,0.31
			C61.61,3.8,61.75,3.73,61.79,3.6z"/>
		<path d="M61.71,4.39c-0.13-0.04-0.27,0.03-0.31,0.16c-0.04,0.13,0.03,0.27,0.16,0.31c0.13,0.04,0.27-0.03,0.31-0.16
			C61.91,4.57,61.84,4.43,61.71,4.39z"/>
		<path d="M63.04,4.26c0.13,0.04,0.27-0.03,0.31-0.16c0.04-0.13-0.03-0.27-0.16-0.31c-0.13-0.04-0.27,0.03-0.31,0.16
			C62.84,4.08,62.91,4.22,63.04,4.26z"/>
		<path d="M63.26,4.89c-0.13-0.04-0.27,0.03-0.31,0.16c-0.04,0.13,0.03,0.27,0.16,0.31c0.13,0.04,0.27-0.03,0.31-0.16
			C63.46,5.07,63.39,4.93,63.26,4.89z"/>
		<path d="M62.53,5.83c-0.13-0.04-0.27,0.03-0.31,0.16c-0.04,0.13,0.03,0.27,0.16,0.31c0.13,0.04,0.27-0.03,0.31-0.16
			C62.73,6.01,62.65,5.87,62.53,5.83z"/>
		<path d="M64.08,6.34c-0.13-0.04-0.27,0.03-0.31,0.16c-0.04,0.13,0.03,0.27,0.16,0.31c0.13,0.04,0.27-0.03,0.31-0.16
			C64.28,6.52,64.21,6.38,64.08,6.34z"/>
		<path d="M65.54,6.81c-0.13-0.04-0.27,0.03-0.31,0.16c-0.04,0.13,0.03,0.27,0.16,0.31c0.13,0.04,0.27-0.03,0.31-0.16
			S65.66,6.85,65.54,6.81z"/>
		<path d="M66.99,7.28c-0.13-0.04-0.27,0.03-0.31,0.16c-0.04,0.13,0.03,0.27,0.16,0.31c0.13,0.04,0.27-0.03,0.31-0.16
			S67.12,7.33,66.99,7.28z"/>
		<path d="M67.58,8.44c-0.13-0.04-0.27,0.03-0.31,0.16s0.03,0.27,0.16,0.31c0.13,0.04,0.27-0.03,0.31-0.16
			C67.78,8.62,67.71,8.48,67.58,8.44z"/>
		<path d="M64.69,4.8c0.13,0.04,0.27-0.03,0.31-0.16c0.04-0.13-0.03-0.27-0.16-0.31c-0.13-0.04-0.27,0.03-0.31,0.16
			C64.49,4.62,64.56,4.75,64.69,4.8z"/>
		<path d="M64.91,5.43c-0.13-0.04-0.27,0.03-0.31,0.16c-0.04,0.13,0.03,0.27,0.16,0.31c0.13,0.04,0.27-0.03,0.31-0.16
			S65.04,5.47,64.91,5.43z"/>
		<path d="M66.24,5.3c0.13,0.04,0.27-0.03,0.31-0.16s-0.03-0.27-0.16-0.31c-0.13-0.04-0.27,0.03-0.31,0.16
			C66.04,5.12,66.11,5.26,66.24,5.3z"/>
		<path d="M66.47,5.93c-0.13-0.04-0.27,0.03-0.31,0.16s0.03,0.27,0.16,0.31s0.27-0.03,0.31-0.16C66.66,6.11,66.59,5.97,66.47,5.93z"
			/>
		<path d="M63.05,7.18c-0.13-0.04-0.27,0.03-0.31,0.16c-0.04,0.13,0.03,0.27,0.16,0.31c0.13,0.04,0.27-0.03,0.31-0.16
			C63.25,7.36,63.18,7.23,63.05,7.18z"/>
		<path d="M64.7,7.72c-0.13-0.04-0.27,0.03-0.31,0.16c-0.04,0.13,0.03,0.27,0.16,0.31c0.13,0.04,0.27-0.03,0.31-0.16
			S64.83,7.76,64.7,7.72z"/>
		<path d="M66.26,8.23c-0.13-0.04-0.27,0.03-0.31,0.16c-0.04,0.13,0.03,0.27,0.16,0.31c0.13,0.04,0.27-0.03,0.31-0.16
			C66.46,8.41,66.39,8.27,66.26,8.23z"/>
		<path d="M67.7,5.77c0.13,0.04,0.27-0.03,0.31-0.16c0.04-0.13-0.03-0.27-0.16-0.31c-0.13-0.04-0.27,0.03-0.31,0.16
			C67.5,5.59,67.57,5.73,67.7,5.77z"/>
		<path d="M68.08,6.71c0.04-0.13-0.03-0.27-0.16-0.31s-0.27,0.03-0.31,0.16c-0.04,0.13,0.03,0.27,0.16,0.31S68.04,6.84,68.08,6.71z"
			/>
	</g>
</g>
<g>
	<g>
		<polyline fill="none" stroke="#000000" stroke-width="0.1" stroke-miterlimit="10" points="45.41,1.61 54.7,1.61 54.7,6.31 
			48.98,6.31 45.41,3.45 		"/>
		<line fill="none" stroke="#000000" stroke-width="0.1" stroke-miterlimit="10" x1="54.7" y1="1.61" x2="56.23" y2="3.35"/>
		<line fill="none" stroke="#000000" stroke-width="0.1" stroke-miterlimit="10" x1="54.08" y1="6.31" x2="55.61" y2="8.15"/>
		<line fill="none" stroke="#000000" stroke-width="0.1" stroke-miterlimit="10" x1="54.7" y1="6.21" x2="56.23" y2="8.04"/>
		<line fill="none" stroke="#000000" stroke-width="0.1" stroke-miterlimit="10" x1="46.63" y1="4.37" x2="45.3" y2="6.51"/>
		<line fill="none" stroke="#000000" stroke-width="0.1" stroke-miterlimit="10" x1="47.04" y1="4.67" x2="45.81" y2="6.82"/>
	</g>
	<g>
		<polyline fill="none" stroke="#000000" stroke-width="0.1" stroke-miterlimit="10" points="30.68,5.4 39.51,2.53 40.96,7 
			35.53,8.76 31.25,7.15 		"/>
		<line fill="none" stroke="#000000" stroke-width="0.1" stroke-miterlimit="10" x1="39.51" y1="2.53" x2="41.51" y2="3.71"/>
		<line fill="none" stroke="#000000" stroke-width="0.1" stroke-miterlimit="10" x1="40.38" y1="7.18" x2="42.41" y2="8.46"/>
		<line fill="none" stroke="#000000" stroke-width="0.1" stroke-miterlimit="10" x1="40.93" y1="6.9" x2="42.96" y2="8.17"/>
		<line fill="none" stroke="#000000" stroke-width="0.1" stroke-miterlimit="10" x1="32.7" y1="7.64" x2="32.1" y2="10.09"/>
		<line fill="none" stroke="#000000" stroke-width="0.1" stroke-miterlimit="10" x1="33.18" y1="7.81" x2="32.68" y2="10.23"/>
	</g>
	<g>
		<polyline fill="none" stroke="#000000" stroke-width="0.1" stroke-miterlimit="10" points="17.84,13.55 25.36,8.09 28.12,11.89 
			23.49,15.25 18.92,15.04 		"/>
		<line fill="none" stroke="#000000" stroke-width="0.1" stroke-miterlimit="10" x1="25.36" y1="8.09" x2="27.62" y2="8.6"/>
		<line fill="none" stroke="#000000" stroke-width="0.1" stroke-miterlimit="10" x1="27.62" y1="12.25" x2="29.94" y2="12.84"/>
		<line fill="none" stroke="#000000" stroke-width="0.1" stroke-miterlimit="10" x1="28.06" y1="11.81" x2="30.38" y2="12.4"/>
		<line fill="none" stroke="#000000" stroke-width="0.1" stroke-miterlimit="10" x1="20.45" y1="15.06" x2="20.64" y2="17.58"/>
		<line fill="none" stroke="#000000" stroke-width="0.1" stroke-miterlimit="10" x1="20.96" y1="15.07" x2="21.23" y2="17.53"/>
	</g>
	<g>
		<polyline fill="none" stroke="#000000" stroke-width="0.1" stroke-miterlimit="10" points="8.15,25.27 13.61,17.76 17.41,20.52 
			14.05,25.14 9.64,26.36 		"/>
		<line fill="none" stroke="#000000" stroke-width="0.1" stroke-miterlimit="10" x1="13.61" y1="17.76" x2="15.92" y2="17.54"/>
		<line fill="none" stroke="#000000" stroke-width="0.1" stroke-miterlimit="10" x1="17.05" y1="21.02" x2="19.44" y2="20.86"/>
		<line fill="none" stroke="#000000" stroke-width="0.1" stroke-miterlimit="10" x1="17.33" y1="20.46" x2="19.72" y2="20.3"/>
		<line fill="none" stroke="#000000" stroke-width="0.1" stroke-miterlimit="10" x1="11.1" y1="25.9" x2="12.06" y2="28.24"/>
		<line fill="none" stroke="#000000" stroke-width="0.1" stroke-miterlimit="10" x1="11.59" y1="25.75" x2="12.61" y2="28"/>
	</g>
	<g>
		<polyline fill="none" stroke="#000000" stroke-width="0.1" stroke-miterlimit="10" points="2.56,39.42 5.43,30.58 9.9,32.03 
			8.13,37.47 4.31,39.98 		"/>
		<line fill="none" stroke="#000000" stroke-width="0.1" stroke-miterlimit="10" x1="5.43" y1="30.58" x2="7.56" y2="29.66"/>
		<line fill="none" stroke="#000000" stroke-width="0.1" stroke-miterlimit="10" x1="9.71" y1="32.62" x2="11.93" y2="31.73"/>
		<line fill="none" stroke="#000000" stroke-width="0.1" stroke-miterlimit="10" x1="9.8" y1="32" x2="12.02" y2="31.11"/>
		<line fill="none" stroke="#000000" stroke-width="0.1" stroke-miterlimit="10" x1="5.56" y1="39.1" x2="7.19" y2="41.03"/>
		<line fill="none" stroke="#000000" stroke-width="0.1" stroke-miterlimit="10" x1="5.98" y1="38.81" x2="7.64" y2="40.64"/>
	</g>
	<g>
		<polyline fill="none" stroke="#000000" stroke-width="0.1" stroke-miterlimit="10" points="1.61,54.59 1.61,45.3 6.31,45.3 
			6.31,51.02 3.45,54.59 		"/>
		<line fill="none" stroke="#000000" stroke-width="0.1" stroke-miterlimit="10" x1="1.61" y1="45.3" x2="3.35" y2="43.77"/>
		<line fill="none" stroke="#000000" stroke-width="0.1" stroke-miterlimit="10" x1="6.31" y1="45.92" x2="8.15" y2="44.39"/>
		<line fill="none" stroke="#000000" stroke-width="0.1" stroke-miterlimit="10" x1="6.21" y1="45.3" x2="8.04" y2="43.77"/>
		<line fill="none" stroke="#000000" stroke-width="0.1" stroke-miterlimit="10" x1="4.37" y1="53.37" x2="6.51" y2="54.7"/>
		<line fill="none" stroke="#000000" stroke-width="0.1" stroke-miterlimit="10" x1="4.67" y1="52.96" x2="6.82" y2="54.19"/>
	</g>
	<g>
		<polyline fill="none" stroke="#000000" stroke-width="0.1" stroke-miterlimit="10" points="5.4,69.32 2.53,60.49 7,59.04 
			8.76,64.47 7.15,68.75 		"/>
		<line fill="none" stroke="#000000" stroke-width="0.1" stroke-miterlimit="10" x1="2.53" y1="60.49" x2="3.71" y2="58.49"/>
		<line fill="none" stroke="#000000" stroke-width="0.1" stroke-miterlimit="10" x1="7.18" y1="59.62" x2="8.46" y2="57.59"/>
		<line fill="none" stroke="#000000" stroke-width="0.1" stroke-miterlimit="10" x1="6.9" y1="59.07" x2="8.17" y2="57.04"/>
		<line fill="none" stroke="#000000" stroke-width="0.1" stroke-miterlimit="10" x1="7.64" y1="67.3" x2="10.09" y2="67.9"/>
		<line fill="none" stroke="#000000" stroke-width="0.1" stroke-miterlimit="10" x1="7.81" y1="66.82" x2="10.23" y2="67.32"/>
	</g>
	<g>
		<polyline fill="none" stroke="#000000" stroke-width="0.1" stroke-miterlimit="10" points="13.55,82.16 8.09,74.64 11.89,71.88 
			15.25,76.51 15.04,81.08 		"/>
		<line fill="none" stroke="#000000" stroke-width="0.1" stroke-miterlimit="10" x1="8.09" y1="74.64" x2="8.6" y2="72.38"/>
		<line fill="none" stroke="#000000" stroke-width="0.1" stroke-miterlimit="10" x1="12.25" y1="72.38" x2="12.84" y2="70.06"/>
		<line fill="none" stroke="#000000" stroke-width="0.1" stroke-miterlimit="10" x1="11.81" y1="71.94" x2="12.4" y2="69.62"/>
		<line fill="none" stroke="#000000" stroke-width="0.1" stroke-miterlimit="10" x1="15.06" y1="79.55" x2="17.58" y2="79.36"/>
		<line fill="none" stroke="#000000" stroke-width="0.1" stroke-miterlimit="10" x1="15.07" y1="79.04" x2="17.53" y2="78.77"/>
	</g>
	<g>
		<polyline fill="none" stroke="#000000" stroke-width="0.1" stroke-miterlimit="10" points="25.27,91.85 17.76,86.39 20.52,82.59 
			25.14,85.95 26.36,90.36 		"/>
		<line fill="none" stroke="#000000" stroke-width="0.1" stroke-miterlimit="10" x1="17.76" y1="86.39" x2="17.54" y2="84.08"/>
		<line fill="none" stroke="#000000" stroke-width="0.1" stroke-miterlimit="10" x1="21.02" y1="82.95" x2="20.86" y2="80.56"/>
		<line fill="none" stroke="#000000" stroke-width="0.1" stroke-miterlimit="10" x1="20.46" y1="82.67" x2="20.3" y2="80.28"/>
		<line fill="none" stroke="#000000" stroke-width="0.1" stroke-miterlimit="10" x1="25.9" y1="88.9" x2="28.24" y2="87.94"/>
		<line fill="none" stroke="#000000" stroke-width="0.1" stroke-miterlimit="10" x1="25.75" y1="88.41" x2="28" y2="87.39"/>
	</g>
	<g>
		<polyline fill="none" stroke="#000000" stroke-width="0.1" stroke-miterlimit="10" points="39.42,97.44 30.58,94.57 32.03,90.1 
			37.47,91.87 39.98,95.69 		"/>
		<line fill="none" stroke="#000000" stroke-width="0.1" stroke-miterlimit="10" x1="30.58" y1="94.57" x2="29.66" y2="92.44"/>
		<line fill="none" stroke="#000000" stroke-width="0.1" stroke-miterlimit="10" x1="32.62" y1="90.29" x2="31.73" y2="88.07"/>
		<line fill="none" stroke="#000000" stroke-width="0.1" stroke-miterlimit="10" x1="32" y1="90.2" x2="31.11" y2="87.98"/>
		<line fill="none" stroke="#000000" stroke-width="0.1" stroke-miterlimit="10" x1="39.1" y1="94.44" x2="41.03" y2="92.81"/>
		<line fill="none" stroke="#000000" stroke-width="0.1" stroke-miterlimit="10" x1="38.81" y1="94.02" x2="40.64" y2="92.36"/>
	</g>
	<g>
		<polyline fill="none" stroke="#000000" stroke-width="0.1" stroke-miterlimit="10" points="54.59,98.39 45.3,98.39 45.3,93.69 
			51.02,93.69 54.59,96.55 		"/>
		<line fill="none" stroke="#000000" stroke-width="0.1" stroke-miterlimit="10" x1="45.3" y1="98.39" x2="43.77" y2="96.65"/>
		<line fill="none" stroke="#000000" stroke-width="0.1" stroke-miterlimit="10" x1="45.92" y1="93.69" x2="44.39" y2="91.85"/>
		<line fill="none" stroke="#000000" stroke-width="0.1" stroke-miterlimit="10" x1="45.3" y1="93.79" x2="43.77" y2="91.96"/>
		<line fill="none" stroke="#000000" stroke-width="0.1" stroke-miterlimit="10" x1="53.37" y1="95.63" x2="54.7" y2="93.49"/>
		<line fill="none" stroke="#000000" stroke-width="0.1" stroke-miterlimit="10" x1="52.96" y1="95.32" x2="54.19" y2="93.18"/>
	</g>
	<g>
		<polyline fill="none" stroke="#000000" stroke-width="0.1" stroke-miterlimit="10" points="69.32,94.6 60.49,97.47 59.04,93 
			64.47,91.24 68.75,92.85 		"/>
		<line fill="none" stroke="#000000" stroke-width="0.1" stroke-miterlimit="10" x1="60.49" y1="97.47" x2="58.49" y2="96.29"/>
		<line fill="none" stroke="#000000" stroke-width="0.1" stroke-miterlimit="10" x1="59.62" y1="92.82" x2="57.59" y2="91.54"/>
		<line fill="none" stroke="#000000" stroke-width="0.1" stroke-miterlimit="10" x1="59.07" y1="93.1" x2="57.04" y2="91.83"/>
		<line fill="none" stroke="#000000" stroke-width="0.1" stroke-miterlimit="10" x1="67.3" y1="92.36" x2="67.9" y2="89.91"/>
		<line fill="none" stroke="#000000" stroke-width="0.1" stroke-miterlimit="10" x1="66.82" y1="92.19" x2="67.32" y2="89.77"/>
	</g>
	<g>
		<polyline fill="none" stroke="#000000" stroke-width="0.1" stroke-miterlimit="10" points="82.16,86.45 74.64,91.91 71.88,88.11 
			76.51,84.75 81.08,84.96 		"/>
		<line fill="none" stroke="#000000" stroke-width="0.1" stroke-miterlimit="10" x1="74.64" y1="91.91" x2="72.38" y2="91.4"/>
		<line fill="none" stroke="#000000" stroke-width="0.1" stroke-miterlimit="10" x1="72.38" y1="87.75" x2="70.06" y2="87.16"/>
		<line fill="none" stroke="#000000" stroke-width="0.1" stroke-miterlimit="10" x1="71.94" y1="88.19" x2="69.62" y2="87.6"/>
		<line fill="none" stroke="#000000" stroke-width="0.1" stroke-miterlimit="10" x1="79.55" y1="84.94" x2="79.36" y2="82.42"/>
		<line fill="none" stroke="#000000" stroke-width="0.1" stroke-miterlimit="10" x1="79.04" y1="84.93" x2="78.77" y2="82.47"/>
	</g>
	<g>
		<polyline fill="none" stroke="#000000" stroke-width="0.1" stroke-miterlimit="10" points="91.85,74.73 86.39,82.24 82.59,79.48 
			85.95,74.86 90.36,73.64 		"/>
		<line fill="none" stroke="#000000" stroke-width="0.1" stroke-miterlimit="10" x1="86.39" y1="82.24" x2="84.08" y2="82.46"/>
		<line fill="none" stroke="#000000" stroke-width="0.1" stroke-miterlimit="10" x1="82.95" y1="78.98" x2="80.56" y2="79.14"/>
		<line fill="none" stroke="#000000" stroke-width="0.1" stroke-miterlimit="10" x1="82.67" y1="79.54" x2="80.28" y2="79.7"/>
		<line fill="none" stroke="#000000" stroke-width="0.1" stroke-miterlimit="10" x1="88.9" y1="74.1" x2="87.94" y2="71.76"/>
		<line fill="none" stroke="#000000" stroke-width="0.1" stroke-miterlimit="10" x1="88.41" y1="74.25" x2="87.39" y2="72"/>
	</g>
	<g>
		<polyline fill="none" stroke="#000000" stroke-width="0.1" stroke-miterlimit="10" points="97.44,60.58 94.57,69.42 90.1,67.97 
			91.87,62.53 95.69,60.02 		"/>
		<line fill="none" stroke="#000000" stroke-width="0.1" stroke-miterlimit="10" x1="94.57" y1="69.42" x2="92.44" y2="70.34"/>
		<line fill="none" stroke="#000000" stroke-width="0.1" stroke-miterlimit="10" x1="90.29" y1="67.38" x2="88.07" y2="68.27"/>
		<line fill="none" stroke="#000000" stroke-width="0.1" stroke-miterlimit="10" x1="90.2" y1="68" x2="87.98" y2="68.89"/>
		<line fill="none" stroke="#000000" stroke-width="0.1" stroke-miterlimit="10" x1="94.44" y1="60.9" x2="92.81" y2="58.97"/>
		<line fill="none" stroke="#000000" stroke-width="0.1" stroke-miterlimit="10" x1="94.02" y1="61.19" x2="92.36" y2="59.36"/>
	</g>
	<g>
		<polyline fill="none" stroke="#000000" stroke-width="0.1" stroke-miterlimit="10" points="98.39,45.41 98.39,54.7 93.69,54.7 
			93.69,48.98 96.55,45.41 		"/>
		<line fill="none" stroke="#000000" stroke-width="0.1" stroke-miterlimit="10" x1="98.39" y1="54.7" x2="96.65" y2="56.23"/>
		<line fill="none" stroke="#000000" stroke-width="0.1" stroke-miterlimit="10" x1="93.69" y1="54.08" x2="91.85" y2="55.61"/>
		<line fill="none" stroke="#000000" stroke-width="0.1" stroke-miterlimit="10" x1="93.79" y1="54.7" x2="91.96" y2="56.23"/>
		<line fill="none" stroke="#000000" stroke-width="0.1" stroke-miterlimit="10" x1="95.63" y1="46.63" x2="93.49" y2="45.3"/>
		<line fill="none" stroke="#000000" stroke-width="0.1" stroke-miterlimit="10" x1="95.32" y1="47.04" x2="93.18" y2="45.81"/>
	</g>
	<g>
		<polyline fill="none" stroke="#000000" stroke-width="0.1" stroke-miterlimit="10" points="94.6,30.68 97.47,39.51 93,40.96 
			91.24,35.53 92.85,31.25 		"/>
		<line fill="none" stroke="#000000" stroke-width="0.1" stroke-miterlimit="10" x1="97.47" y1="39.51" x2="96.29" y2="41.51"/>
		<line fill="none" stroke="#000000" stroke-width="0.1" stroke-miterlimit="10" x1="92.82" y1="40.38" x2="91.54" y2="42.41"/>
		<line fill="none" stroke="#000000" stroke-width="0.1" stroke-miterlimit="10" x1="93.1" y1="40.93" x2="91.83" y2="42.96"/>
		<line fill="none" stroke="#000000" stroke-width="0.1" stroke-miterlimit="10" x1="92.36" y1="32.7" x2="89.91" y2="32.1"/>
		<line fill="none" stroke="#000000" stroke-width="0.1" stroke-miterlimit="10" x1="92.19" y1="33.18" x2="89.77" y2="32.68"/>
	</g>
	<g>
		<polyline fill="none" stroke="#000000" stroke-width="0.1" stroke-miterlimit="10" points="86.45,17.84 91.91,25.36 88.11,28.12 
			84.75,23.49 84.96,18.92 		"/>
		<line fill="none" stroke="#000000" stroke-width="0.1" stroke-miterlimit="10" x1="91.91" y1="25.36" x2="91.4" y2="27.62"/>
		<line fill="none" stroke="#000000" stroke-width="0.1" stroke-miterlimit="10" x1="87.75" y1="27.62" x2="87.16" y2="29.94"/>
		<line fill="none" stroke="#000000" stroke-width="0.1" stroke-miterlimit="10" x1="88.19" y1="28.06" x2="87.6" y2="30.38"/>
		<line fill="none" stroke="#000000" stroke-width="0.1" stroke-miterlimit="10" x1="84.94" y1="20.45" x2="82.42" y2="20.64"/>
		<line fill="none" stroke="#000000" stroke-width="0.1" stroke-miterlimit="10" x1="84.93" y1="20.96" x2="82.47" y2="21.23"/>
	</g>
	<g>
		<polyline fill="none" stroke="#000000" stroke-width="0.1" stroke-miterlimit="10" points="74.73,8.15 82.24,13.61 79.48,17.41 
			74.86,14.05 73.64,9.64 		"/>
		<line fill="none" stroke="#000000" stroke-width="0.1" stroke-miterlimit="10" x1="82.24" y1="13.61" x2="82.46" y2="15.92"/>
		<line fill="none" stroke="#000000" stroke-width="0.1" stroke-miterlimit="10" x1="78.98" y1="17.05" x2="79.14" y2="19.44"/>
		<line fill="none" stroke="#000000" stroke-width="0.1" stroke-miterlimit="10" x1="79.54" y1="17.33" x2="79.7" y2="19.72"/>
		<line fill="none" stroke="#000000" stroke-width="0.1" stroke-miterlimit="10" x1="74.1" y1="11.1" x2="71.76" y2="12.06"/>
		<line fill="none" stroke="#000000" stroke-width="0.1" stroke-miterlimit="10" x1="74.25" y1="11.59" x2="72" y2="12.61"/>
	</g>
	<g>
		<polyline fill="none" stroke="#000000" stroke-width="0.1" stroke-miterlimit="10" points="60.58,2.56 69.42,5.43 67.97,9.9 
			62.53,8.13 60.02,4.31 		"/>
		<line fill="none" stroke="#000000" stroke-width="0.1" stroke-miterlimit="10" x1="69.42" y1="5.43" x2="70.34" y2="7.56"/>
		<line fill="none" stroke="#000000" stroke-width="0.1" stroke-miterlimit="10" x1="67.38" y1="9.71" x2="68.27" y2="11.93"/>
		<line fill="none" stroke="#000000" stroke-width="0.1" stroke-miterlimit="10" x1="68" y1="9.8" x2="68.89" y2="12.02"/>
		<line fill="none" stroke="#000000" stroke-width="0.1" stroke-miterlimit="10" x1="60.9" y1="5.56" x2="58.97" y2="7.19"/>
		<line fill="none" stroke="#000000" stroke-width="0.1" stroke-miterlimit="10" x1="61.19" y1="5.98" x2="59.36" y2="7.64"/>
	</g>
</g>
<g>
	<path d="M45.41,1.41h-1.25c-0.04-0.03-0.08-0.05-0.11-0.07L44.18,1l-0.16,0.32c-0.05-0.03-0.11-0.05-0.17-0.07L43.98,1l-0.18,0.24
		c-0.07-0.02-0.15-0.04-0.22-0.04c-0.51,0-0.92,0.37-0.92,0.82s0.41,0.82,0.92,0.82c0.15,0,0.29-0.04,0.41-0.1l1.42,0.91V1.41z"/>
	<path d="M30.62,5.21l-1.19,0.39c-0.04-0.01-0.09-0.02-0.13-0.03l0.02-0.37l-0.05,0.36c-0.06-0.01-0.12-0.02-0.18-0.01l0.04-0.28
		l-0.1,0.29c-0.08,0.01-0.15,0.01-0.23,0.03c-0.48,0.16-0.76,0.63-0.62,1.06c0.14,0.43,0.64,0.65,1.13,0.49
		c0.14-0.05,0.26-0.13,0.36-0.22l1.64,0.43L30.62,5.21z"/>
	<path d="M17.72,13.39l-1.01,0.73c-0.04,0-0.09,0.01-0.13,0.01l-0.09-0.35l0.06,0.36c-0.06,0.01-0.12,0.02-0.18,0.04l-0.05-0.28
		l0,0.31c-0.07,0.03-0.14,0.05-0.21,0.1c-0.41,0.3-0.53,0.84-0.26,1.2s0.81,0.42,1.22,0.12c0.12-0.09,0.21-0.2,0.28-0.32l1.69-0.1
		L17.72,13.39z"/>
	<path d="M7.99,25.15l-0.73,1.01c-0.04,0.01-0.08,0.03-0.12,0.05l-0.19-0.31l0.17,0.32c-0.05,0.03-0.11,0.06-0.16,0.1l-0.13-0.25
		l0.09,0.29c-0.06,0.05-0.12,0.09-0.16,0.16c-0.3,0.41-0.24,0.96,0.12,1.22s0.9,0.15,1.2-0.26c0.09-0.12,0.14-0.26,0.16-0.39
		l1.58-0.61L7.99,25.15z"/>
	<path d="M2.37,39.35l-0.39,1.19c-0.04,0.03-0.07,0.06-0.1,0.09L1.6,40.39l0.26,0.25c-0.04,0.04-0.08,0.09-0.12,0.14l-0.2-0.2
		l0.18,0.25c-0.04,0.06-0.08,0.13-0.11,0.2c-0.16,0.48,0.06,0.99,0.49,1.13s0.9-0.14,1.06-0.62c0.05-0.14,0.05-0.29,0.03-0.42
		l1.31-1.07L2.37,39.35z"/>
	<path d="M1.41,54.59v1.25c-0.03,0.04-0.05,0.08-0.07,0.11L1,55.82l0.32,0.16c-0.03,0.05-0.05,0.11-0.07,0.17L1,56.02l0.24,0.18
		c-0.02,0.07-0.04,0.15-0.04,0.22c0,0.51,0.37,0.92,0.82,0.92s0.82-0.41,0.82-0.92c0-0.15-0.04-0.29-0.1-0.41l0.91-1.42H1.41z"/>
	<path d="M5.21,69.38l0.39,1.19c-0.01,0.04-0.02,0.09-0.03,0.13L5.2,70.68l0.36,0.05c-0.01,0.06-0.02,0.12-0.01,0.18l-0.28-0.04
		l0.29,0.1c0.01,0.08,0.01,0.15,0.03,0.23c0.16,0.48,0.63,0.76,1.06,0.62c0.43-0.14,0.65-0.64,0.49-1.13
		c-0.05-0.14-0.13-0.26-0.22-0.36l0.43-1.64L5.21,69.38z"/>
	<path d="M13.39,82.28l0.73,1.01c0,0.04,0.01,0.09,0.01,0.13l-0.35,0.09l0.36-0.06c0.01,0.06,0.02,0.12,0.04,0.18l-0.28,0.05l0.31,0
		c0.03,0.07,0.05,0.14,0.1,0.21c0.3,0.41,0.84,0.53,1.2,0.26s0.42-0.81,0.12-1.22c-0.09-0.12-0.2-0.21-0.32-0.28l-0.1-1.69
		L13.39,82.28z"/>
	<path d="M25.15,92.01l1.01,0.73c0.01,0.04,0.03,0.08,0.05,0.12l-0.31,0.19l0.32-0.17c0.03,0.05,0.06,0.11,0.1,0.16l-0.25,0.13
		l0.29-0.09c0.05,0.06,0.09,0.12,0.16,0.16c0.41,0.3,0.96,0.24,1.22-0.12s0.15-0.9-0.26-1.2c-0.12-0.09-0.26-0.14-0.39-0.16
		l-0.61-1.58L25.15,92.01z"/>
	<path d="M39.35,97.63l1.19,0.39c0.03,0.04,0.06,0.07,0.09,0.1l-0.23,0.28l0.25-0.26c0.04,0.04,0.09,0.08,0.14,0.12l-0.2,0.2
		l0.25-0.18c0.06,0.04,0.13,0.08,0.2,0.11c0.48,0.16,0.99-0.06,1.13-0.49s-0.14-0.9-0.62-1.06c-0.14-0.05-0.29-0.05-0.42-0.03
		l-1.07-1.31L39.35,97.63z"/>
	<path d="M54.59,98.59h1.25c0.04,0.03,0.08,0.05,0.11,0.07L55.82,99l0.16-0.32c0.05,0.03,0.11,0.05,0.17,0.07L56.02,99l0.18-0.24
		c0.07,0.02,0.15,0.04,0.22,0.04c0.51,0,0.92-0.37,0.92-0.82c0-0.45-0.41-0.82-0.92-0.82c-0.15,0-0.29,0.04-0.41,0.1l-1.42-0.91
		V98.59z"/>
	<path d="M69.38,94.79l1.19-0.39c0.04,0.01,0.09,0.02,0.13,0.03l-0.02,0.37l0.05-0.36c0.06,0.01,0.12,0.02,0.18,0.01l-0.04,0.28
		l0.1-0.29c0.08-0.01,0.15-0.01,0.23-0.03c0.48-0.16,0.76-0.63,0.62-1.06c-0.14-0.43-0.64-0.65-1.13-0.49
		c-0.14,0.05-0.26,0.13-0.36,0.22l-1.64-0.43L69.38,94.79z"/>
	<path d="M82.28,86.61l1.01-0.73c0.04,0,0.09-0.01,0.13-0.01l0.09,0.35l-0.06-0.36c0.06-0.01,0.12-0.02,0.18-0.04l0.05,0.28l0-0.31
		c0.07-0.03,0.14-0.05,0.21-0.1c0.41-0.3,0.53-0.84,0.26-1.2c-0.27-0.36-0.81-0.42-1.22-0.12c-0.12,0.09-0.21,0.2-0.28,0.32
		l-1.69,0.1L82.28,86.61z"/>
	<path d="M92.01,74.85l0.73-1.01c0.04-0.01,0.08-0.03,0.12-0.05l0.19,0.31l-0.17-0.32c0.05-0.03,0.11-0.06,0.16-0.1l0.13,0.25
		l-0.09-0.29c0.06-0.05,0.12-0.09,0.16-0.16c0.3-0.41,0.24-0.96-0.12-1.22s-0.9-0.15-1.2,0.26c-0.09,0.12-0.14,0.26-0.16,0.39
		l-1.58,0.61L92.01,74.85z"/>
	<path d="M97.63,60.65l0.39-1.19c0.04-0.03,0.07-0.06,0.1-0.09l0.28,0.23l-0.26-0.25c0.04-0.04,0.08-0.09,0.12-0.14l0.2,0.2
		l-0.18-0.25c0.04-0.06,0.08-0.13,0.11-0.2c0.16-0.48-0.06-0.99-0.49-1.13s-0.9,0.14-1.06,0.62c-0.05,0.14-0.05,0.29-0.03,0.42
		l-1.31,1.07L97.63,60.65z"/>
	<path d="M98.59,45.41v-1.25c0.03-0.04,0.05-0.08,0.07-0.11L99,44.18l-0.32-0.16c0.03-0.05,0.05-0.11,0.07-0.17L99,43.98l-0.24-0.18
		c0.02-0.07,0.04-0.15,0.04-0.22c0-0.51-0.37-0.92-0.82-0.92c-0.45,0-0.82,0.41-0.82,0.92c0,0.15,0.04,0.29,0.1,0.41l-0.91,1.42
		H98.59z"/>
	<path d="M94.79,30.62l-0.39-1.19c0.01-0.04,0.02-0.09,0.03-0.13l0.37,0.02l-0.36-0.05c0.01-0.06,0.02-0.12,0.01-0.18l0.28,0.04
		l-0.29-0.1c-0.01-0.08-0.01-0.15-0.03-0.23c-0.16-0.48-0.63-0.76-1.06-0.62c-0.43,0.14-0.65,0.64-0.49,1.13
		c0.05,0.14,0.13,0.26,0.22,0.36l-0.43,1.64L94.79,30.62z"/>
	<path d="M86.61,17.72l-0.73-1.01c0-0.04-0.01-0.09-0.01-0.13l0.35-0.09l-0.36,0.06c-0.01-0.06-0.02-0.12-0.04-0.18l0.28-0.05
		l-0.31,0c-0.03-0.07-0.05-0.14-0.1-0.21c-0.3-0.41-0.84-0.53-1.2-0.26c-0.36,0.27-0.42,0.81-0.12,1.22
		c0.09,0.12,0.2,0.21,0.32,0.28l0.1,1.69L86.61,17.72z"/>
	<path d="M74.85,7.99l-1.01-0.73c-0.01-0.04-0.03-0.08-0.05-0.12l0.31-0.19L73.77,7.1c-0.03-0.05-0.06-0.11-0.1-0.16l0.25-0.13
		l-0.29,0.09c-0.05-0.06-0.09-0.12-0.16-0.16c-0.41-0.3-0.96-0.24-1.22,0.12s-0.15,0.9,0.26,1.2c0.12,0.09,0.26,0.14,0.39,0.16
		l0.61,1.58L74.85,7.99z"/>
	<path d="M60.65,2.37l-1.19-0.39c-0.03-0.04-0.06-0.07-0.09-0.1l0.23-0.28l-0.25,0.26c-0.04-0.04-0.09-0.08-0.14-0.12l0.2-0.2
		l-0.25,0.18c-0.06-0.04-0.13-0.08-0.2-0.11c-0.48-0.16-0.99,0.06-1.13,0.49s0.14,0.9,0.62,1.06c0.14,0.05,0.29,0.05,0.42,0.03
		l1.07,1.31L60.65,2.37z"/>
</g>
</svg>
