<?xml version="1.0" encoding="utf-8"?>
<!-- Generator: Adobe Illustrator 23.0.6, SVG Export Plug-In . SVG Version: 6.00 Build 0)  -->
<svg version="1.1" id="Layer_1" xmlns="http://www.w3.org/2000/svg" xmlns:xlink="http://www.w3.org/1999/xlink" x="0px" y="0px"
	 viewBox="0 0 100 100" enable-background="new 0 0 100 100" xml:space="preserve">
<g>
	<g>
		<g>
			<path fill="none" stroke="#000000" stroke-width="0.1" stroke-miterlimit="10" d="M52.97,8.22c0-1.84-1.43-3.76-3.12-3.76
				c-1.69,0-3.05,1.63-3.05,3.48c0,0.06,0,0.13,0,0.19l-1.67,0.1c0-0.09-0.01-0.19-0.01-0.29c0-2.91,2.15-5.26,4.81-5.26
				c2.66,0,4.81,2.36,4.81,5.26c0,0.1,0.01,0.38,0,0.48L52.97,8.22z"/>
		</g>
		<path fill="none" stroke="#000000" stroke-width="0.1" stroke-miterlimit="10" d="M53.67,4.61c0,0,1.71-0.99,2.71,0.76
			c1.08,1.9-1.62,2.95-1.62,2.95"/>
		<path fill="none" stroke="#000000" stroke-width="0.1" stroke-miterlimit="10" d="M50.05,2.68c0,0,0.52-2.16,2.64-1.46
			c1.88,0.62,0.78,3.16,0.78,3.16"/>
		<path fill="none" stroke="#000000" stroke-width="0.1" stroke-miterlimit="10" d="M49.7,2.68c0,0-0.99-2.32-2.72-1.5
			c-2.12,1-0.54,3.09-0.54,3.09"/>
		<path fill="none" stroke="#000000" stroke-width="0.1" stroke-miterlimit="10" d="M46.24,4.56c0,0-2.35-0.77-2.93,1.25
			c-0.6,2.09,1.84,2.31,1.84,2.31"/>
	</g>
	<g>
		<g>
			<path fill="none" stroke="#000000" stroke-width="0.1" stroke-miterlimit="10" d="M39.91,9.35c-0.57-1.75-2.52-3.14-4.13-2.61
				s-2.4,2.5-1.83,4.25c0.02,0.06,0.04,0.12,0.06,0.18l-1.56,0.61c-0.03-0.09-0.07-0.18-0.1-0.27c-0.9-2.76,0.42-5.67,2.95-6.49
				s5.31,0.75,6.2,3.52c0.03,0.1,0.12,0.36,0.15,0.46L39.91,9.35z"/>
		</g>
		<path fill="none" stroke="#000000" stroke-width="0.1" stroke-miterlimit="10" d="M39.46,5.7c0,0,1.32-1.47,2.81-0.11
			c1.61,1.47-0.63,3.31-0.63,3.31"/>
		<path fill="none" stroke="#000000" stroke-width="0.1" stroke-miterlimit="10" d="M35.43,4.98c0,0-0.17-2.21,2.06-2.21
			c1.98,0.01,1.72,2.76,1.72,2.76"/>
		<path fill="none" stroke="#000000" stroke-width="0.1" stroke-miterlimit="10" d="M35.09,5.09c0,0-1.65-1.9-3.06-0.59
			c-1.71,1.6,0.44,3.1,0.44,3.1"/>
		<path fill="none" stroke="#000000" stroke-width="0.1" stroke-miterlimit="10" d="M32.38,7.95c0,0-2.47-0.01-2.4,2.09
			c0.08,2.17,2.46,1.63,2.46,1.63"/>
	</g>
	<g>
		<g>
			<path fill="none" stroke="#000000" stroke-width="0.1" stroke-miterlimit="10" d="M27.85,14.45c-1.08-1.49-3.37-2.2-4.73-1.21
				s-1.51,3.12-0.43,4.61c0.04,0.05,0.08,0.1,0.11,0.15l-1.29,1.06c-0.06-0.07-0.12-0.15-0.17-0.23c-1.71-2.35-1.35-5.52,0.8-7.09
				s5.28-0.92,6.99,1.43c0.06,0.08,0.23,0.31,0.28,0.39L27.85,14.45z"/>
		</g>
		<path fill="none" stroke="#000000" stroke-width="0.1" stroke-miterlimit="10" d="M26.28,11.12c0,0,0.81-1.8,2.64-0.97
			c1.99,0.9,0.43,3.34,0.43,3.34"/>
		<path fill="none" stroke="#000000" stroke-width="0.1" stroke-miterlimit="10" d="M22.23,11.68c0,0-0.85-2.05,1.27-2.73
			c1.89-0.61,2.49,2.1,2.49,2.1"/>
		<path fill="none" stroke="#000000" stroke-width="0.1" stroke-miterlimit="10" d="M21.94,11.89c0,0-2.16-1.3-3.09,0.39
			c-1.13,2.05,1.38,2.82,1.38,2.82"/>
		<path fill="none" stroke="#000000" stroke-width="0.1" stroke-miterlimit="10" d="M20.25,15.45c0,0-2.35,0.76-1.63,2.73
			c0.75,2.04,2.84,0.79,2.84,0.79"/>
	</g>
	<g>
		<g>
			<path fill="none" stroke="#000000" stroke-width="0.1" stroke-miterlimit="10" d="M17.95,23.04c-1.49-1.08-3.88-1.05-4.88,0.31
				s-0.47,3.43,1.02,4.51c0.05,0.04,0.1,0.07,0.15,0.11l-0.9,1.41c-0.08-0.05-0.16-0.11-0.24-0.16c-2.35-1.71-2.99-4.84-1.43-6.99
				s4.73-2.51,7.09-0.8c0.08,0.06,0.31,0.22,0.39,0.28L17.95,23.04z"/>
		</g>
		<path fill="none" stroke="#000000" stroke-width="0.1" stroke-miterlimit="10" d="M15.43,20.35c0,0,0.21-1.96,2.21-1.74
			c2.17,0.24,1.44,3.05,1.44,3.05"/>
		<path fill="none" stroke="#000000" stroke-width="0.1" stroke-miterlimit="10" d="M11.74,22.14c0,0-1.44-1.69,0.37-2.99
			c1.61-1.16,3.01,1.23,3.01,1.23"/>
		<path fill="none" stroke="#000000" stroke-width="0.1" stroke-miterlimit="10" d="M11.54,22.42c0,0-2.46-0.57-2.82,1.32
			C8.29,26.04,10.9,26,10.9,26"/>
		<path fill="none" stroke="#000000" stroke-width="0.1" stroke-miterlimit="10" d="M11.03,26.33c0,0-2,1.45-0.71,3.1
			c1.34,1.71,2.95-0.13,2.95-0.13"/>
	</g>
	<g>
		<g>
			<path fill="none" stroke="#000000" stroke-width="0.1" stroke-miterlimit="10" d="M11.18,34.27c-1.75-0.57-4.02,0.2-4.54,1.8
				s0.61,3.41,2.36,3.98c0.06,0.02,0.12,0.04,0.18,0.05l-0.42,1.62c-0.09-0.02-0.18-0.05-0.27-0.08c-2.76-0.9-4.34-3.68-3.52-6.2
				s3.73-3.85,6.49-2.95c0.1,0.03,0.37,0.11,0.46,0.15L11.18,34.27z"/>
		</g>
		<path fill="none" stroke="#000000" stroke-width="0.1" stroke-miterlimit="10" d="M7.96,32.49c0,0-0.41-1.93,1.56-2.34
			c2.14-0.44,2.31,2.45,2.31,2.45"/>
		<path fill="none" stroke="#000000" stroke-width="0.1" stroke-miterlimit="10" d="M5.01,35.33c0,0-1.89-1.16-0.58-2.96
			c1.17-1.6,3.25,0.24,3.25,0.24"/>
		<path fill="none" stroke="#000000" stroke-width="0.1" stroke-miterlimit="10" d="M4.9,35.66c0,0-2.51,0.22-2.27,2.13
			c0.29,2.32,2.77,1.47,2.77,1.47"/>
		<path fill="none" stroke="#000000" stroke-width="0.1" stroke-miterlimit="10" d="M5.62,39.54c0,0-1.46,2,0.29,3.17
			c1.8,1.21,2.77-1.03,2.77-1.03"/>
	</g>
	<g>
		<g>
			<path fill="none" stroke="#000000" stroke-width="0.1" stroke-miterlimit="10" d="M8.22,47.03c-1.84,0-3.76,1.43-3.76,3.12
				c0,1.69,1.63,3.05,3.48,3.05c0.06,0,0.13,0,0.19,0l0.1,1.67c-0.09,0-0.19,0.01-0.29,0.01c-2.91,0-5.26-2.15-5.26-4.81
				c0-2.66,2.36-4.81,5.26-4.81c0.1,0,0.38-0.01,0.48,0L8.22,47.03z"/>
		</g>
		<path fill="none" stroke="#000000" stroke-width="0.1" stroke-miterlimit="10" d="M4.61,46.33c0,0-0.99-1.71,0.76-2.71
			c1.9-1.08,2.95,1.62,2.95,1.62"/>
		<path fill="none" stroke="#000000" stroke-width="0.1" stroke-miterlimit="10" d="M2.68,49.95c0,0-2.16-0.52-1.46-2.64
			c0.62-1.88,3.16-0.78,3.16-0.78"/>
		<path fill="none" stroke="#000000" stroke-width="0.1" stroke-miterlimit="10" d="M2.68,50.3c0,0-2.32,0.99-1.5,2.72
			c1,2.12,3.09,0.54,3.09,0.54"/>
		<path fill="none" stroke="#000000" stroke-width="0.1" stroke-miterlimit="10" d="M4.56,53.76c0,0-0.77,2.35,1.25,2.93
			c2.09,0.6,2.31-1.84,2.31-1.84"/>
	</g>
	<g>
		<g>
			<path fill="none" stroke="#000000" stroke-width="0.1" stroke-miterlimit="10" d="M9.35,60.09c-1.75,0.57-3.14,2.52-2.61,4.13
				c0.52,1.6,2.5,2.4,4.25,1.83c0.06-0.02,0.12-0.04,0.18-0.06l0.61,1.56c-0.09,0.03-0.18,0.07-0.27,0.1
				c-2.76,0.9-5.67-0.42-6.49-2.95c-0.82-2.53,0.75-5.31,3.52-6.2c0.1-0.03,0.36-0.12,0.46-0.15L9.35,60.09z"/>
		</g>
		<path fill="none" stroke="#000000" stroke-width="0.1" stroke-miterlimit="10" d="M5.7,60.54c0,0-1.47-1.32-0.11-2.81
			c1.47-1.61,3.31,0.63,3.31,0.63"/>
		<path fill="none" stroke="#000000" stroke-width="0.1" stroke-miterlimit="10" d="M4.98,64.57c0,0-2.21,0.17-2.21-2.06
			c0.01-1.98,2.76-1.72,2.76-1.72"/>
		<path fill="none" stroke="#000000" stroke-width="0.1" stroke-miterlimit="10" d="M5.09,64.91c0,0-1.9,1.65-0.59,3.06
			c1.6,1.71,3.1-0.44,3.1-0.44"/>
		<path fill="none" stroke="#000000" stroke-width="0.1" stroke-miterlimit="10" d="M7.95,67.62c0,0-0.01,2.47,2.09,2.4
			c2.17-0.08,1.63-2.46,1.63-2.46"/>
	</g>
	<g>
		<g>
			<path fill="none" stroke="#000000" stroke-width="0.1" stroke-miterlimit="10" d="M14.45,72.15c-1.49,1.08-2.2,3.37-1.21,4.73
				c0.99,1.36,3.12,1.51,4.61,0.43c0.05-0.04,0.1-0.08,0.15-0.11l1.06,1.29c-0.07,0.06-0.15,0.12-0.23,0.17
				c-2.35,1.71-5.52,1.35-7.09-0.8c-1.56-2.15-0.92-5.28,1.43-6.99c0.08-0.06,0.31-0.23,0.39-0.28L14.45,72.15z"/>
		</g>
		<path fill="none" stroke="#000000" stroke-width="0.1" stroke-miterlimit="10" d="M11.12,73.72c0,0-1.8-0.81-0.97-2.64
			c0.9-1.99,3.34-0.43,3.34-0.43"/>
		<path fill="none" stroke="#000000" stroke-width="0.1" stroke-miterlimit="10" d="M11.68,77.77c0,0-2.05,0.85-2.73-1.27
			c-0.61-1.89,2.1-2.49,2.1-2.49"/>
		<path fill="none" stroke="#000000" stroke-width="0.1" stroke-miterlimit="10" d="M11.89,78.06c0,0-1.3,2.16,0.39,3.09
			c2.05,1.13,2.82-1.38,2.82-1.38"/>
		<path fill="none" stroke="#000000" stroke-width="0.1" stroke-miterlimit="10" d="M15.45,79.75c0,0,0.76,2.35,2.73,1.63
			c2.04-0.75,0.79-2.84,0.79-2.84"/>
	</g>
	<g>
		<g>
			<path fill="none" stroke="#000000" stroke-width="0.1" stroke-miterlimit="10" d="M23.04,82.05c-1.08,1.49-1.05,3.88,0.31,4.88
				s3.43,0.47,4.51-1.02c0.04-0.05,0.07-0.1,0.11-0.15l1.41,0.9c-0.05,0.08-0.11,0.16-0.16,0.24c-1.71,2.35-4.84,2.99-6.99,1.43
				c-2.15-1.56-2.51-4.73-0.8-7.09c0.06-0.08,0.22-0.31,0.28-0.39L23.04,82.05z"/>
		</g>
		<path fill="none" stroke="#000000" stroke-width="0.1" stroke-miterlimit="10" d="M20.35,84.57c0,0-1.96-0.21-1.74-2.21
			c0.24-2.17,3.05-1.44,3.05-1.44"/>
		<path fill="none" stroke="#000000" stroke-width="0.1" stroke-miterlimit="10" d="M22.14,88.26c0,0-1.69,1.44-2.99-0.37
			c-1.16-1.61,1.23-3.01,1.23-3.01"/>
		<path fill="none" stroke="#000000" stroke-width="0.1" stroke-miterlimit="10" d="M22.42,88.46c0,0-0.57,2.46,1.32,2.82
			C26.04,91.71,26,89.1,26,89.1"/>
		<path fill="none" stroke="#000000" stroke-width="0.1" stroke-miterlimit="10" d="M26.33,88.97c0,0,1.45,2,3.1,0.71
			c1.71-1.34-0.13-2.95-0.13-2.95"/>
	</g>
	<g>
		<g>
			<path fill="none" stroke="#000000" stroke-width="0.1" stroke-miterlimit="10" d="M34.27,88.82c-0.57,1.75,0.2,4.02,1.8,4.54
				c1.6,0.52,3.41-0.61,3.98-2.36c0.02-0.06,0.04-0.12,0.05-0.18l1.62,0.42c-0.02,0.09-0.05,0.18-0.08,0.27
				c-0.9,2.76-3.68,4.34-6.2,3.52c-2.53-0.82-3.85-3.73-2.95-6.49c0.03-0.1,0.11-0.37,0.15-0.46L34.27,88.82z"/>
		</g>
		<path fill="none" stroke="#000000" stroke-width="0.1" stroke-miterlimit="10" d="M32.49,92.04c0,0-1.93,0.41-2.34-1.56
			c-0.44-2.14,2.45-2.31,2.45-2.31"/>
		<path fill="none" stroke="#000000" stroke-width="0.1" stroke-miterlimit="10" d="M35.33,94.99c0,0-1.16,1.89-2.96,0.58
			c-1.6-1.17,0.24-3.25,0.24-3.25"/>
		<path fill="none" stroke="#000000" stroke-width="0.1" stroke-miterlimit="10" d="M35.66,95.1c0,0,0.22,2.51,2.13,2.27
			c2.32-0.29,1.47-2.77,1.47-2.77"/>
		<path fill="none" stroke="#000000" stroke-width="0.1" stroke-miterlimit="10" d="M39.54,94.38c0,0,2,1.46,3.17-0.29
			c1.21-1.8-1.03-2.77-1.03-2.77"/>
	</g>
	<g>
		<g>
			<path fill="none" stroke="#000000" stroke-width="0.1" stroke-miterlimit="10" d="M47.03,91.78c0,1.84,1.43,3.76,3.12,3.76
				c1.69,0,3.05-1.63,3.05-3.48c0-0.06,0-0.13,0-0.19l1.67-0.1c0,0.09,0.01,0.19,0.01,0.29c0,2.91-2.15,5.26-4.81,5.26
				c-2.66,0-4.81-2.36-4.81-5.26c0-0.1-0.01-0.38,0-0.48L47.03,91.78z"/>
		</g>
		<path fill="none" stroke="#000000" stroke-width="0.1" stroke-miterlimit="10" d="M46.33,95.39c0,0-1.71,0.99-2.71-0.76
			c-1.08-1.9,1.62-2.95,1.62-2.95"/>
		<path fill="none" stroke="#000000" stroke-width="0.1" stroke-miterlimit="10" d="M49.95,97.32c0,0-0.52,2.16-2.64,1.46
			c-1.88-0.62-0.78-3.16-0.78-3.16"/>
		<path fill="none" stroke="#000000" stroke-width="0.1" stroke-miterlimit="10" d="M50.3,97.32c0,0,0.99,2.32,2.72,1.5
			c2.12-1,0.54-3.09,0.54-3.09"/>
		<path fill="none" stroke="#000000" stroke-width="0.1" stroke-miterlimit="10" d="M53.76,95.44c0,0,2.35,0.77,2.93-1.25
			c0.6-2.09-1.84-2.31-1.84-2.31"/>
	</g>
	<g>
		<g>
			<path fill="none" stroke="#000000" stroke-width="0.1" stroke-miterlimit="10" d="M60.09,90.65c0.57,1.75,2.52,3.14,4.13,2.61
				c1.6-0.52,2.4-2.5,1.83-4.25c-0.02-0.06-0.04-0.12-0.06-0.18l1.56-0.61c0.03,0.09,0.07,0.18,0.1,0.27
				c0.9,2.76-0.42,5.67-2.95,6.49c-2.53,0.82-5.31-0.75-6.2-3.52c-0.03-0.1-0.12-0.36-0.15-0.46L60.09,90.65z"/>
		</g>
		<path fill="none" stroke="#000000" stroke-width="0.1" stroke-miterlimit="10" d="M60.54,94.3c0,0-1.32,1.47-2.81,0.11
			c-1.61-1.47,0.63-3.31,0.63-3.31"/>
		<path fill="none" stroke="#000000" stroke-width="0.1" stroke-miterlimit="10" d="M64.57,95.02c0,0,0.17,2.21-2.06,2.21
			c-1.98-0.01-1.72-2.76-1.72-2.76"/>
		<path fill="none" stroke="#000000" stroke-width="0.1" stroke-miterlimit="10" d="M64.91,94.91c0,0,1.65,1.9,3.06,0.59
			c1.71-1.6-0.44-3.1-0.44-3.1"/>
		<path fill="none" stroke="#000000" stroke-width="0.1" stroke-miterlimit="10" d="M67.62,92.05c0,0,2.47,0.01,2.4-2.09
			c-0.08-2.17-2.46-1.63-2.46-1.63"/>
	</g>
	<g>
		<g>
			<path fill="none" stroke="#000000" stroke-width="0.1" stroke-miterlimit="10" d="M72.15,85.55c1.08,1.49,3.37,2.2,4.73,1.21
				c1.36-0.99,1.51-3.12,0.43-4.61c-0.04-0.05-0.08-0.1-0.11-0.15l1.29-1.06c0.06,0.07,0.12,0.15,0.17,0.23
				c1.71,2.35,1.35,5.52-0.8,7.09c-2.15,1.56-5.28,0.92-6.99-1.43c-0.06-0.08-0.23-0.31-0.28-0.39L72.15,85.55z"/>
		</g>
		<path fill="none" stroke="#000000" stroke-width="0.1" stroke-miterlimit="10" d="M73.72,88.88c0,0-0.81,1.8-2.64,0.97
			c-1.99-0.9-0.43-3.34-0.43-3.34"/>
		<path fill="none" stroke="#000000" stroke-width="0.1" stroke-miterlimit="10" d="M77.77,88.32c0,0,0.85,2.05-1.27,2.73
			c-1.89,0.61-2.49-2.1-2.49-2.1"/>
		<path fill="none" stroke="#000000" stroke-width="0.1" stroke-miterlimit="10" d="M78.06,88.11c0,0,2.16,1.3,3.09-0.39
			c1.13-2.05-1.38-2.82-1.38-2.82"/>
		<path fill="none" stroke="#000000" stroke-width="0.1" stroke-miterlimit="10" d="M79.75,84.55c0,0,2.35-0.76,1.63-2.73
			c-0.75-2.04-2.84-0.79-2.84-0.79"/>
	</g>
	<g>
		<g>
			<path fill="none" stroke="#000000" stroke-width="0.1" stroke-miterlimit="10" d="M82.05,76.96c1.49,1.08,3.88,1.05,4.88-0.31
				c0.99-1.36,0.47-3.43-1.02-4.51c-0.05-0.04-0.1-0.07-0.15-0.11l0.9-1.41c0.08,0.05,0.16,0.11,0.24,0.16
				c2.35,1.71,2.99,4.84,1.43,6.99c-1.56,2.15-4.73,2.51-7.09,0.8c-0.08-0.06-0.31-0.22-0.39-0.28L82.05,76.96z"/>
		</g>
		<path fill="none" stroke="#000000" stroke-width="0.1" stroke-miterlimit="10" d="M84.57,79.65c0,0-0.21,1.96-2.21,1.74
			c-2.17-0.24-1.44-3.05-1.44-3.05"/>
		<path fill="none" stroke="#000000" stroke-width="0.1" stroke-miterlimit="10" d="M88.26,77.86c0,0,1.44,1.69-0.37,2.99
			c-1.61,1.16-3.01-1.23-3.01-1.23"/>
		<path fill="none" stroke="#000000" stroke-width="0.1" stroke-miterlimit="10" d="M88.46,77.58c0,0,2.46,0.57,2.82-1.32
			C91.71,73.96,89.1,74,89.1,74"/>
		<path fill="none" stroke="#000000" stroke-width="0.1" stroke-miterlimit="10" d="M88.97,73.67c0,0,2-1.45,0.71-3.1
			c-1.34-1.71-2.95,0.13-2.95,0.13"/>
	</g>
	<g>
		<g>
			<path fill="none" stroke="#000000" stroke-width="0.1" stroke-miterlimit="10" d="M88.82,65.73c1.75,0.57,4.02-0.2,4.54-1.8
				c0.52-1.6-0.61-3.41-2.36-3.98c-0.06-0.02-0.12-0.04-0.18-0.05l0.42-1.62c0.09,0.02,0.18,0.05,0.27,0.08
				c2.76,0.9,4.34,3.68,3.52,6.2c-0.82,2.53-3.73,3.85-6.49,2.95c-0.1-0.03-0.37-0.11-0.46-0.15L88.82,65.73z"/>
		</g>
		<path fill="none" stroke="#000000" stroke-width="0.1" stroke-miterlimit="10" d="M92.04,67.51c0,0,0.41,1.93-1.56,2.34
			c-2.14,0.44-2.31-2.45-2.31-2.45"/>
		<path fill="none" stroke="#000000" stroke-width="0.1" stroke-miterlimit="10" d="M94.99,64.67c0,0,1.89,1.16,0.58,2.96
			c-1.17,1.6-3.25-0.24-3.25-0.24"/>
		<path fill="none" stroke="#000000" stroke-width="0.1" stroke-miterlimit="10" d="M95.1,64.34c0,0,2.51-0.22,2.27-2.13
			c-0.29-2.32-2.77-1.47-2.77-1.47"/>
		<path fill="none" stroke="#000000" stroke-width="0.1" stroke-miterlimit="10" d="M94.38,60.46c0,0,1.46-2-0.29-3.17
			c-1.8-1.21-2.77,1.03-2.77,1.03"/>
	</g>
	<g>
		<g>
			<path fill="none" stroke="#000000" stroke-width="0.1" stroke-miterlimit="10" d="M91.78,52.97c1.84,0,3.76-1.43,3.76-3.12
				c0-1.69-1.63-3.05-3.48-3.05c-0.06,0-0.13,0-0.19,0l-0.1-1.67c0.09,0,0.19-0.01,0.29-0.01c2.91,0,5.26,2.15,5.26,4.81
				c0,2.66-2.36,4.81-5.26,4.81c-0.1,0-0.38,0.01-0.48,0L91.78,52.97z"/>
		</g>
		<path fill="none" stroke="#000000" stroke-width="0.1" stroke-miterlimit="10" d="M95.39,53.67c0,0,0.99,1.71-0.76,2.71
			c-1.9,1.08-2.95-1.62-2.95-1.62"/>
		<path fill="none" stroke="#000000" stroke-width="0.1" stroke-miterlimit="10" d="M97.32,50.05c0,0,2.16,0.52,1.46,2.64
			c-0.62,1.88-3.16,0.78-3.16,0.78"/>
		<path fill="none" stroke="#000000" stroke-width="0.1" stroke-miterlimit="10" d="M97.32,49.7c0,0,2.32-0.99,1.5-2.72
			c-1-2.12-3.09-0.54-3.09-0.54"/>
		<path fill="none" stroke="#000000" stroke-width="0.1" stroke-miterlimit="10" d="M95.44,46.24c0,0,0.77-2.35-1.25-2.93
			c-2.09-0.6-2.31,1.84-2.31,1.84"/>
	</g>
	<g>
		<g>
			<path fill="none" stroke="#000000" stroke-width="0.1" stroke-miterlimit="10" d="M90.65,39.91c1.75-0.57,3.14-2.52,2.61-4.13
				c-0.52-1.6-2.5-2.4-4.25-1.83c-0.06,0.02-0.12,0.04-0.18,0.06l-0.61-1.56c0.09-0.03,0.18-0.07,0.27-0.1
				c2.76-0.9,5.67,0.42,6.49,2.95c0.82,2.53-0.75,5.31-3.52,6.2c-0.1,0.03-0.36,0.12-0.46,0.15L90.65,39.91z"/>
		</g>
		<path fill="none" stroke="#000000" stroke-width="0.1" stroke-miterlimit="10" d="M94.3,39.46c0,0,1.47,1.32,0.11,2.81
			c-1.47,1.61-3.31-0.63-3.31-0.63"/>
		<path fill="none" stroke="#000000" stroke-width="0.1" stroke-miterlimit="10" d="M95.02,35.43c0,0,2.21-0.17,2.21,2.06
			c-0.01,1.98-2.76,1.72-2.76,1.72"/>
		<path fill="none" stroke="#000000" stroke-width="0.1" stroke-miterlimit="10" d="M94.91,35.09c0,0,1.9-1.65,0.59-3.06
			c-1.6-1.71-3.1,0.44-3.1,0.44"/>
		<path fill="none" stroke="#000000" stroke-width="0.1" stroke-miterlimit="10" d="M92.05,32.38c0,0,0.01-2.47-2.09-2.4
			c-2.17,0.08-1.63,2.46-1.63,2.46"/>
	</g>
	<g>
		<g>
			<path fill="none" stroke="#000000" stroke-width="0.1" stroke-miterlimit="10" d="M85.55,27.85c1.49-1.08,2.2-3.37,1.21-4.73
				s-3.12-1.51-4.61-0.43c-0.05,0.04-0.1,0.08-0.15,0.11l-1.06-1.29c0.07-0.06,0.15-0.12,0.23-0.17c2.35-1.71,5.52-1.35,7.09,0.8
				c1.56,2.15,0.92,5.28-1.43,6.99c-0.08,0.06-0.31,0.23-0.39,0.28L85.55,27.85z"/>
		</g>
		<path fill="none" stroke="#000000" stroke-width="0.1" stroke-miterlimit="10" d="M88.88,26.28c0,0,1.8,0.81,0.97,2.64
			c-0.9,1.99-3.34,0.43-3.34,0.43"/>
		<path fill="none" stroke="#000000" stroke-width="0.1" stroke-miterlimit="10" d="M88.32,22.23c0,0,2.05-0.85,2.73,1.27
			c0.61,1.89-2.1,2.49-2.1,2.49"/>
		<path fill="none" stroke="#000000" stroke-width="0.1" stroke-miterlimit="10" d="M88.11,21.94c0,0,1.3-2.16-0.39-3.09
			c-2.05-1.13-2.82,1.38-2.82,1.38"/>
		<path fill="none" stroke="#000000" stroke-width="0.1" stroke-miterlimit="10" d="M84.55,20.25c0,0-0.76-2.35-2.73-1.63
			c-2.04,0.75-0.79,2.84-0.79,2.84"/>
	</g>
	<g>
		<g>
			<path fill="none" stroke="#000000" stroke-width="0.1" stroke-miterlimit="10" d="M76.96,17.95c1.08-1.49,1.05-3.88-0.31-4.88
				c-1.36-0.99-3.43-0.47-4.51,1.02c-0.04,0.05-0.07,0.1-0.11,0.15l-1.41-0.9c0.05-0.08,0.11-0.16,0.16-0.24
				c1.71-2.35,4.84-2.99,6.99-1.43c2.15,1.56,2.51,4.73,0.8,7.09c-0.06,0.08-0.22,0.31-0.28,0.39L76.96,17.95z"/>
		</g>
		<path fill="none" stroke="#000000" stroke-width="0.1" stroke-miterlimit="10" d="M79.65,15.43c0,0,1.96,0.21,1.74,2.21
			c-0.24,2.17-3.05,1.44-3.05,1.44"/>
		<path fill="none" stroke="#000000" stroke-width="0.1" stroke-miterlimit="10" d="M77.86,11.74c0,0,1.69-1.44,2.99,0.37
			c1.16,1.61-1.23,3.01-1.23,3.01"/>
		<path fill="none" stroke="#000000" stroke-width="0.1" stroke-miterlimit="10" d="M77.58,11.54c0,0,0.57-2.46-1.32-2.82
			C73.96,8.29,74,10.9,74,10.9"/>
		<path fill="none" stroke="#000000" stroke-width="0.1" stroke-miterlimit="10" d="M73.67,11.03c0,0-1.45-2-3.1-0.71
			c-1.71,1.34,0.13,2.95,0.13,2.95"/>
	</g>
	<g>
		<g>
			<path fill="none" stroke="#000000" stroke-width="0.1" stroke-miterlimit="10" d="M65.73,11.18c0.57-1.75-0.2-4.02-1.8-4.54
				s-3.41,0.61-3.98,2.36c-0.02,0.06-0.04,0.12-0.05,0.18l-1.62-0.42c0.02-0.09,0.05-0.18,0.08-0.27c0.9-2.76,3.68-4.34,6.2-3.52
				c2.53,0.82,3.85,3.73,2.95,6.49c-0.03,0.1-0.11,0.37-0.15,0.46L65.73,11.18z"/>
		</g>
		<path fill="none" stroke="#000000" stroke-width="0.1" stroke-miterlimit="10" d="M67.51,7.96c0,0,1.93-0.41,2.34,1.56
			c0.44,2.14-2.45,2.31-2.45,2.31"/>
		<path fill="none" stroke="#000000" stroke-width="0.1" stroke-miterlimit="10" d="M64.67,5.01c0,0,1.16-1.89,2.96-0.58
			c1.6,1.17-0.24,3.25-0.24,3.25"/>
		<path fill="none" stroke="#000000" stroke-width="0.1" stroke-miterlimit="10" d="M64.34,4.9c0,0-0.22-2.51-2.13-2.27
			c-2.32,0.29-1.47,2.77-1.47,2.77"/>
		<path fill="none" stroke="#000000" stroke-width="0.1" stroke-miterlimit="10" d="M60.46,5.62c0,0-2-1.46-3.17,0.29
			c-1.21,1.8,1.03,2.77,1.03,2.77"/>
	</g>
</g>
<g>
	<g>
		<path fill="none" stroke="#000000" stroke-width="0.25" stroke-miterlimit="10" d="M54.02,5.15c0,0,1.06-0.51,1.73,0.5
			c0.7,1.05-1.02,1.81-1.02,1.81"/>
		<path fill="none" stroke="#000000" stroke-width="0.25" stroke-miterlimit="10" d="M50.79,2.78c0,0,0.41-1.33,1.7-0.83
			c1.03,0.4,0.48,1.92,0.48,1.92"/>
		<path fill="none" stroke="#000000" stroke-width="0.25" stroke-miterlimit="10" d="M49.14,2.75c0,0-0.76-1.3-1.65-0.97
			c-1.28,0.47-0.57,2.09-0.57,2.09"/>
		<path fill="none" stroke="#000000" stroke-width="0.25" stroke-miterlimit="10" d="M45.83,5.2c0,0-1.46-0.55-1.88,0.72
			C43.58,7,45.15,7.53,45.15,7.53"/>
	</g>
	<g>
		<path fill="none" stroke="#000000" stroke-width="0.25" stroke-miterlimit="10" d="M39.97,6.1c0,0,0.85-0.81,1.8-0.06
			c0.99,0.78-0.41,2.04-0.41,2.04"/>
		<path fill="none" stroke="#000000" stroke-width="0.25" stroke-miterlimit="10" d="M36.16,4.84c0,0-0.02-1.39,1.36-1.31
			c1.1,0.06,1.05,1.67,1.05,1.67"/>
		<path fill="none" stroke="#000000" stroke-width="0.25" stroke-miterlimit="10" d="M34.58,5.32c0,0-1.12-1-1.87-0.42
			c-1.07,0.84,0.11,2.17,0.11,2.17"/>
		<path fill="none" stroke="#000000" stroke-width="0.25" stroke-miterlimit="10" d="M32.19,8.69c0,0-1.56-0.07-1.57,1.26
			c-0.01,1.14,1.64,1.16,1.64,1.16"/>
	</g>
	<g>
		<path fill="none" stroke="#000000" stroke-width="0.25" stroke-miterlimit="10" d="M26.9,11.35c0,0,0.56-1.04,1.69-0.61
			c1.18,0.44,0.24,2.07,0.24,2.07"/>
		<path fill="none" stroke="#000000" stroke-width="0.25" stroke-miterlimit="10" d="M22.88,11.33c0,0-0.45-1.32,0.89-1.67
			c1.07-0.28,1.51,1.27,1.51,1.27"/>
		<path fill="none" stroke="#000000" stroke-width="0.25" stroke-miterlimit="10" d="M21.53,12.27c0,0-1.38-0.6-1.9,0.18
			c-0.76,1.13,0.77,2.03,0.77,2.03"/>
		<path fill="none" stroke="#000000" stroke-width="0.25" stroke-miterlimit="10" d="M20.29,16.21c0,0-1.5,0.42-1.1,1.69
			c0.34,1.08,1.92,0.59,1.92,0.59"/>
	</g>
	<g>
		<path fill="none" stroke="#000000" stroke-width="0.25" stroke-miterlimit="10" d="M16.08,20.38c0,0,0.21-1.16,1.42-1.1
			c1.26,0.05,0.87,1.89,0.87,1.89"/>
		<path fill="none" stroke="#000000" stroke-width="0.25" stroke-miterlimit="10" d="M12.26,21.6c0,0-0.83-1.11,0.33-1.86
			c0.93-0.6,1.83,0.74,1.83,0.74"/>
		<path fill="none" stroke="#000000" stroke-width="0.25" stroke-miterlimit="10" d="M11.27,22.92c0,0-1.5-0.15-1.76,0.76
			c-0.38,1.31,1.36,1.69,1.36,1.69"/>
		<path fill="none" stroke="#000000" stroke-width="0.25" stroke-miterlimit="10" d="M11.31,27.05c0,0-1.3,0.86-0.53,1.94
			c0.66,0.92,2.01-0.03,2.01-0.03"/>
	</g>
	<g>
		<path fill="none" stroke="#000000" stroke-width="0.25" stroke-miterlimit="10" d="M8.59,32.31c0,0-0.16-1.17,1.01-1.49
			c1.21-0.34,1.41,1.53,1.41,1.53"/>
		<path fill="none" stroke="#000000" stroke-width="0.25" stroke-miterlimit="10" d="M5.33,34.65c0,0-1.13-0.8-0.26-1.87
			c0.7-0.86,1.97,0.14,1.97,0.14"/>
		<path fill="none" stroke="#000000" stroke-width="0.25" stroke-miterlimit="10" d="M4.79,36.21c0,0-1.47,0.32-1.43,1.26
			c0.05,1.36,1.82,1.19,1.82,1.19"/>
		<path fill="none" stroke="#000000" stroke-width="0.25" stroke-miterlimit="10" d="M6.11,40.13c0,0-0.97,1.22,0.1,2.01
			c0.91,0.68,1.9-0.65,1.9-0.65"/>
	</g>
	<g>
		<path fill="none" stroke="#000000" stroke-width="0.25" stroke-miterlimit="10" d="M5.15,45.98c0,0-0.51-1.06,0.5-1.73
			c1.05-0.7,1.81,1.02,1.81,1.02"/>
		<path fill="none" stroke="#000000" stroke-width="0.25" stroke-miterlimit="10" d="M2.78,49.21c0,0-1.33-0.41-0.83-1.7
			c0.4-1.03,1.92-0.48,1.92-0.48"/>
		<path fill="none" stroke="#000000" stroke-width="0.25" stroke-miterlimit="10" d="M2.75,50.86c0,0-1.3,0.76-0.97,1.65
			c0.47,1.28,2.09,0.57,2.09,0.57"/>
		<path fill="none" stroke="#000000" stroke-width="0.25" stroke-miterlimit="10" d="M5.2,54.17c0,0-0.55,1.46,0.72,1.88
			c1.08,0.36,1.61-1.21,1.61-1.21"/>
	</g>
	<g>
		<path fill="none" stroke="#000000" stroke-width="0.25" stroke-miterlimit="10" d="M6.1,60.03c0,0-0.81-0.85-0.06-1.8
			c0.78-0.99,2.04,0.41,2.04,0.41"/>
		<path fill="none" stroke="#000000" stroke-width="0.25" stroke-miterlimit="10" d="M4.84,63.84c0,0-1.39,0.02-1.31-1.36
			c0.06-1.1,1.67-1.05,1.67-1.05"/>
		<path fill="none" stroke="#000000" stroke-width="0.25" stroke-miterlimit="10" d="M5.32,65.42c0,0-1,1.12-0.42,1.87
			c0.84,1.07,2.17-0.11,2.17-0.11"/>
		<path fill="none" stroke="#000000" stroke-width="0.25" stroke-miterlimit="10" d="M8.69,67.81c0,0-0.07,1.56,1.26,1.57
			c1.14,0.01,1.16-1.64,1.16-1.64"/>
	</g>
	<g>
		<path fill="none" stroke="#000000" stroke-width="0.25" stroke-miterlimit="10" d="M11.35,73.1c0,0-1.04-0.56-0.61-1.69
			c0.44-1.18,2.07-0.24,2.07-0.24"/>
		<path fill="none" stroke="#000000" stroke-width="0.25" stroke-miterlimit="10" d="M11.33,77.12c0,0-1.32,0.45-1.67-0.89
			c-0.28-1.07,1.27-1.51,1.27-1.51"/>
		<path fill="none" stroke="#000000" stroke-width="0.25" stroke-miterlimit="10" d="M12.27,78.47c0,0-0.6,1.38,0.18,1.9
			c1.13,0.76,2.03-0.77,2.03-0.77"/>
		<path fill="none" stroke="#000000" stroke-width="0.25" stroke-miterlimit="10" d="M16.21,79.71c0,0,0.42,1.5,1.69,1.1
			c1.08-0.34,0.59-1.92,0.59-1.92"/>
	</g>
	<g>
		<path fill="none" stroke="#000000" stroke-width="0.25" stroke-miterlimit="10" d="M20.38,83.92c0,0-1.16-0.21-1.1-1.42
			c0.05-1.26,1.89-0.87,1.89-0.87"/>
		<path fill="none" stroke="#000000" stroke-width="0.25" stroke-miterlimit="10" d="M21.6,87.74c0,0-1.11,0.83-1.86-0.33
			c-0.6-0.93,0.74-1.83,0.74-1.83"/>
		<path fill="none" stroke="#000000" stroke-width="0.25" stroke-miterlimit="10" d="M22.92,88.73c0,0-0.15,1.5,0.76,1.76
			c1.31,0.38,1.69-1.36,1.69-1.36"/>
		<path fill="none" stroke="#000000" stroke-width="0.25" stroke-miterlimit="10" d="M27.05,88.69c0,0,0.86,1.3,1.94,0.53
			c0.92-0.66-0.03-2.01-0.03-2.01"/>
	</g>
	<g>
		<path fill="none" stroke="#000000" stroke-width="0.25" stroke-miterlimit="10" d="M32.31,91.41c0,0-1.17,0.16-1.49-1.01
			c-0.34-1.21,1.53-1.41,1.53-1.41"/>
		<path fill="none" stroke="#000000" stroke-width="0.25" stroke-miterlimit="10" d="M34.65,94.67c0,0-0.8,1.13-1.87,0.26
			c-0.86-0.7,0.14-1.97,0.14-1.97"/>
		<path fill="none" stroke="#000000" stroke-width="0.25" stroke-miterlimit="10" d="M36.21,95.21c0,0,0.32,1.47,1.26,1.43
			c1.36-0.05,1.19-1.82,1.19-1.82"/>
		<path fill="none" stroke="#000000" stroke-width="0.25" stroke-miterlimit="10" d="M40.13,93.89c0,0,1.22,0.97,2.01-0.1
			c0.68-0.91-0.65-1.9-0.65-1.9"/>
	</g>
	<g>
		<path fill="none" stroke="#000000" stroke-width="0.25" stroke-miterlimit="10" d="M45.98,94.85c0,0-1.06,0.51-1.73-0.5
			c-0.7-1.05,1.02-1.81,1.02-1.81"/>
		<path fill="none" stroke="#000000" stroke-width="0.25" stroke-miterlimit="10" d="M49.21,97.22c0,0-0.41,1.33-1.7,0.83
			c-1.03-0.4-0.48-1.92-0.48-1.92"/>
		<path fill="none" stroke="#000000" stroke-width="0.25" stroke-miterlimit="10" d="M50.86,97.25c0,0,0.76,1.3,1.65,0.97
			c1.28-0.47,0.57-2.09,0.57-2.09"/>
		<path fill="none" stroke="#000000" stroke-width="0.25" stroke-miterlimit="10" d="M54.17,94.8c0,0,1.46,0.55,1.88-0.72
			c0.36-1.08-1.21-1.61-1.21-1.61"/>
	</g>
	<g>
		<path fill="none" stroke="#000000" stroke-width="0.25" stroke-miterlimit="10" d="M60.03,93.9c0,0-0.85,0.81-1.8,0.06
			c-0.99-0.78,0.41-2.04,0.41-2.04"/>
		<path fill="none" stroke="#000000" stroke-width="0.25" stroke-miterlimit="10" d="M63.84,95.16c0,0,0.02,1.39-1.36,1.31
			c-1.1-0.06-1.05-1.67-1.05-1.67"/>
		<path fill="none" stroke="#000000" stroke-width="0.25" stroke-miterlimit="10" d="M65.42,94.68c0,0,1.12,1,1.87,0.42
			c1.07-0.84-0.11-2.17-0.11-2.17"/>
		<path fill="none" stroke="#000000" stroke-width="0.25" stroke-miterlimit="10" d="M67.81,91.31c0,0,1.56,0.07,1.57-1.26
			c0.01-1.14-1.64-1.16-1.64-1.16"/>
	</g>
	<g>
		<path fill="none" stroke="#000000" stroke-width="0.25" stroke-miterlimit="10" d="M73.1,88.65c0,0-0.56,1.04-1.69,0.61
			c-1.18-0.44-0.24-2.07-0.24-2.07"/>
		<path fill="none" stroke="#000000" stroke-width="0.25" stroke-miterlimit="10" d="M77.12,88.67c0,0,0.45,1.32-0.89,1.67
			c-1.07,0.28-1.51-1.27-1.51-1.27"/>
		<path fill="none" stroke="#000000" stroke-width="0.25" stroke-miterlimit="10" d="M78.47,87.73c0,0,1.38,0.6,1.9-0.18
			c0.76-1.13-0.77-2.03-0.77-2.03"/>
		<path fill="none" stroke="#000000" stroke-width="0.25" stroke-miterlimit="10" d="M79.71,83.79c0,0,1.5-0.42,1.1-1.69
			c-0.34-1.08-1.92-0.59-1.92-0.59"/>
	</g>
	<g>
		<path fill="none" stroke="#000000" stroke-width="0.25" stroke-miterlimit="10" d="M83.92,79.62c0,0-0.21,1.16-1.42,1.1
			c-1.26-0.05-0.87-1.89-0.87-1.89"/>
		<path fill="none" stroke="#000000" stroke-width="0.25" stroke-miterlimit="10" d="M87.74,78.4c0,0,0.83,1.11-0.33,1.86
			c-0.93,0.6-1.83-0.74-1.83-0.74"/>
		<path fill="none" stroke="#000000" stroke-width="0.25" stroke-miterlimit="10" d="M88.73,77.08c0,0,1.5,0.15,1.76-0.76
			c0.38-1.31-1.36-1.69-1.36-1.69"/>
		<path fill="none" stroke="#000000" stroke-width="0.25" stroke-miterlimit="10" d="M88.69,72.95c0,0,1.3-0.86,0.53-1.94
			c-0.66-0.92-2.01,0.03-2.01,0.03"/>
	</g>
	<g>
		<path fill="none" stroke="#000000" stroke-width="0.25" stroke-miterlimit="10" d="M91.41,67.69c0,0,0.16,1.17-1.01,1.49
			c-1.21,0.34-1.41-1.53-1.41-1.53"/>
		<path fill="none" stroke="#000000" stroke-width="0.25" stroke-miterlimit="10" d="M94.67,65.35c0,0,1.13,0.8,0.26,1.87
			c-0.7,0.86-1.97-0.14-1.97-0.14"/>
		<path fill="none" stroke="#000000" stroke-width="0.25" stroke-miterlimit="10" d="M95.21,63.79c0,0,1.47-0.32,1.43-1.26
			c-0.05-1.36-1.82-1.19-1.82-1.19"/>
		<path fill="none" stroke="#000000" stroke-width="0.25" stroke-miterlimit="10" d="M93.89,59.87c0,0,0.97-1.22-0.1-2.01
			c-0.91-0.68-1.9,0.65-1.9,0.65"/>
	</g>
	<g>
		<path fill="none" stroke="#000000" stroke-width="0.25" stroke-miterlimit="10" d="M94.85,54.02c0,0,0.51,1.06-0.5,1.73
			c-1.05,0.7-1.81-1.02-1.81-1.02"/>
		<path fill="none" stroke="#000000" stroke-width="0.25" stroke-miterlimit="10" d="M97.22,50.79c0,0,1.33,0.41,0.83,1.7
			c-0.4,1.03-1.92,0.48-1.92,0.48"/>
		<path fill="none" stroke="#000000" stroke-width="0.25" stroke-miterlimit="10" d="M97.25,49.14c0,0,1.3-0.76,0.97-1.65
			c-0.47-1.28-2.09-0.57-2.09-0.57"/>
		<path fill="none" stroke="#000000" stroke-width="0.25" stroke-miterlimit="10" d="M94.8,45.83c0,0,0.55-1.46-0.72-1.88
			c-1.08-0.36-1.61,1.21-1.61,1.21"/>
	</g>
	<g>
		<path fill="none" stroke="#000000" stroke-width="0.25" stroke-miterlimit="10" d="M93.9,39.97c0,0,0.81,0.85,0.06,1.8
			c-0.78,0.99-2.04-0.41-2.04-0.41"/>
		<path fill="none" stroke="#000000" stroke-width="0.25" stroke-miterlimit="10" d="M95.16,36.16c0,0,1.39-0.02,1.31,1.36
			c-0.06,1.1-1.67,1.05-1.67,1.05"/>
		<path fill="none" stroke="#000000" stroke-width="0.25" stroke-miterlimit="10" d="M94.68,34.58c0,0,1-1.12,0.42-1.87
			c-0.84-1.07-2.17,0.11-2.17,0.11"/>
		<path fill="none" stroke="#000000" stroke-width="0.25" stroke-miterlimit="10" d="M91.31,32.19c0,0,0.07-1.56-1.26-1.57
			c-1.14-0.01-1.16,1.64-1.16,1.64"/>
	</g>
	<g>
		<path fill="none" stroke="#000000" stroke-width="0.25" stroke-miterlimit="10" d="M88.65,26.9c0,0,1.04,0.56,0.61,1.69
			c-0.44,1.18-2.07,0.24-2.07,0.24"/>
		<path fill="none" stroke="#000000" stroke-width="0.25" stroke-miterlimit="10" d="M88.67,22.88c0,0,1.32-0.45,1.67,0.89
			c0.28,1.07-1.27,1.51-1.27,1.51"/>
		<path fill="none" stroke="#000000" stroke-width="0.25" stroke-miterlimit="10" d="M87.73,21.53c0,0,0.6-1.38-0.18-1.9
			c-1.13-0.76-2.03,0.77-2.03,0.77"/>
		<path fill="none" stroke="#000000" stroke-width="0.25" stroke-miterlimit="10" d="M83.79,20.29c0,0-0.42-1.5-1.69-1.1
			c-1.08,0.34-0.59,1.92-0.59,1.92"/>
	</g>
	<g>
		<path fill="none" stroke="#000000" stroke-width="0.25" stroke-miterlimit="10" d="M79.62,16.08c0,0,1.16,0.21,1.1,1.42
			c-0.05,1.26-1.89,0.87-1.89,0.87"/>
		<path fill="none" stroke="#000000" stroke-width="0.25" stroke-miterlimit="10" d="M78.4,12.26c0,0,1.11-0.83,1.86,0.33
			c0.6,0.93-0.74,1.83-0.74,1.83"/>
		<path fill="none" stroke="#000000" stroke-width="0.25" stroke-miterlimit="10" d="M77.08,11.27c0,0,0.15-1.5-0.76-1.76
			c-1.31-0.38-1.69,1.36-1.69,1.36"/>
		<path fill="none" stroke="#000000" stroke-width="0.25" stroke-miterlimit="10" d="M72.95,11.31c0,0-0.86-1.3-1.94-0.53
			c-0.92,0.66,0.03,2.01,0.03,2.01"/>
	</g>
	<g>
		<path fill="none" stroke="#000000" stroke-width="0.25" stroke-miterlimit="10" d="M67.69,8.59c0,0,1.17-0.16,1.49,1.01
			c0.34,1.21-1.53,1.41-1.53,1.41"/>
		<path fill="none" stroke="#000000" stroke-width="0.25" stroke-miterlimit="10" d="M65.35,5.33c0,0,0.8-1.13,1.87-0.26
			c0.86,0.7-0.14,1.97-0.14,1.97"/>
		<path fill="none" stroke="#000000" stroke-width="0.25" stroke-miterlimit="10" d="M63.79,4.79c0,0-0.32-1.47-1.26-1.43
			c-1.36,0.05-1.19,1.82-1.19,1.82"/>
		<path fill="none" stroke="#000000" stroke-width="0.25" stroke-miterlimit="10" d="M59.87,6.11c0,0-1.22-0.97-2.01,0.1
			c-0.68,0.91,0.65,1.9,0.65,1.9"/>
	</g>
</g>
</svg>
