<?xml version="1.0" encoding="utf-8"?>
<!-- Generator: Adobe Illustrator 23.0.6, SVG Export Plug-In . SVG Version: 6.00 Build 0)  -->
<svg version="1.1" id="Layer_1" xmlns="http://www.w3.org/2000/svg" xmlns:xlink="http://www.w3.org/1999/xlink" x="0px" y="0px"
	 viewBox="0 0 100 100" enable-background="new 0 0 100 100" xml:space="preserve">
<g>
	<path fill="none" stroke="#000000" stroke-width="0.2" stroke-miterlimit="10" d="M42.02,2.87c0.1-0.2,0.1-0.49,0-0.79
		c-0.2-0.49-0.59-0.79-0.99-0.69c-0.39,0.1-0.49,0.59-0.39,1.08c0.1,0.3,0.1,0.39,0.39,0.59L46.16,8c0.2,0.3,0.2,0.39,0.2,0.69
		c0,0.49-0.3,0.99-0.69,0.99s-0.69-0.39-0.79-0.89c0-0.3,0.1-0.59,0.2-0.69l5.42-5.32c0.1-0.2,0.2-0.39,0.2-0.69
		c0-0.49-0.39-0.89-0.69-0.89c-0.39,0-0.69,0.49-0.69,0.99c0,0.3,0,0.39,0.2,0.69l5.22,5.32c0.2,0.3,0.2,0.39,0.2,0.69
		c0,0.49-0.3,0.99-0.69,0.99s-0.69-0.39-0.79-0.89c0-0.3,0.1-0.59,0.2-0.69l5.42-5.22c0.59-0.1,0.69-0.39,0.69-0.69
		c0-0.49-0.3-0.89-0.69-0.89s-0.69,0.39-0.69,0.89c0,0.3,0,0.39,0.2,0.69l2.96,6.41c0.1,0.39,0,0.49-0.1,0.69
		c-0.2,0.49-0.59,0.79-0.99,0.59c-0.39-0.1-0.49-0.59-0.3-1.08c0.1-0.3,0.3-0.49,0.49-0.59l7-2.86c0.2-0.1,0.39-0.3,0.49-0.59
		c0.2-0.49,0-0.99-0.3-1.08c-0.39-0.1-0.79,0.2-0.99,0.69c-0.1,0.3-0.1,0.39-0.1,0.69l2.86,7c0.1,0.39,0,0.49-0.1,0.69
		c-0.2,0.49-0.59,0.79-0.99,0.69c-0.39-0.1-0.49-0.59-0.3-1.08c0.1-0.3,0.3-0.49,0.49-0.59l7-2.96c0.2-0.1,0.39-0.3,0.49-0.59
		c0.2-0.49,0-0.99-0.39-1.08c-0.39-0.1-0.79,0.2-0.99,0.69c-0.1,0.3-0.1,0.39,0,0.69l0.49,7.1c-0.1,0.39-0.2,0.49-0.39,0.69
		c-0.39,0.39-0.89,0.39-1.18,0.2c-0.3-0.3-0.2-0.79,0.2-1.18c0.2-0.2,0.59-0.39,0.79-0.39l7.2-0.2c0.2,0,0.49-0.2,0.59-0.39
		c0.3-0.39,0.3-0.89,0-1.18c-0.3-0.3-0.79-0.1-1.08,0.3c-0.2,0.2-0.2,0.3-0.3,0.69l0.39,7.49c-0.1,0.39-0.2,0.49-0.3,0.69
		c-0.39,0.39-0.89,0.49-1.18,0.2c-0.3-0.3-0.2-0.79,0.1-1.18c0.2-0.2,0.39-0.3,0.69-0.39l7.49-0.2c0.2,0,0.49-0.2,0.69-0.39
		c0.3-0.39,0.39-0.89,0.1-1.18c-0.3-0.3-0.79-0.1-1.18,0.2c-0.2,0.2-0.3,0.3-0.3,0.69l-2.07,6.8c-0.2,0.3-0.3,0.39-0.49,0.49
		c-0.49,0.3-0.99,0.2-1.18-0.1c-0.2-0.3,0-0.79,0.49-1.08c0.3-0.1,0.49-0.2,0.79-0.1l7,2.66c0.2,0,0.49,0,0.69-0.2
		c0.39-0.3,0.59-0.79,0.39-1.08s-0.69-0.39-1.18-0.1c-0.2,0.1-0.3,0.2-0.49,0.59l-2.27,6.9c-0.2,0.3-0.3,0.39-0.49,0.49
		c-0.49,0.3-0.99,0.2-1.18-0.1s0-0.79,0.49-1.08c0.3-0.1,0.49-0.2,0.79-0.1l7,2.66c0.2,0.1,0.49,0,0.79-0.1
		c0.49-0.2,0.69-0.69,0.49-1.08c-0.2-0.3-0.69-0.39-1.18-0.2c-0.3,0.1-0.3,0.2-0.49,0.49l-4.24,5.32c-0.3,0.2-0.39,0.3-0.69,0.3
		c-0.49,0.1-0.99-0.2-0.99-0.49c-0.1-0.39,0.3-0.79,0.79-0.79c0.3,0,0.59,0,0.79,0.1l5.72,4.93c0.2,0.1,0.39,0.2,0.69,0.2
		c0.49,0,0.89-0.39,0.89-0.79c0-0.39-0.49-0.69-0.99-0.59c-0.3,0-0.39,0-0.69,0.2l-4.93,5.72c-0.3,0.2-0.39,0.3-0.69,0.3
		c-0.49,0.1-0.99-0.1-1.08-0.49c-0.1-0.39,0.3-0.79,0.79-0.89c0.3,0,0.59,0,0.79,0.1l5.72,4.93c0.2,0.1,0.39,0.2,0.69,0.2
		c0.49,0,0.89-0.39,0.89-0.69c0-0.39-0.49-0.69-0.99-0.69c-0.3,0-0.39,0-0.69,0.2l-6.31,3.65c-0.39,0.1-0.49,0.1-0.69,0
		c-0.49-0.2-0.79-0.59-0.69-0.99c0.1-0.39,0.59-0.49,1.08-0.39c0.3,0.1,0.49,0.3,0.59,0.49l3.75,6.6c0.1,0.2,0.39,0.3,0.69,0.39
		c0.49,0.1,0.99-0.1,1.08-0.49c0.1-0.39-0.3-0.79-0.79-0.89c-0.3-0.1-0.39-0.1-0.69,0l-6.8,3.55c-0.39,0.1-0.49,0.1-0.69,0
		c-0.49-0.2-0.79-0.59-0.69-0.99c0.1-0.39,0.59-0.49,1.08-0.39c0.3,0.1,0.49,0.3,0.59,0.49l3.75,6.6c0.1,0.2,0.39,0.3,0.69,0.39
		c0.49,0.1,0.99-0.1,1.08-0.49c0.1-0.39-0.3-0.79-0.79-0.89c-0.3-0.1-0.39-0.1-0.69,0l-7.1,1.08c-0.39-0.1-0.49-0.1-0.69-0.3
		c-0.39-0.3-0.59-0.79-0.3-1.08c0.2-0.3,0.79-0.3,1.18,0c0.2,0.2,0.39,0.39,0.39,0.59l0.89,7.39c0.1,0.2,0.2,0.39,0.49,0.59
		c0.39,0.3,0.99,0.3,1.18-0.1c0.2-0.3,0-0.79-0.39-1.08c-0.2-0.2-0.3-0.2-0.69-0.2l-7.39,0.89c-0.39-0.1-0.49-0.1-0.69-0.3
		c-0.39-0.3-0.49-0.89-0.3-1.08s0.79-0.3,1.18,0.1c0.2,0.2,0.39,0.39,0.39,0.69l0.99,7.69c0.1,0.2,0.2,0.39,0.49,0.59
		c0.39,0.3,0.99,0.3,1.18-0.1c0.2-0.39,0-0.79-0.39-1.08c-0.2-0.2-0.3-0.2-0.69-0.2l-7-1.58c-0.3-0.2-0.39-0.3-0.49-0.49
		c-0.3-0.49-0.2-0.99,0.2-1.18c0.3-0.2,0.79,0,1.08,0.49c0.1,0.3,0.2,0.49,0.1,0.79l-1.87,7.29c0,0.2,0.1,0.49,0.2,0.69
		c0.3,0.39,0.79,0.59,1.08,0.3c0.3-0.2,0.3-0.79,0-1.18c-0.2-0.2-0.3-0.3-0.59-0.49l-7.29-1.87c-0.3-0.2-0.39-0.3-0.49-0.49
		c-0.3-0.49-0.2-0.99,0.2-1.18c0.39-0.2,0.79,0,1.08,0.49c0.1,0.3,0.2,0.49,0.1,0.79l-1.87,7.29c0,0.2,0,0.49,0.1,0.79
		c0.3,0.49,0.69,0.69,1.08,0.49c0.3-0.2,0.39-0.69,0.2-1.18c-0.1-0.2-0.2-0.3-0.49-0.49l-5.91-3.94c-0.2-0.3-0.3-0.39-0.3-0.69
		c-0.1-0.49,0.1-0.99,0.49-1.08c0.39-0.1,0.79,0.3,0.89,0.79c0.1,0.3,0,0.59-0.1,0.79l-4.34,6.21c-0.1,0.2-0.1,0.49-0.1,0.79
		c0.1,0.49,0.49,0.79,0.89,0.69c0.39-0.1,0.59-0.59,0.39-1.08c-0.1-0.3-0.1-0.39-0.39-0.59l-6.11-4.34c-0.2-0.3-0.3-0.39-0.3-0.69
		c-0.1-0.49,0.1-0.99,0.49-1.08c0.39-0.1,0.79,0.3,0.89,0.79c0.1,0.3,0,0.59-0.1,0.79l-4.34,6.11c-0.1,0.2-0.2,0.49-0.1,0.79
		c0.1,0.49,0.49,0.89,0.79,0.79c0.39-0.1,0.59-0.49,0.59-0.99c0-0.3-0.1-0.39-0.3-0.69l-4.04-5.82c-0.2-0.3-0.2-0.49-0.1-0.69
		c0-0.49,0.39-0.89,0.79-0.89c0.39,0,0.69,0.49,0.59,0.99c0,0.3-0.1,0.49-0.3,0.69l-6.9,4.44c-0.2,0.2-0.3,0.39-0.3,0.69
		c-0.1,0.49,0.2,0.99,0.59,0.99s0.79-0.3,0.79-0.79c0-0.3,0-0.39-0.1-0.69l-4.14-6.41c-0.1-0.39-0.1-0.49,0-0.69
		c0.1-0.49,0.49-0.79,0.89-0.69c0.39,0.1,0.59,0.59,0.39,1.08c-0.1,0.3-0.2,0.49-0.39,0.59l-6.21,4.24c-0.2,0.1-0.3,0.39-0.39,0.59
		c-0.1,0.49,0.1,0.99,0.39,1.08s0.79-0.2,0.89-0.69c0.1-0.3,0.1-0.39,0-0.69l-1.77-6.9c0-0.39,0-0.49,0.2-0.69
		c0.3-0.49,0.69-0.69,1.08-0.49c0.3,0.2,0.39,0.69,0.2,1.18c-0.1,0.3-0.3,0.39-0.59,0.49l-7.49,1.38c-0.2,0.1-0.39,0.3-0.49,0.59
		c-0.2,0.49-0.1,0.99,0.3,1.08c0.39,0.1,0.79-0.1,0.99-0.59c0.1-0.3,0.1-0.39,0.1-0.69l-1.68-7.2c0-0.39,0-0.49,0.2-0.69
		c0.2-0.49,0.69-0.69,1.08-0.49s0.39,0.69,0.2,1.18c-0.1,0.3-0.3,0.39-0.59,0.49l-7.29,1.58c-0.2,0-0.49,0.2-0.59,0.39
		c-0.3,0.39-0.3,0.89,0,1.18c0.3,0.2,0.79,0.1,1.08-0.3c0.2-0.2,0.2-0.3,0.3-0.69l0.89-7.2c0.1-0.3,0.2-0.39,0.39-0.59
		c0.39-0.3,0.89-0.3,1.18,0c0.3,0.3,0.1,0.79-0.3,1.08c-0.2,0.2-0.49,0.3-0.69,0.3l-7.49-1.28c-0.2,0-0.49,0.1-0.69,0.3
		c-0.39,0.3-0.49,0.79-0.3,1.08c0.2,0.3,0.79,0.3,1.18,0c0.2-0.2,0.3-0.3,0.39-0.59l1.18-7.29c0.1-0.3,0.2-0.39,0.39-0.59
		c0.39-0.3,0.89-0.3,1.18,0c0.2,0.3,0.1,0.79-0.3,1.08c-0.3,0-0.49,0.1-0.79,0.1L7.42,70.5c-0.2,0-0.49,0-0.69,0.2
		c-0.39,0.3-0.59,0.79-0.39,1.08c0.2,0.3,0.69,0.39,1.18,0.1c0.2-0.1,0.3-0.2,0.49-0.59l3.35-6.31c0.3-0.3,0.39-0.3,0.59-0.39
		c0.49-0.1,0.99,0,1.08,0.39c0.1,0.39-0.2,0.79-0.69,0.89c-0.3,0.1-0.59,0.1-0.79,0l-6.6-3.84c-0.2-0.1-0.49-0.1-0.79,0
		c-0.49,0.2-0.79,0.59-0.69,0.99c0.1,0.39,0.59,0.49,1.08,0.39c0.3-0.1,0.39-0.1,0.59-0.39L8.9,56.6c0.2-0.3,0.3-0.3,0.59-0.39
		c0.49-0.2,0.99,0,1.08,0.3c0.1,0.39-0.2,0.79-0.69,0.99c-0.3,0.1-0.59,0.1-0.79,0l-6.51-3.75c-0.2-0.1-0.49-0.2-0.79-0.1
		c-0.49,0.1-0.89,0.49-0.79,0.89c0.1,0.39,0.49,0.59,1.08,0.49c0.3-0.1,0.39-0.1,0.69-0.3l5.72-4.83C8.8,49.8,9,49.7,9.2,49.8
		c0.49,0.1,0.89,0.39,0.89,0.79s-0.49,0.69-0.99,0.59c-0.3,0-0.49-0.2-0.69-0.3l-4.73-5.82c-0.2-0.2-0.39-0.3-0.69-0.3
		C2.49,44.67,2,44.97,2,45.36c0,0.39,0.3,0.69,0.89,0.79c0.3,0,0.39,0,0.69-0.1l5.82-4.73c0.3-0.2,0.39-0.2,0.69-0.2
		c0.49,0,0.89,0.3,0.99,0.69c0,0.39-0.39,0.69-0.89,0.69c-0.3,0-0.59-0.1-0.69-0.2l-4.63-5.91c-0.1-0.2-0.39-0.3-0.69-0.39
		c-0.49-0.1-0.99,0.1-1.08,0.49s0.3,0.79,0.79,0.89c0.2-0.1,0.39-0.1,0.69-0.2l6.8-2.46c0.39,0,0.49,0,0.69,0.1
		c0.49,0.2,0.69,0.69,0.59,0.99c-0.1,0.3-0.69,0.49-1.18,0.2c-0.3-0.1-0.49-0.3-0.59-0.49l-2.37-7.1c-0.1-0.2-0.3-0.39-0.49-0.59
		c-0.49-0.2-0.99-0.2-1.18,0.2c-0.2,0.3,0.1,0.79,0.49,1.08c0.39,0.1,0.49,0.2,0.79,0.2l7.1-2.37c0.39-0.1,0.49,0,0.69,0.1
		c0.49,0.2,0.79,0.59,0.59,0.99c-0.1,0.39-0.59,0.49-1.08,0.3c-0.3-0.1-0.49-0.3-0.59-0.49l-2.27-7.1c-0.1-0.2-0.2-0.49-0.49-0.59
		c-0.39-0.3-0.99-0.3-1.18,0c-0.2,0.3-0.1,0.79,0.39,1.08c0.2,0.2,0.3,0.2,0.69,0.2l7.2,0.1c0.39,0.1,0.49,0.2,0.59,0.39
		c0.39,0.39,0.39,0.89,0.2,1.18c-0.1,0.3-0.59,0.3-0.99-0.1c-0.2-0.2-0.3-0.49-0.3-0.69l0.49-7.49c0-0.2-0.1-0.49-0.3-0.69
		c-0.39-0.39-0.89-0.49-1.18-0.2c-0.3,0.3-0.2,0.79,0.1,1.18c0.2,0.2,0.3,0.3,0.59,0.39l7.49,0.49c0.39,0.1,0.49,0.2,0.59,0.39
		c0.39,0.39,0.39,0.89,0.2,1.18c-0.3,0.3-0.79,0.2-1.18-0.2c-0.2-0.2-0.3-0.49-0.3-0.69l0.49-7.39c0-0.2,0-0.49-0.2-0.69
		C25.17,8.2,24.67,8,24.38,8.2c-0.3,0.2-0.3,0.79,0,1.18c0.2,0.2,0.2,0.3,0.59,0.49l6.6,2.66c0.3,0.2,0.39,0.3,0.49,0.59
		c0.2,0.49,0.1,0.99-0.2,1.18s-0.79-0.1-0.99-0.49c-0.1-0.3-0.2-0.49-0.1-0.79l2.76-5.91l0.39-0.89c0.1-0.2,0-0.49-0.1-0.79
		c-0.3-0.79-0.69-0.99-1.08-0.79c-0.3,0.2-0.39,0.69-0.2,1.18c0.1,0.3,0.2,0.39,0.49,0.59l6.8,3.06c0.3,0.2,0.39,0.3,0.49,0.59
		c0.2,0.49,0.1,0.99-0.3,1.08c-0.39,0.2-0.79-0.1-0.99-0.59c-0.1-0.3-0.1-0.49-0.1-0.79L42.02,2.87z"/>
	<g>
		<circle cx="65.78" cy="9.67" r="0.49"/>
		<circle cx="73.07" cy="13.32" r="0.49"/>
		<circle cx="58.19" cy="7.6" r="0.49"/>
		<circle cx="50.3" cy="6.91" r="0.49"/>
		<circle cx="54.74" cy="3.86" r="0.49"/>
		<circle cx="45.87" cy="3.86" r="0.49"/>
		<circle cx="62.92" cy="5.44" r="0.49"/>
		<circle cx="70.91" cy="8.49" r="0.49"/>
		<circle cx="78.2" cy="12.93" r="0.49"/>
		<circle cx="84.21" cy="18.35" r="0.49"/>
		<circle cx="89.73" cy="25.55" r="0.49"/>
		<circle cx="93.38" cy="32.94" r="0.49"/>
		<circle cx="95.75" cy="41.22" r="0.49"/>
		<circle cx="96.63" cy="50.19" r="0.49"/>
		<circle cx="95.75" cy="58.47" r="0.49"/>
		<circle cx="93.48" cy="66.75" r="0.49"/>
		<circle cx="89.44" cy="74.54" r="0.49"/>
		<circle cx="84.41" cy="81.24" r="0.49"/>
		<circle cx="77.81" cy="87.06" r="0.49"/>
		<circle cx="70.51" cy="91.39" r="0.49"/>
		<circle cx="62.82" cy="94.35" r="0.49"/>
		<circle cx="54.34" cy="95.83" r="0.49"/>
		<circle cx="45.97" cy="95.83" r="0.49"/>
		<circle cx="37.59" cy="94.15" r="0.49"/>
		<circle cx="29.8" cy="91.2" r="0.49"/>
		<circle cx="22.6" cy="86.56" r="0.49"/>
		<circle cx="16.2" cy="80.85" r="0.49"/>
		<circle cx="11.17" cy="74.14" r="0.49"/>
		<circle cx="7.32" cy="66.45" r="0.49"/>
		<circle cx="5.06" cy="58.17" r="0.49"/>
		<circle cx="4.27" cy="49.7" r="0.49"/>
		<circle cx="5.06" cy="41.22" r="0.49"/>
		<circle cx="7.42" cy="33.14" r="0.49"/>
		<circle cx="11.17" cy="25.45" r="0.49"/>
		<circle cx="16.29" cy="18.74" r="0.49"/>
		<circle cx="22.7" cy="12.93" r="0.49"/>
		<circle cx="30" cy="8.39" r="0.49"/>
		<circle cx="37.88" cy="5.44" r="0.49"/>
		<circle cx="42.32" cy="7.6" r="0.49"/>
		<circle cx="34.93" cy="9.77" r="0.49"/>
		<circle cx="27.83" cy="13.22" r="0.49"/>
		<circle cx="21.42" cy="18.15" r="0.49"/>
		<circle cx="16" cy="23.97" r="0.49"/>
		<circle cx="11.96" cy="30.57" r="0.49"/>
		<circle cx="9.1" cy="37.87" r="0.49"/>
		<circle cx="7.42" cy="45.75" r="0.49"/>
		<circle cx="7.42" cy="53.44" r="0.49"/>
		<circle cx="8.9" cy="61.62" r="0.49"/>
		<circle cx="11.66" cy="69.02" r="0.49"/>
		<circle cx="15.8" cy="75.82" r="0.49"/>
		<circle cx="21.22" cy="81.73" r="0.49"/>
		<circle cx="27.34" cy="86.47" r="0.49"/>
		<circle cx="34.43" cy="90.31" r="0.49"/>
		<circle cx="42.22" cy="92.48" r="0.49"/>
		<circle cx="50.4" cy="93.27" r="0.49"/>
		<circle cx="58.29" cy="92.48" r="0.49"/>
		<circle cx="65.98" cy="90.41" r="0.49"/>
		<circle cx="73.17" cy="86.66" r="0.49"/>
		<circle cx="79.38" cy="82.03" r="0.49"/>
		<circle cx="84.71" cy="76.31" r="0.49"/>
		<circle cx="88.95" cy="69.61" r="0.49"/>
		<circle cx="92" cy="61.92" r="0.49"/>
		<circle cx="93.48" cy="54.03" r="0.49"/>
		<circle cx="93.48" cy="46.05" r="0.49"/>
		<circle cx="92" cy="37.87" r="0.49"/>
		<circle cx="89.04" cy="30.57" r="0.49"/>
		<circle cx="84.81" cy="23.77" r="0.49"/>
		<circle cx="79.38" cy="17.96" r="0.49"/>
	</g>
</g>
</svg>
