<?xml version="1.0" encoding="utf-8"?>
<!-- Generator: Adobe Illustrator 23.0.6, SVG Export Plug-In . SVG Version: 6.00 Build 0)  -->
<svg version="1.1" id="Layer_1" xmlns="http://www.w3.org/2000/svg" xmlns:xlink="http://www.w3.org/1999/xlink" x="0px" y="0px"
	 viewBox="0 0 100 100" style="enable-background:new 0 0 100 100;" xml:space="preserve">
<style type="text/css">
	.st0{fill:none;stroke:#000000;stroke-width:0.25;stroke-miterlimit:10;}
	.st1{fill:none;stroke:#000000;stroke-width:0.03;stroke-miterlimit:10;}
	.st2{fill:none;stroke:#000000;stroke-width:0.08;stroke-miterlimit:10;}
</style>
<g>
	<polygon class="st0" points="41.91,1.94 47.6,1.25 46.22,4.68 46.22,5.37 47.89,8.8 43.08,9.29 44.07,5.66 43.97,5.07 	"/>
	<polygon class="st0" points="32.09,4.67 37.51,2.81 36.88,6.46 37.03,7.13 39.37,10.14 34.77,11.62 34.98,7.87 34.76,7.31 	"/>
	<polygon class="st0" points="23.06,9.38 27.98,6.44 28.12,10.14 28.4,10.76 31.32,13.22 27.13,15.63 26.54,11.91 26.22,11.41 	"/>
	<polygon class="st0" points="15.2,15.87 19.4,11.97 20.31,15.56 20.71,16.11 24.08,17.91 20.48,21.13 19.14,17.62 18.71,17.2 	"/>
	<polygon class="st0" points="8.87,23.85 12.16,19.17 13.8,22.48 14.31,22.94 17.97,24 15.12,27.9 13.08,24.74 12.58,24.42 	"/>
	<polygon class="st0" points="4.33,32.98 6.58,27.71 8.87,30.61 9.46,30.96 13.27,31.23 11.29,35.64 8.64,32.97 8.08,32.76 	"/>
	<polygon class="st0" points="1.79,42.84 2.89,37.22 5.73,39.59 6.39,39.8 10.17,39.28 9.15,44 6,41.94 5.41,41.86 	"/>
	<polygon class="st0" points="1.35,53.02 1.26,47.29 4.54,49.02 5.22,49.09 8.81,47.79 8.79,52.62 5.29,51.27 4.69,51.3 	"/>
	<polygon class="st0" points="3.04,63.07 1.77,57.49 5.33,58.49 6.01,58.42 9.25,56.4 10.24,61.13 6.53,60.54 5.95,60.7 	"/>
	<polygon class="st0" points="6.79,72.55 4.38,67.35 8.07,67.6 8.72,67.38 11.47,64.74 13.42,69.16 9.67,69.35 9.14,69.62 	"/>
	<polygon class="st0" points="12.42,81.04 8.98,76.46 12.64,75.93 13.24,75.59 15.38,72.43 18.2,76.34 14.57,77.31 14.11,77.69 	"/>
	<polygon class="st0" points="19.7,88.18 15.38,84.41 18.85,83.13 19.36,82.67 20.8,79.13 24.38,82.38 21.02,84.08 20.65,84.54 	"/>
	<polygon class="st0" points="28.3,93.64 23.29,90.85 26.42,88.88 26.82,88.33 27.49,84.57 31.67,87 28.74,89.36 28.47,89.89 	"/>
	<polygon class="st0" points="37.84,97.2 32.37,95.51 35.02,92.94 35.3,92.31 35.17,88.49 39.76,90 37.39,92.92 37.24,93.49 	"/>
	<polygon class="st0" points="47.92,98.7 42.21,98.19 44.27,95.11 44.41,94.44 43.5,90.74 48.3,91.26 46.59,94.6 46.56,95.2 	"/>
	<polygon class="st0" points="58.09,98.06 52.4,98.75 53.78,95.32 53.78,94.63 52.11,91.2 56.92,90.71 55.93,94.34 56.03,94.93 	"/>
	<polygon class="st0" points="67.91,95.33 62.49,97.19 63.12,93.54 62.97,92.87 60.63,89.86 65.23,88.38 65.02,92.13 65.24,92.69 	
		"/>
	<polygon class="st0" points="76.94,90.62 72.02,93.56 71.88,89.86 71.6,89.24 68.68,86.78 72.87,84.37 73.46,88.09 73.78,88.59 	
		"/>
	<polygon class="st0" points="84.8,84.13 80.6,88.03 79.69,84.44 79.29,83.89 75.92,82.09 79.52,78.87 80.86,82.38 81.29,82.8 	"/>
	<polygon class="st0" points="91.13,76.15 87.84,80.83 86.2,77.52 85.69,77.06 82.03,76 84.88,72.1 86.92,75.26 87.42,75.58 	"/>
	<polygon class="st0" points="95.67,67.02 93.42,72.29 91.13,69.39 90.54,69.04 86.73,68.77 88.71,64.36 91.36,67.03 91.92,67.24 	
		"/>
	<polygon class="st0" points="98.21,57.16 97.11,62.78 94.27,60.41 93.61,60.2 89.83,60.72 90.85,56 94,58.06 94.59,58.14 	"/>
	<polygon class="st0" points="98.65,46.98 98.74,52.71 95.46,50.98 94.78,50.91 91.19,52.21 91.21,47.38 94.71,48.73 95.31,48.7 	
		"/>
	<polygon class="st0" points="96.96,36.93 98.23,42.51 94.67,41.51 93.99,41.58 90.75,43.6 89.76,38.87 93.47,39.46 94.05,39.3 	"/>
	<polygon class="st0" points="93.21,27.45 95.62,32.65 91.93,32.4 91.28,32.62 88.53,35.26 86.58,30.84 90.33,30.65 90.86,30.38 	
		"/>
	<polygon class="st0" points="87.58,18.96 91.02,23.54 87.36,24.07 86.76,24.41 84.62,27.57 81.8,23.66 85.43,22.69 85.89,22.31 	
		"/>
	<polygon class="st0" points="80.3,11.82 84.62,15.59 81.15,16.87 80.64,17.33 79.2,20.87 75.62,17.62 78.98,15.92 79.35,15.46 	"/>
	<polygon class="st0" points="71.7,6.36 76.71,9.15 73.58,11.12 73.18,11.67 72.51,15.43 68.33,13 71.26,10.64 71.53,10.11 	"/>
	<polygon class="st0" points="62.16,2.8 67.63,4.49 64.98,7.06 64.7,7.69 64.83,11.51 60.24,10 62.61,7.08 62.76,6.51 	"/>
	<polygon class="st0" points="52.08,1.3 57.79,1.81 55.73,4.89 55.59,5.56 56.5,9.26 51.7,8.74 53.41,5.4 53.44,4.8 	"/>
</g>
<g>
	<g>
		<line class="st1" x1="45.14" y1="4.78" x2="44.75" y2="1.64"/>
		<line class="st1" x1="45.54" y1="8.9" x2="45.14" y2="5.47"/>
	</g>
	<g>
		<line class="st1" x1="35.85" y1="6.78" x2="34.81" y2="3.79"/>
		<line class="st1" x1="37.09" y1="10.73" x2="35.99" y2="7.45"/>
	</g>
	<g>
		<line class="st1" x1="27.17" y1="10.67" x2="25.54" y2="7.96"/>
		<line class="st1" x1="29.21" y1="14.27" x2="27.45" y2="11.29"/>
	</g>
	<g>
		<line class="st1" x1="19.49" y1="16.27" x2="17.33" y2="13.96"/>
		<line class="st1" x1="22.23" y1="19.37" x2="19.9" y2="16.83"/>
	</g>
	<g>
		<line class="st1" x1="13.15" y1="23.35" x2="10.55" y2="21.54"/>
		<line class="st1" x1="16.47" y1="25.82" x2="13.66" y2="23.81"/>
	</g>
	<g>
		<line class="st1" x1="8.41" y1="31.6" x2="5.5" y2="30.37"/>
		<line class="st1" x1="12.18" y1="33.32" x2="9.01" y2="31.94"/>
	</g>
	<g>
		<line class="st1" x1="5.49" y1="40.64" x2="2.39" y2="40.05"/>
		<line class="st1" x1="9.53" y1="41.54" x2="6.15" y2="40.86"/>
	</g>
	<g>
		<line class="st1" x1="4.52" y1="50.1" x2="1.36" y2="50.16"/>
		<line class="st1" x1="8.66" y1="50.14" x2="5.2" y2="50.17"/>
	</g>
	<g>
		<line class="st1" x1="5.54" y1="59.56" x2="2.45" y2="60.27"/>
		<line class="st1" x1="9.59" y1="58.74" x2="6.22" y2="59.48"/>
	</g>
	<g>
		<line class="st1" x1="8.49" y1="68.59" x2="5.63" y2="69.93"/>
		<line class="st1" x1="12.29" y1="66.95" x2="9.15" y2="68.38"/>
	</g>
	<g>
		<line class="st1" x1="13.27" y1="76.82" x2="10.74" y2="78.72"/>
		<line class="st1" x1="16.64" y1="74.42" x2="13.86" y2="76.47"/>
	</g>
	<g>
		<line class="st1" x1="19.64" y1="83.87" x2="17.57" y2="86.26"/>
		<line class="st1" x1="22.44" y1="80.82" x2="20.15" y2="83.41"/>
	</g>
	<g>
		<line class="st1" x1="27.35" y1="89.44" x2="25.82" y2="92.21"/>
		<line class="st1" x1="29.45" y1="85.87" x2="27.75" y2="88.88"/>
	</g>
	<g>
		<line class="st1" x1="36.04" y1="93.29" x2="35.13" y2="96.31"/>
		<line class="st1" x1="37.36" y1="89.36" x2="36.32" y2="92.66"/>
	</g>
	<g>
		<line class="st1" x1="45.35" y1="95.24" x2="45.08" y2="98.39"/>
		<line class="st1" x1="45.82" y1="91.13" x2="45.49" y2="94.57"/>
	</g>
	<g>
		<line class="st1" x1="54.86" y1="95.22" x2="55.25" y2="98.36"/>
		<line class="st1" x1="54.46" y1="91.1" x2="54.86" y2="94.53"/>
	</g>
	<g>
		<line class="st1" x1="64.15" y1="93.22" x2="65.19" y2="96.21"/>
		<line class="st1" x1="62.91" y1="89.27" x2="64.01" y2="92.55"/>
	</g>
	<g>
		<line class="st1" x1="72.83" y1="89.33" x2="74.46" y2="92.04"/>
		<line class="st1" x1="70.79" y1="85.73" x2="72.55" y2="88.71"/>
	</g>
	<g>
		<line class="st1" x1="80.51" y1="83.73" x2="82.67" y2="86.04"/>
		<line class="st1" x1="77.77" y1="80.63" x2="80.1" y2="83.17"/>
	</g>
	<g>
		<line class="st1" x1="86.85" y1="76.65" x2="89.45" y2="78.46"/>
		<line class="st1" x1="83.53" y1="74.18" x2="86.34" y2="76.19"/>
	</g>
	<g>
		<line class="st1" x1="91.59" y1="68.4" x2="94.5" y2="69.63"/>
		<line class="st1" x1="87.82" y1="66.68" x2="90.99" y2="68.06"/>
	</g>
	<g>
		<line class="st1" x1="94.51" y1="59.36" x2="97.61" y2="59.95"/>
		<line class="st1" x1="90.47" y1="58.46" x2="93.85" y2="59.14"/>
	</g>
	<g>
		<line class="st1" x1="95.48" y1="49.9" x2="98.64" y2="49.84"/>
		<line class="st1" x1="91.34" y1="49.86" x2="94.8" y2="49.83"/>
	</g>
	<g>
		<line class="st1" x1="94.46" y1="40.44" x2="97.55" y2="39.73"/>
		<line class="st1" x1="90.41" y1="41.26" x2="93.78" y2="40.52"/>
	</g>
	<g>
		<line class="st1" x1="91.51" y1="31.41" x2="94.37" y2="30.07"/>
		<line class="st1" x1="87.71" y1="33.05" x2="90.85" y2="31.62"/>
	</g>
	<g>
		<line class="st1" x1="86.73" y1="23.18" x2="89.26" y2="21.28"/>
		<line class="st1" x1="83.36" y1="25.58" x2="86.14" y2="23.53"/>
	</g>
	<g>
		<line class="st1" x1="80.36" y1="16.13" x2="82.43" y2="13.74"/>
		<line class="st1" x1="77.56" y1="19.18" x2="79.85" y2="16.59"/>
	</g>
	<g>
		<line class="st1" x1="72.65" y1="10.56" x2="74.18" y2="7.79"/>
		<line class="st1" x1="70.55" y1="14.13" x2="72.25" y2="11.12"/>
	</g>
	<g>
		<line class="st1" x1="63.96" y1="6.71" x2="64.87" y2="3.69"/>
		<line class="st1" x1="62.64" y1="10.64" x2="63.68" y2="7.34"/>
	</g>
	<g>
		<line class="st1" x1="54.65" y1="4.76" x2="54.92" y2="1.61"/>
		<line class="st1" x1="54.18" y1="8.87" x2="54.51" y2="5.43"/>
	</g>
</g>
<g>
	<g>
		<line class="st2" x1="44.07" y1="4.98" x2="46.22" y2="4.78"/>
		<line class="st2" x1="44.16" y1="5.66" x2="46.22" y2="5.47"/>
		<polygon class="st2" points="38.18,6.45 39.65,3.51 42.3,5.47 40.73,8.31 		"/>
	</g>
	<g>
		<line class="st2" x1="34.83" y1="7.19" x2="36.9" y2="6.55"/>
		<line class="st2" x1="35.07" y1="7.85" x2="37.05" y2="7.23"/>
		<polygon class="st2" points="29.38,9.86 30.21,6.67 33.21,8.04 32.26,11.15 		"/>
	</g>
	<g>
		<line class="st2" x1="26.27" y1="11.28" x2="28.16" y2="10.23"/>
		<line class="st2" x1="26.63" y1="11.87" x2="28.44" y2="10.85"/>
		<polygon class="st2" points="21.49,15.02 21.63,11.73 24.85,12.45 24.58,15.69 		"/>
	</g>
	<g>
		<line class="st2" x1="18.73" y1="17.06" x2="20.37" y2="15.64"/>
		<line class="st2" x1="19.22" y1="17.56" x2="20.77" y2="16.19"/>
		<polygon class="st2" points="14.84,21.71 14.3,18.47 17.59,18.5 18,21.72 		"/>
	</g>
	<g>
		<line class="st2" x1="12.57" y1="24.28" x2="13.87" y2="22.55"/>
		<line class="st2" x1="13.15" y1="24.67" x2="14.38" y2="23.01"/>
		<polygon class="st2" points="9.73,29.64 8.52,26.58 11.75,25.92 12.82,28.99 		"/>
	</g>
	<g>
		<line class="st2" x1="8.04" y1="32.63" x2="8.95" y2="30.66"/>
		<line class="st2" x1="8.69" y1="32.89" x2="9.55" y2="31"/>
		<polygon class="st2" points="6.37,38.46 4.56,35.72 7.58,34.4 9.26,37.18 		"/>
	</g>
	<g>
		<line class="st2" x1="5.35" y1="41.73" x2="5.83" y2="39.62"/>
		<line class="st2" x1="6.03" y1="41.85" x2="6.48" y2="39.83"/>
		<polygon class="st2" points="4.93,47.78 2.58,45.48 5.27,43.56 7.49,45.93 		"/>
	</g>
	<g>
		<line class="st2" x1="4.6" y1="51.2" x2="4.63" y2="49.03"/>
		<line class="st2" x1="5.3" y1="51.17" x2="5.32" y2="49.1"/>
		<polygon class="st2" points="5.45,57.2 2.68,55.43 4.91,53 7.57,54.86 		"/>
	</g>
	<g>
		<line class="st2" x1="5.84" y1="60.61" x2="5.42" y2="58.48"/>
		<line class="st2" x1="6.52" y1="60.44" x2="6.11" y2="58.41"/>
		<polygon class="st2" points="7.92,66.31 4.84,65.15 6.52,62.31 9.51,63.58 		"/>
	</g>
	<g>
		<line class="st2" x1="9.01" y1="69.56" x2="8.16" y2="67.57"/>
		<line class="st2" x1="9.64" y1="69.25" x2="8.81" y2="67.35"/>
		<polygon class="st2" points="12.23,74.7 8.98,74.21 10.03,71.09 13.22,71.7 		"/>
	</g>
	<g>
		<line class="st2" x1="13.98" y1="77.65" x2="12.73" y2="75.88"/>
		<line class="st2" x1="14.52" y1="77.22" x2="13.32" y2="75.54"/>
		<polygon class="st2" points="18.19,82.01 14.91,82.21 15.28,78.94 18.53,78.87 		"/>
	</g>
	<g>
		<line class="st2" x1="20.51" y1="84.54" x2="18.92" y2="83.06"/>
		<line class="st2" x1="20.96" y1="84" x2="19.43" y2="82.6"/>
		<polygon class="st2" points="25.54,87.93 22.37,88.8 22.06,85.52 25.22,84.78 		"/>
	</g>
	<g>
		<line class="st2" x1="28.34" y1="89.91" x2="26.48" y2="88.8"/>
		<line class="st2" x1="28.66" y1="89.3" x2="26.88" y2="88.25"/>
		<polygon class="st2" points="33.96,92.18 31.04,93.7 30.05,90.55 33,89.18 		"/>
	</g>
	<g>
		<line class="st2" x1="37.11" y1="93.54" x2="35.06" y2="92.85"/>
		<line class="st2" x1="37.3" y1="92.88" x2="35.34" y2="92.22"/>
		<polygon class="st2" points="43.08,94.59 40.54,96.68 38.92,93.81 41.51,91.85 		"/>
	</g>
	<g>
		<line class="st2" x1="46.44" y1="95.27" x2="44.29" y2="95.02"/>
		<line class="st2" x1="46.49" y1="94.58" x2="44.44" y2="94.34"/>
		<polygon class="st2" points="52.51,95.06 50.46,97.63 48.27,95.16 50.4,92.7 		"/>
	</g>
	<g>
		<line class="st2" x1="55.93" y1="95.02" x2="53.78" y2="95.22"/>
		<line class="st2" x1="55.84" y1="94.34" x2="53.78" y2="94.53"/>
		<polygon class="st2" points="61.82,93.55 60.35,96.49 57.7,94.53 59.27,91.69 		"/>
	</g>
	<g>
		<line class="st2" x1="65.17" y1="92.81" x2="63.1" y2="93.45"/>
		<line class="st2" x1="64.93" y1="92.15" x2="62.95" y2="92.77"/>
		<polygon class="st2" points="70.62,90.14 69.79,93.33 66.79,91.96 67.74,88.85 		"/>
	</g>
	<g>
		<line class="st2" x1="73.73" y1="88.72" x2="71.84" y2="89.77"/>
		<line class="st2" x1="73.37" y1="88.13" x2="71.56" y2="89.15"/>
		<polygon class="st2" points="78.51,84.98 78.37,88.27 75.15,87.55 75.42,84.31 		"/>
	</g>
	<g>
		<line class="st2" x1="81.27" y1="82.94" x2="79.63" y2="84.36"/>
		<line class="st2" x1="80.78" y1="82.44" x2="79.23" y2="83.81"/>
		<polygon class="st2" points="85.16,78.29 85.7,81.53 82.41,81.5 82,78.28 		"/>
	</g>
	<g>
		<line class="st2" x1="87.43" y1="75.72" x2="86.13" y2="77.45"/>
		<line class="st2" x1="86.85" y1="75.33" x2="85.62" y2="76.99"/>
		<polygon class="st2" points="90.27,70.36 91.48,73.42 88.25,74.08 87.18,71.01 		"/>
	</g>
	<g>
		<line class="st2" x1="91.96" y1="67.37" x2="91.05" y2="69.34"/>
		<line class="st2" x1="91.31" y1="67.11" x2="90.45" y2="69"/>
		<polygon class="st2" points="93.63,61.54 95.44,64.28 92.42,65.6 90.74,62.82 		"/>
	</g>
	<g>
		<line class="st2" x1="94.65" y1="58.27" x2="94.17" y2="60.38"/>
		<line class="st2" x1="93.97" y1="58.15" x2="93.52" y2="60.17"/>
		<polygon class="st2" points="95.07,52.22 97.42,54.52 94.73,56.44 92.51,54.07 		"/>
	</g>
	<g>
		<line class="st2" x1="95.4" y1="48.8" x2="95.37" y2="50.97"/>
		<line class="st2" x1="94.7" y1="48.83" x2="94.68" y2="50.9"/>
		<polygon class="st2" points="94.55,42.8 97.32,44.57 95.09,47 92.43,45.14 		"/>
	</g>
	<g>
		<line class="st2" x1="94.16" y1="39.39" x2="94.58" y2="41.52"/>
		<line class="st2" x1="93.48" y1="39.56" x2="93.89" y2="41.59"/>
		<polygon class="st2" points="92.08,33.69 95.16,34.85 93.48,37.69 90.49,36.42 		"/>
	</g>
	<g>
		<line class="st2" x1="90.99" y1="30.44" x2="91.84" y2="32.43"/>
		<line class="st2" x1="90.36" y1="30.75" x2="91.19" y2="32.65"/>
		<polygon class="st2" points="87.77,25.3 91.02,25.79 89.97,28.91 86.78,28.3 		"/>
	</g>
	<g>
		<line class="st2" x1="86.02" y1="22.35" x2="87.27" y2="24.12"/>
		<line class="st2" x1="85.48" y1="22.78" x2="86.68" y2="24.46"/>
		<polygon class="st2" points="81.81,17.99 85.09,17.79 84.72,21.06 81.47,21.13 		"/>
	</g>
	<g>
		<line class="st2" x1="79.49" y1="15.46" x2="81.08" y2="16.94"/>
		<line class="st2" x1="79.04" y1="16" x2="80.57" y2="17.4"/>
		<polygon class="st2" points="74.46,12.07 77.63,11.2 77.94,14.48 74.78,15.22 		"/>
	</g>
	<g>
		<line class="st2" x1="71.66" y1="10.09" x2="73.52" y2="11.2"/>
		<line class="st2" x1="71.34" y1="10.7" x2="73.12" y2="11.75"/>
		<polygon class="st2" points="66.04,7.82 68.96,6.3 69.95,9.45 67,10.82 		"/>
	</g>
	<g>
		<line class="st2" x1="62.89" y1="6.46" x2="64.94" y2="7.15"/>
		<line class="st2" x1="62.7" y1="7.12" x2="64.66" y2="7.78"/>
		<polygon class="st2" points="56.92,5.41 59.46,3.32 61.08,6.19 58.49,8.15 		"/>
	</g>
	<g>
		<line class="st2" x1="53.56" y1="4.73" x2="55.71" y2="4.98"/>
		<line class="st2" x1="53.51" y1="5.42" x2="55.56" y2="5.66"/>
		<polygon class="st2" points="47.49,4.94 49.54,2.37 51.73,4.84 49.6,7.3 		"/>
	</g>
</g>
</svg>
