<?xml version="1.0" encoding="utf-8"?>
<!-- Generator: Adobe Illustrator 23.0.6, SVG Export Plug-In . SVG Version: 6.00 Build 0)  -->
<svg version="1.1" id="Layer_1" xmlns="http://www.w3.org/2000/svg" xmlns:xlink="http://www.w3.org/1999/xlink" x="0px" y="0px"
	 viewBox="0 0 100 100" enable-background="new 0 0 100 100" xml:space="preserve">
<g>
	<path fill="none" stroke="#000000" stroke-width="0.2" stroke-miterlimit="10" d="M47.04,2.32c0,0,3.36,1.32,6.01,4.48"/>
	<path fill="none" stroke="#000000" stroke-width="0.2" stroke-miterlimit="10" d="M47.86,6.8c0,0,2.34-3.06,5.91-4.48"/>
	<path fill="none" stroke="#000000" stroke-width="0.2" stroke-miterlimit="10" d="M39,3.54c0,0,3.57,0.71,6.72,3.36"/>
	<path fill="none" stroke="#000000" stroke-width="0.2" stroke-miterlimit="10" d="M40.52,7.72c0,0,1.73-3.46,5.09-5.4"/>
	<path fill="none" stroke="#000000" stroke-width="0.2" stroke-miterlimit="10" d="M31.25,6.09c0,0,3.57,0.1,7.13,2.24"/>
	<path fill="none" stroke="#000000" stroke-width="0.2" stroke-miterlimit="10" d="M33.5,9.96c0,0,1.22-3.67,4.07-6.21"/>
	<path fill="none" stroke="#000000" stroke-width="0.2" stroke-miterlimit="10" d="M24.02,9.86c0,0,3.57-0.51,7.44,0.92"/>
	<path fill="none" stroke="#000000" stroke-width="0.2" stroke-miterlimit="10" d="M26.98,13.32c0,0,0.51-3.87,2.95-6.72"/>
	<path fill="none" stroke="#000000" stroke-width="0.2" stroke-miterlimit="10" d="M17.6,14.85c0,0,3.46-1.12,7.44-0.31"/>
	<path fill="none" stroke="#000000" stroke-width="0.2" stroke-miterlimit="10" d="M21.07,17.81c0,0-0.1-3.87,1.73-7.13"/>
	<path fill="none" stroke="#000000" stroke-width="0.2" stroke-miterlimit="10" d="M12.1,20.86c0,0,3.26-1.63,7.33-1.53"/>
	<path fill="none" stroke="#000000" stroke-width="0.2" stroke-miterlimit="10" d="M15.97,23.1c0,0-0.81-3.77,0.51-7.33"/>
	<path fill="none" stroke="#000000" stroke-width="0.2" stroke-miterlimit="10" d="M7.72,27.69c0,0,2.85-2.14,6.93-2.75"/>
	<path fill="none" stroke="#000000" stroke-width="0.2" stroke-miterlimit="10" d="M11.9,29.32c0,0-1.43-3.57-0.71-7.33"/>
	<path fill="none" stroke="#000000" stroke-width="0.2" stroke-miterlimit="10" d="M4.46,35.12c0,0,2.44-2.65,6.42-3.87"/>
	<path fill="none" stroke="#000000" stroke-width="0.2" stroke-miterlimit="10" d="M8.94,36.04c0,0-1.94-3.26-1.94-7.13"/>
	<path fill="none" stroke="#000000" stroke-width="0.2" stroke-miterlimit="10" d="M2.63,43.07c0,0,2.04-2.95,5.6-4.89"/>
	<path fill="none" stroke="#000000" stroke-width="0.2" stroke-miterlimit="10" d="M7.11,43.17c0,0-2.55-2.95-3.16-6.72"/>
	<path fill="none" stroke="#000000" stroke-width="0.2" stroke-miterlimit="10" d="M2.12,51.22c0,0,1.43-3.26,4.69-5.81"/>
	<path fill="none" stroke="#000000" stroke-width="0.2" stroke-miterlimit="10" d="M6.6,50.51c0,0-2.95-2.44-4.18-6.11"/>
	<path fill="none" stroke="#000000" stroke-width="0.2" stroke-miterlimit="10" d="M2.93,59.27c0,0,0.92-3.46,3.67-6.52"/>
	<path fill="none" stroke="#000000" stroke-width="0.2" stroke-miterlimit="10" d="M7.21,57.94c0,0-3.36-1.94-5.2-5.3"/>
	<path fill="none" stroke="#000000" stroke-width="0.2" stroke-miterlimit="10" d="M5.17,67.11c0,0,0.31-3.57,2.55-7.03"/>
	<path fill="none" stroke="#000000" stroke-width="0.2" stroke-miterlimit="10" d="M9.15,64.97c0,0-3.67-1.32-6.01-4.28"/>
	<path fill="none" stroke="#000000" stroke-width="0.2" stroke-miterlimit="10" d="M8.64,74.45c0,0-0.31-3.57,1.32-7.33"/>
	<path fill="none" stroke="#000000" stroke-width="0.2" stroke-miterlimit="10" d="M12.31,71.7c0,0-3.77-0.71-6.62-3.26"/>
	<path fill="none" stroke="#000000" stroke-width="0.2" stroke-miterlimit="10" d="M13.32,81.17c0,0-0.92-3.46,0-7.44"/>
	<path fill="none" stroke="#000000" stroke-width="0.2" stroke-miterlimit="10" d="M16.48,77.81c0,0-3.87,0-7.13-2.04"/>
	<path fill="none" stroke="#000000" stroke-width="0.2" stroke-miterlimit="10" d="M19.13,86.88c0,0-1.53-3.26-1.22-7.33"/>
	<path fill="none" stroke="#000000" stroke-width="0.2" stroke-miterlimit="10" d="M21.58,83.11c0,0-3.77,0.61-7.33-0.81"/>
	<path fill="none" stroke="#000000" stroke-width="0.2" stroke-miterlimit="10" d="M25.75,91.56c0,0-2.04-2.95-2.44-7.03"/>
	<path fill="none" stroke="#000000" stroke-width="0.2" stroke-miterlimit="10" d="M27.59,87.38c0,0-3.67,1.22-7.33,0.41"/>
	<path fill="none" stroke="#000000" stroke-width="0.2" stroke-miterlimit="10" d="M33.09,95.13c0,0-2.55-2.55-3.67-6.52"/>
	<path fill="none" stroke="#000000" stroke-width="0.2" stroke-miterlimit="10" d="M34.21,90.64c0,0-3.36,1.83-7.23,1.63"/>
	<path fill="none" stroke="#000000" stroke-width="0.2" stroke-miterlimit="10" d="M40.93,97.27c0,0-2.95-2.14-4.69-5.81"/>
	<path fill="none" stroke="#000000" stroke-width="0.2" stroke-miterlimit="10" d="M41.24,92.78c0,0-3.06,2.34-6.83,2.85"/>
	<path fill="none" stroke="#000000" stroke-width="0.2" stroke-miterlimit="10" d="M49.08,98.18c0,0-3.26-1.63-5.6-4.99"/>
	<path fill="none" stroke="#000000" stroke-width="0.2" stroke-miterlimit="10" d="M48.57,93.7c0,0-2.55,2.85-6.21,3.97"/>
	<path fill="none" stroke="#000000" stroke-width="0.2" stroke-miterlimit="10" d="M57.13,97.67c0,0-3.46-1.02-6.32-3.97"/>
	<path fill="none" stroke="#000000" stroke-width="0.2" stroke-miterlimit="10" d="M55.91,93.29c0,0-2.04,3.26-5.5,4.99"/>
	<path fill="none" stroke="#000000" stroke-width="0.2" stroke-miterlimit="10" d="M65.08,95.74c0,0-3.57-0.41-6.93-2.85"/>
	<path fill="none" stroke="#000000" stroke-width="0.2" stroke-miterlimit="10" d="M63.14,91.66c0,0-1.53,3.57-4.58,5.81"/>
	<path fill="none" stroke="#000000" stroke-width="0.2" stroke-miterlimit="10" d="M72.61,92.58c0,0-3.57,0.2-7.33-1.63"/>
	<path fill="none" stroke="#000000" stroke-width="0.2" stroke-miterlimit="10" d="M69.96,88.91c0,0-0.81,3.77-3.57,6.52"/>
	<path fill="none" stroke="#000000" stroke-width="0.2" stroke-miterlimit="10" d="M79.44,88.2c0,0-3.57,0.81-7.44-0.31"/>
	<path fill="none" stroke="#000000" stroke-width="0.2" stroke-miterlimit="10" d="M76.18,84.94c0,0-0.2,3.87-2.34,7.03"/>
	<path fill="none" stroke="#000000" stroke-width="0.2" stroke-miterlimit="10" d="M85.45,82.7c0,0-3.36,1.32-7.44,0.92"/>
	<path fill="none" stroke="#000000" stroke-width="0.2" stroke-miterlimit="10" d="M81.68,80.05c0,0,0.41,3.87-1.12,7.33"/>
	<path fill="none" stroke="#000000" stroke-width="0.2" stroke-miterlimit="10" d="M90.34,76.18c0,0-3.06,1.94-7.13,2.14"/>
	<path fill="none" stroke="#000000" stroke-width="0.2" stroke-miterlimit="10" d="M86.26,74.24c0,0,1.12,3.67,0.1,7.44"/>
	<path fill="none" stroke="#000000" stroke-width="0.2" stroke-miterlimit="10" d="M94.21,69.05c0,0-2.75,2.44-6.72,3.36"/>
	<path fill="none" stroke="#000000" stroke-width="0.2" stroke-miterlimit="10" d="M89.83,67.83c0,0,1.73,3.46,1.32,7.23"/>
	<path fill="none" stroke="#000000" stroke-width="0.2" stroke-miterlimit="10" d="M96.76,61.31c0,0-2.24,2.85-6.01,4.48"/>
	<path fill="none" stroke="#000000" stroke-width="0.2" stroke-miterlimit="10" d="M92.27,60.8c0,0,2.24,3.16,2.55,6.93"/>
	<path fill="none" stroke="#000000" stroke-width="0.2" stroke-miterlimit="10" d="M97.98,53.26c0,0-1.73,3.16-5.2,5.4"/>
	<path fill="none" stroke="#000000" stroke-width="0.2" stroke-miterlimit="10" d="M93.4,53.56c0,0,2.75,2.75,3.67,6.42"/>
	<path fill="none" stroke="#000000" stroke-width="0.2" stroke-miterlimit="10" d="M97.78,45.11c0,0-1.22,3.36-4.18,6.21"/>
	<path fill="none" stroke="#000000" stroke-width="0.2" stroke-miterlimit="10" d="M93.4,46.13c0,0,3.16,2.24,4.69,5.7"/>
	<path fill="none" stroke="#000000" stroke-width="0.2" stroke-miterlimit="10" d="M96.25,37.16c0,0-0.61,3.57-3.06,6.83"/>
	<path fill="none" stroke="#000000" stroke-width="0.2" stroke-miterlimit="10" d="M92.07,38.89c0,0,3.46,1.63,5.6,4.79"/>
	<path fill="none" stroke="#000000" stroke-width="0.2" stroke-miterlimit="10" d="M93.4,29.52c0,0,0,3.57-1.94,7.23"/>
	<path fill="none" stroke="#000000" stroke-width="0.2" stroke-miterlimit="10" d="M89.52,31.97c0,0,3.77,1.02,6.32,3.77"/>
	<path fill="none" stroke="#000000" stroke-width="0.2" stroke-miterlimit="10" d="M89.22,22.49c0,0,0.61,3.57-0.61,7.44"/>
	<path fill="none" stroke="#000000" stroke-width="0.2" stroke-miterlimit="10" d="M85.86,25.55c0,0,3.87,0.41,6.93,2.65"/>
	<path fill="none" stroke="#000000" stroke-width="0.2" stroke-miterlimit="10" d="M84.02,16.28c0,0,1.22,3.36,0.61,7.44"/>
	<path fill="none" stroke="#000000" stroke-width="0.2" stroke-miterlimit="10" d="M81.17,19.84c0,0,3.87-0.31,7.23,1.43"/>
	<path fill="none" stroke="#000000" stroke-width="0.2" stroke-miterlimit="10" d="M77.81,10.98c0,0,1.73,3.16,1.83,7.23"/>
	<path fill="none" stroke="#000000" stroke-width="0.2" stroke-miterlimit="10" d="M75.67,15.06c0,0,3.77-0.92,7.33,0.2"/>
	<path fill="none" stroke="#000000" stroke-width="0.2" stroke-miterlimit="10" d="M70.78,6.91c0,0,2.24,2.75,3.06,6.83"/>
	<path fill="none" stroke="#000000" stroke-width="0.2" stroke-miterlimit="10" d="M69.35,11.19c0,0,3.57-1.53,7.33-1.02"/>
	<path fill="none" stroke="#000000" stroke-width="0.2" stroke-miterlimit="10" d="M63.14,4.05c0,0,2.75,2.34,4.18,6.21"/>
	<path fill="none" stroke="#000000" stroke-width="0.2" stroke-miterlimit="10" d="M62.43,8.54c0,0,3.26-2.14,7.03-2.24"/>
	<path fill="none" stroke="#000000" stroke-width="0.2" stroke-miterlimit="10" d="M55.19,2.42c0,0,3.06,1.83,5.2,5.4"/>
	<path fill="none" stroke="#000000" stroke-width="0.2" stroke-miterlimit="10" d="M55.19,7.01c0,0,2.85-2.65,6.52-3.36"/>
</g>
<g>
	<circle cx="50.41" cy="7.01" r="0.41"/>
	<circle cx="50.41" cy="1.51" r="0.41"/>
	<circle cx="53.97" cy="4.56" r="0.41"/>
	<circle cx="43.17" cy="7.52" r="0.41"/>
	<circle cx="42.26" cy="2.22" r="0.41"/>
	<circle cx="46.13" cy="4.56" r="0.41"/>
	<circle cx="36.04" cy="9.35" r="0.41"/>
	<circle cx="34.21" cy="4.16" r="0.41"/>
	<circle cx="38.49" cy="5.89" r="0.41"/>
	<circle cx="29.32" cy="12.31" r="0.41"/>
	<circle cx="26.67" cy="7.52" r="0.41"/>
	<circle cx="31.15" cy="8.54" r="0.41"/>
	<circle cx="23.21" cy="16.38" r="0.41"/>
	<circle cx="19.84" cy="12.1" r="0.41"/>
	<circle cx="24.43" cy="12.31" r="0.41"/>
	<circle cx="17.91" cy="21.37" r="0.41"/>
	<circle cx="13.83" cy="17.81" r="0.41"/>
	<circle cx="18.42" cy="17.2" r="0.41"/>
	<circle cx="13.53" cy="27.18" r="0.41"/>
	<circle cx="8.84" cy="24.33" r="0.41"/>
	<circle cx="13.22" cy="23" r="0.41"/>
	<circle cx="10.17" cy="33.7" r="0.41"/>
	<circle cx="5.07" cy="31.66" r="0.41"/>
	<circle cx="9.15" cy="29.62" r="0.41"/>
	<circle cx="7.93" cy="40.73" r="0.41"/>
	<circle cx="2.63" cy="39.61" r="0.41"/>
	<circle cx="6.3" cy="36.75" r="0.41"/>
	<circle cx="6.91" cy="47.96" r="0.41"/>
	<circle cx="1.51" cy="47.76" r="0.41"/>
	<circle cx="4.67" cy="44.4" r="0.41"/>
	<circle cx="7.21" cy="55.3" r="0.41"/>
	<circle cx="1.81" cy="56.01" r="0.41"/>
	<circle cx="4.36" cy="52.14" r="0.41"/>
	<circle cx="8.64" cy="62.53" r="0.41"/>
	<circle cx="3.44" cy="64.06" r="0.41"/>
	<circle cx="5.28" cy="59.88" r="0.41"/>
	<circle cx="11.29" cy="69.25" r="0.41"/>
	<circle cx="6.5" cy="71.8" r="0.41"/>
	<circle cx="7.62" cy="67.32" r="0.41"/>
	<circle cx="15.16" cy="75.57" r="0.41"/>
	<circle cx="10.78" cy="78.83" r="0.41"/>
	<circle cx="11.08" cy="74.24" r="0.41"/>
	<circle cx="19.95" cy="81.07" r="0.41"/>
	<circle cx="16.18" cy="85.04" r="0.41"/>
	<circle cx="15.67" cy="80.46" r="0.41"/>
	<circle cx="25.55" cy="85.75" r="0.41"/>
	<circle cx="22.49" cy="90.24" r="0.41"/>
	<circle cx="21.27" cy="85.86" r="0.41"/>
	<circle cx="31.97" cy="89.42" r="0.41"/>
	<circle cx="29.73" cy="94.31" r="0.41"/>
	<circle cx="27.79" cy="90.14" r="0.41"/>
	<circle cx="38.79" cy="91.87" r="0.41"/>
	<circle cx="37.47" cy="97.16" r="0.41"/>
	<circle cx="34.82" cy="93.4" r="0.41"/>
	<circle cx="46.03" cy="93.19" r="0.41"/>
	<circle cx="45.52" cy="98.59" r="0.41"/>
	<circle cx="42.36" cy="95.33" r="0.41"/>
	<circle cx="53.36" cy="93.29" r="0.41"/>
	<circle cx="53.77" cy="98.69" r="0.41"/>
	<circle cx="50.1" cy="95.94" r="0.41"/>
	<circle cx="60.59" cy="92.07" r="0.41"/>
	<circle cx="61.92" cy="97.37" r="0.41"/>
	<circle cx="57.84" cy="95.33" r="0.41"/>
	<circle cx="67.52" cy="89.73" r="0.41"/>
	<circle cx="69.76" cy="94.72" r="0.41"/>
	<circle cx="65.28" cy="93.4" r="0.41"/>
	<circle cx="73.94" cy="86.16" r="0.41"/>
	<circle cx="76.99" cy="90.75" r="0.41"/>
	<circle cx="72.41" cy="90.14" r="0.41"/>
	<circle cx="79.64" cy="81.68" r="0.41"/>
	<circle cx="83.41" cy="85.55" r="0.41"/>
	<circle cx="78.83" cy="85.75" r="0.41"/>
	<circle cx="84.53" cy="76.18" r="0.41"/>
	<circle cx="88.91" cy="79.44" r="0.41"/>
	<circle cx="84.43" cy="80.46" r="0.41"/>
	<circle cx="88.51" cy="69.96" r="0.41"/>
	<circle cx="93.29" cy="72.41" r="0.41"/>
	<circle cx="89.01" cy="74.14" r="0.41"/>
	<circle cx="91.26" cy="63.24" r="0.41"/>
	<circle cx="96.45" cy="64.77" r="0.41"/>
	<circle cx="92.58" cy="67.21" r="0.41"/>
	<circle cx="92.89" cy="56.01" r="0.41"/>
	<circle cx="98.29" cy="56.72" r="0.41"/>
	<circle cx="94.82" cy="59.78" r="0.41"/>
	<circle cx="93.19" cy="48.78" r="0.41"/>
	<circle cx="98.69" cy="48.47" r="0.41"/>
	<circle cx="95.84" cy="52.14" r="0.41"/>
	<circle cx="92.38" cy="41.44" r="0.41"/>
	<circle cx="97.67" cy="40.32" r="0.41"/>
	<circle cx="95.43" cy="44.4" r="0.41"/>
	<circle cx="90.24" cy="34.41" r="0.41"/>
	<circle cx="95.33" cy="32.37" r="0.41"/>
	<circle cx="93.8" cy="36.75" r="0.41"/>
	<circle cx="87.08" cy="27.89" r="0.41"/>
	<circle cx="91.66" cy="25.04" r="0.41"/>
	<circle cx="90.95" cy="29.62" r="0.41"/>
	<circle cx="82.7" cy="21.98" r="0.41"/>
	<circle cx="86.88" cy="18.32" r="0.41"/>
	<circle cx="86.88" cy="23" r="0.41"/>
	<circle cx="77.5" cy="16.79" r="0.41"/>
	<circle cx="80.97" cy="12.61" r="0.41"/>
	<circle cx="81.68" cy="17.09" r="0.41"/>
	<circle cx="71.49" cy="12.71" r="0.41"/>
	<circle cx="74.14" cy="7.93" r="0.41"/>
	<circle cx="75.67" cy="12.31" r="0.41"/>
	<circle cx="64.77" cy="9.56" r="0.41"/>
	<circle cx="66.6" cy="4.46" r="0.41"/>
	<circle cx="68.95" cy="8.43" r="0.41"/>
	<circle cx="57.74" cy="7.72" r="0.41"/>
	<circle cx="58.66" cy="2.32" r="0.41"/>
	<circle cx="61.61" cy="5.89" r="0.41"/>
</g>
</svg>
