<?xml version="1.0" encoding="utf-8"?>
<!-- Generator: Adobe Illustrator 26.3.1, SVG Export Plug-In . SVG Version: 6.00 Build 0)  -->
<svg version="1.1" id="Layer_1" xmlns="http://www.w3.org/2000/svg" xmlns:xlink="http://www.w3.org/1999/xlink" x="0px" y="0px"
	 viewBox="0 0 100 16.6" enable-background="new 0 0 100 16.6" xml:space="preserve">
<g>
	<path opacity="0.6" d="M2.942,0.439c0.028,0,0.054,0.007,0.075,0.019c0.002,0.001,0.005,0.001,0.007,0.001
		c0.144,0.021,0.257,0.086,0.34,0.195c0.083,0.109,0.107,0.239,0.072,0.389v0.01C3.415,1.156,3.357,1.245,3.261,1.32
		C3.164,1.395,3.065,1.433,2.962,1.433c-0.007,0-0.018-0.002-0.031-0.006C2.917,1.424,2.907,1.422,2.9,1.422
		C2.884,1.418,2.863,1.415,2.836,1.414C2.349,1.43,1.955,1.563,1.653,1.812C1.337,2.078,1.179,2.42,1.179,2.837
		c0,0.273,0.089,0.516,0.268,0.727c0.172,0.198,0.439,0.369,0.804,0.512C2.443,4.158,2.646,4.22,2.859,4.261
		c0.062,0.013,0.122,0.027,0.18,0.041c0.059,0.013,0.107,0.024,0.144,0.03c0.038,0.007,0.06,0.01,0.067,0.01l0.547,0.123
		c1.539,0.431,2.308,1.212,2.308,2.347c0,0.464-0.123,0.881-0.371,1.25C5.487,8.431,5.143,8.718,4.703,8.923
		C4.257,9.128,3.745,9.23,3.168,9.23H3.106C3.079,9.223,3.038,9.22,2.983,9.22c-0.096,0-0.196-0.045-0.299-0.133
		C2.595,9.005,2.539,8.916,2.519,8.82V8.81c0-0.013-0.002-0.027-0.005-0.041C2.51,8.756,2.508,8.742,2.508,8.728
		c0-0.136,0.048-0.252,0.144-0.348c0.089-0.089,0.206-0.133,0.351-0.133h0.021c0.087,0,0.154,0.004,0.201,0.01
		C3.794,8.25,4.252,8.113,4.6,7.847c0.343-0.26,0.516-0.605,0.516-1.035c0-0.321-0.09-0.574-0.268-0.758
		C4.669,5.862,4.436,5.712,4.147,5.603C3.92,5.514,3.55,5.412,3.034,5.295c-0.845-0.185-1.529-0.454-2.051-0.81
		C0.461,4.131,0.2,3.588,0.2,2.857c0-0.464,0.113-0.881,0.34-1.25c0.227-0.369,0.546-0.656,0.959-0.861
		c0.356-0.177,0.764-0.277,1.224-0.301c0.024-0.004,0.049-0.006,0.075-0.006h0.021c0.009,0,0.02,0.001,0.032,0.001h0.004
		C2.883,0.439,2.912,0.439,2.942,0.439L2.942,0.439z"/>
	<path opacity="0.6" d="M4.91,1.187c0.144,0,0.261,0.051,0.351,0.154c0.034,0.034,0.079,0.085,0.134,0.153
		c0.089,0.11,0.124,0.236,0.103,0.379c-0.021,0.13-0.089,0.239-0.206,0.328l-0.01,0.01C5.205,2.259,5.116,2.283,5.013,2.283
		c-0.165,0-0.292-0.058-0.382-0.174C4.618,2.095,4.604,2.078,4.59,2.058C4.577,2.037,4.563,2.023,4.549,2.017
		C4.46,1.928,4.415,1.815,4.415,1.678c0-0.089,0.027-0.177,0.083-0.266v-0.01C4.587,1.259,4.724,1.187,4.91,1.187L4.91,1.187z"/>
	<path opacity="0.6" d="M0.767,7.242c0.144,0,0.261,0.051,0.35,0.154c0.069,0.069,0.117,0.12,0.144,0.154
		c0.083,0.103,0.113,0.226,0.093,0.369c-0.021,0.13-0.089,0.239-0.206,0.328l-0.01,0.01C1.049,8.312,0.96,8.339,0.87,8.339
		c-0.158,0-0.282-0.062-0.371-0.185C0.492,8.141,0.478,8.123,0.458,8.103C0.437,8.082,0.423,8.069,0.417,8.062
		C0.327,7.973,0.283,7.864,0.283,7.734c0-0.096,0.027-0.188,0.082-0.277C0.461,7.314,0.595,7.242,0.767,7.242L0.767,7.242z"/>
	<path opacity="0.6" d="M13.989,0.398c0.261,0,0.44,0.12,0.536,0.359l3.081,7.726c0.027,0.082,0.041,0.154,0.041,0.215
		c0,0.157-0.058,0.294-0.175,0.41c-0.117,0.116-0.254,0.174-0.412,0.174c-0.11,0-0.216-0.036-0.319-0.108
		c-0.103-0.072-0.175-0.159-0.216-0.261l-0.69-1.762l-0.474-1.189h0.01l-1.072-2.756c-0.096-0.246-0.201-0.37-0.314-0.374
		c-0.002,0-0.003,0-0.005,0c-0.112,0-0.215,0.121-0.31,0.364l-1.082,2.767l-0.443,1.127l-0.732,1.824
		c-0.041,0.102-0.113,0.188-0.216,0.256c-0.103,0.068-0.21,0.102-0.319,0.102c-0.158,0-0.294-0.056-0.407-0.169
		c-0.113-0.113-0.17-0.248-0.17-0.405c0-0.055,0.014-0.123,0.041-0.205l3.112-7.736C13.549,0.517,13.727,0.398,13.989,0.398
		L13.989,0.398z"/>
</g>
<g>
	<path d="M22.387,0.346h-0.031c-0.137,0-0.258,0.051-0.361,0.154c-0.103,0.102-0.155,0.222-0.155,0.359V8.81
		c0,0.137,0.052,0.256,0.155,0.359c0.103,0.102,0.223,0.154,0.361,0.154c0.138,0,0.258-0.051,0.361-0.154
		c0.103-0.102,0.155-0.222,0.155-0.359l0.021-7.951c0-0.137-0.05-0.256-0.149-0.359C22.643,0.398,22.525,0.346,22.387,0.346z"/>
	<path d="M28.055,0.346h-0.021c-0.137,0-0.258,0.051-0.361,0.154c-0.103,0.102-0.155,0.222-0.155,0.359v6.325l-2.67-3.84
		c-0.096-0.143-0.237-0.215-0.423-0.215c-0.11,0-0.209,0.031-0.299,0.092c-0.137,0.089-0.206,0.229-0.206,0.42
		c0,0.109,0.031,0.208,0.093,0.297l3.588,5.149c0.053,0.077,0.116,0.134,0.189,0.172c0.074,0.042,0.155,0.064,0.243,0.064
		c0.138,0,0.256-0.051,0.356-0.154c0.1-0.102,0.149-0.222,0.149-0.359l0.031-7.951c0-0.137-0.052-0.256-0.155-0.359
		C28.313,0.398,28.193,0.346,28.055,0.346z"/>
	<path d="M36.98,0.756c-0.096-0.239-0.275-0.359-0.536-0.359c-0.261,0-0.44,0.12-0.536,0.359l-3.112,7.736
		c-0.028,0.082-0.041,0.15-0.041,0.205c0,0.157,0.057,0.292,0.17,0.405c0.113,0.113,0.249,0.169,0.407,0.169
		c0.11,0,0.216-0.034,0.319-0.102c0.103-0.068,0.175-0.154,0.216-0.256l0.732-1.824l0.443-1.127l1.082-2.767
		c0.096-0.246,0.201-0.367,0.314-0.364c0.113,0.004,0.218,0.128,0.314,0.374l1.072,2.756h-0.01l0.474,1.189l0.69,1.762
		c0.041,0.102,0.113,0.19,0.216,0.261c0.103,0.072,0.21,0.108,0.319,0.108c0.158,0,0.295-0.058,0.412-0.174
		c0.117-0.116,0.175-0.253,0.175-0.41c0-0.061-0.014-0.133-0.041-0.215L36.98,0.756z"/>
	<path d="M50.778,1.525c0.192,0.137,0.316,0.225,0.371,0.266c0.11,0.096,0.239,0.137,0.386,0.123
		c0.148-0.014,0.27-0.075,0.366-0.184v-0.01c0.103-0.13,0.155-0.27,0.155-0.42V1.238c-0.021-0.171-0.096-0.311-0.227-0.42
		c-0.227-0.178-0.392-0.294-0.495-0.348c-0.096-0.055-0.185-0.082-0.268-0.082c-0.076,0-0.155,0.02-0.237,0.061
		c-0.199,0.096-0.309,0.26-0.33,0.492C50.479,1.2,50.572,1.395,50.778,1.525z"/>
	<path d="M51.67,7.145c-0.148-0.01-0.28,0.032-0.397,0.128c-0.673,0.54-1.45,0.809-2.329,0.809c-0.996,0-1.79-0.318-2.381-0.953
		c-0.591-0.635-0.886-1.486-0.886-2.551c0-0.519,0.075-0.994,0.227-1.424c0.055-0.157,0.06-0.313,0.015-0.466
		c-0.045-0.154-0.129-0.278-0.252-0.374c-0.103-0.082-0.227-0.123-0.371-0.123c-0.048,0-0.1,0.007-0.155,0.021
		c-0.213,0.055-0.361,0.181-0.443,0.379c-0.268,0.615-0.402,1.271-0.402,1.967c0,1.346,0.441,2.468,1.324,3.366
		c0.883,0.898,1.984,1.347,3.303,1.347c1.175,0,2.202-0.355,3.081-1.066c0.144-0.13,0.216-0.283,0.216-0.461
		c0-0.164-0.055-0.301-0.165-0.41C51.946,7.218,51.817,7.155,51.67,7.145z"/>
	<path d="M56.92,3.554c-0.254,0-0.402,0.019-0.443,0.056c-0.041,0.038-0.062,0.183-0.062,0.435v4.713c0,0.253,0.021,0.4,0.062,0.441
		c0.041,0.041,0.189,0.061,0.443,0.061c0.254,0,0.402-0.02,0.443-0.061c0.041-0.041,0.062-0.188,0.062-0.441V4.045
		c0-0.253-0.021-0.398-0.062-0.435C57.322,3.573,57.174,3.554,56.92,3.554z"/>
	<path d="M56.92,0.408c-0.254,0-0.402,0.021-0.443,0.061c-0.041,0.041-0.062,0.188-0.062,0.441v0.902
		c0,0.253,0.021,0.398,0.062,0.435c0.041,0.038,0.189,0.056,0.443,0.056c0.254,0,0.402-0.019,0.443-0.056
		c0.041-0.037,0.062-0.183,0.062-0.435V0.91c0-0.253-0.021-0.4-0.062-0.441C57.322,0.428,57.174,0.408,56.92,0.408z"/>
	<path d="M67.565,0.961c-0.694-0.403-1.45-0.605-2.267-0.605c-0.811,0-1.563,0.202-2.257,0.605
		c-0.687,0.396-1.233,0.939-1.639,1.629c-0.405,0.69-0.608,1.438-0.608,2.244c0,0.806,0.206,1.554,0.618,2.244
		c0.419,0.697,0.965,1.24,1.639,1.629c0.694,0.403,1.443,0.605,2.247,0.605c0.811,0,1.563-0.202,2.257-0.605
		c0.687-0.396,1.237-0.939,1.649-1.629c0.412-0.69,0.618-1.438,0.618-2.244c0-0.806-0.203-1.554-0.608-2.244
		C68.816,1.907,68.266,1.364,67.565,0.961z M68.328,6.576c-0.137,0.232-0.326,0.468-0.567,0.707
		c-0.241,0.239-0.478,0.427-0.711,0.564c-0.529,0.314-1.113,0.471-1.752,0.471h-0.01c-0.241,0-0.536-0.048-0.886-0.143
		c-0.357-0.096-0.636-0.205-0.835-0.328c-0.213-0.116-0.45-0.304-0.711-0.564c-0.241-0.239-0.429-0.475-0.567-0.707
		c-0.316-0.546-0.474-1.127-0.474-1.742c0-0.628,0.155-1.209,0.464-1.742c0.117-0.212,0.306-0.447,0.567-0.707
		c0.233-0.232,0.467-0.42,0.701-0.564c0.55-0.314,1.134-0.471,1.752-0.471c0.646,0,1.233,0.157,1.762,0.471
		c0.22,0.13,0.453,0.318,0.701,0.564c0.24,0.239,0.429,0.475,0.567,0.707c0.316,0.547,0.474,1.127,0.474,1.742
		C68.802,5.449,68.644,6.03,68.328,6.576z"/>
	<path d="M74.171,0.582c-0.053-0.077-0.116-0.134-0.189-0.172c-0.074-0.042-0.155-0.064-0.243-0.064
		c-0.138,0-0.256,0.051-0.356,0.154c-0.1,0.102-0.149,0.222-0.149,0.359L73.202,8.81c0,0.137,0.052,0.256,0.155,0.359
		c0.103,0.102,0.223,0.154,0.361,0.154h0.021c0.137,0,0.258-0.051,0.361-0.154c0.103-0.102,0.155-0.222,0.155-0.359V2.589
		l2.749,4.263c0.096,0.143,0.237,0.215,0.423,0.215c0.11,0,0.209-0.031,0.299-0.092c0.137-0.089,0.206-0.229,0.206-0.42
		c0-0.109-0.031-0.208-0.093-0.297L74.171,0.582z"/>
	<path d="M79.416,0.346c-0.138,0-0.258,0.051-0.361,0.154c-0.103,0.102-0.155,0.222-0.155,0.359L78.88,8.81
		c0,0.137,0.05,0.256,0.149,0.359c0.1,0.102,0.218,0.154,0.356,0.154h0.031c0.137,0,0.258-0.051,0.361-0.154
		c0.103-0.102,0.155-0.222,0.155-0.359V0.859c0-0.137-0.052-0.256-0.155-0.359C79.674,0.398,79.554,0.346,79.416,0.346z"/>
	<path d="M89.196,8.287h-1.35c-0.247,0-0.392,0.02-0.433,0.061c-0.041,0.041-0.062,0.184-0.062,0.43c0,0.246,0.021,0.389,0.062,0.43
		c0.041,0.041,0.185,0.061,0.433,0.061h1.35c0.247,0,0.393-0.02,0.438-0.061c0.045-0.041,0.067-0.184,0.067-0.43
		c0-0.246-0.022-0.389-0.067-0.43C89.589,8.308,89.443,8.287,89.196,8.287z"/>
	<path d="M89.196,0.398h-1.35c-0.247,0-0.392,0.02-0.433,0.061c-0.041,0.041-0.062,0.184-0.062,0.43s0.021,0.389,0.062,0.43
		c0.041,0.041,0.185,0.061,0.433,0.061h1.35c0.247,0,0.393-0.021,0.438-0.061c0.045-0.041,0.067-0.184,0.067-0.43
		s-0.022-0.389-0.067-0.43C89.589,0.418,89.443,0.398,89.196,0.398z"/>
	<path d="M88.65,5.07c0.096-0.096,0.144-0.212,0.144-0.348v-0.01c0-0.137-0.05-0.251-0.149-0.343
		c-0.1-0.092-0.218-0.138-0.356-0.138H85.28V1.381v-0.41c0-0.157-0.058-0.292-0.175-0.405c-0.117-0.113-0.254-0.169-0.412-0.169
		c-0.158,0-0.294,0.056-0.407,0.169c-0.113,0.113-0.17,0.248-0.17,0.405v7.726c0,0.157,0.057,0.292,0.17,0.405
		c0.113,0.113,0.249,0.169,0.407,0.169c0.158,0,0.295-0.056,0.412-0.169c0.117-0.113,0.175-0.248,0.175-0.405v-0.41V5.214h3.019
		C88.437,5.214,88.553,5.166,88.65,5.07z"/>
	<path d="M98.285,2.058c0.014,0.02,0.027,0.038,0.041,0.051c0.089,0.116,0.216,0.174,0.381,0.174c0.103,0,0.192-0.024,0.268-0.072
		l0.01-0.01c0.117-0.089,0.185-0.198,0.206-0.328c0.021-0.143-0.014-0.27-0.103-0.379c-0.055-0.068-0.1-0.119-0.134-0.154
		c-0.089-0.102-0.206-0.154-0.35-0.154c-0.185,0-0.323,0.072-0.412,0.215v0.01C98.137,1.501,98.11,1.59,98.11,1.679
		c0,0.137,0.045,0.249,0.134,0.338C98.258,2.024,98.271,2.037,98.285,2.058z"/>
	<path d="M94.812,7.396c-0.089-0.102-0.206-0.154-0.35-0.154c-0.172,0-0.306,0.072-0.402,0.215
		c-0.055,0.089-0.082,0.181-0.082,0.277c0,0.13,0.045,0.239,0.134,0.328c0.007,0.007,0.021,0.02,0.041,0.041
		c0.021,0.021,0.034,0.038,0.041,0.051c0.089,0.123,0.213,0.184,0.371,0.184c0.089,0,0.179-0.027,0.268-0.082l0.01-0.01
		c0.117-0.089,0.186-0.198,0.206-0.328c0.021-0.143-0.01-0.266-0.093-0.369C94.929,7.516,94.881,7.464,94.812,7.396z"/>
	<path d="M97.492,4.466l-0.546-0.123c-0.007,0-0.029-0.003-0.067-0.01c-0.038-0.007-0.086-0.017-0.144-0.031
		c-0.058-0.014-0.118-0.027-0.18-0.041c-0.213-0.041-0.416-0.102-0.608-0.184c-0.364-0.143-0.632-0.314-0.804-0.512
		c-0.179-0.212-0.268-0.454-0.268-0.727c0-0.417,0.158-0.758,0.474-1.025c0.301-0.249,0.696-0.381,1.183-0.398
		c0.026,0.002,0.048,0.004,0.064,0.008c0.007,0,0.017,0.002,0.031,0.005c0.014,0.004,0.024,0.005,0.031,0.005
		c0.103,0,0.203-0.037,0.299-0.113c0.096-0.075,0.155-0.164,0.175-0.266v-0.01c0.034-0.15,0.01-0.28-0.072-0.389
		c-0.082-0.109-0.196-0.174-0.34-0.195c-0.003,0-0.005-0.001-0.008-0.001c-0.022-0.013-0.046-0.019-0.074-0.019
		c-0.027,0-0.053,0.001-0.08,0.002c-0.017-0.001-0.031-0.002-0.043-0.002h-0.021c-0.025,0-0.049,0.002-0.073,0.006
		c-0.46,0.024-0.868,0.124-1.225,0.302c-0.412,0.205-0.732,0.492-0.958,0.861c-0.227,0.369-0.34,0.786-0.34,1.25
		c0,0.731,0.261,1.274,0.783,1.629c0.522,0.355,1.206,0.625,2.051,0.809c0.515,0.116,0.886,0.219,1.113,0.307
		c0.289,0.109,0.522,0.26,0.701,0.451c0.179,0.184,0.268,0.437,0.268,0.758c0,0.43-0.172,0.775-0.515,1.035
		c-0.348,0.266-0.807,0.402-1.377,0.409c-0.048-0.006-0.114-0.01-0.2-0.01h-0.021c-0.144,0-0.261,0.045-0.35,0.133
		c-0.096,0.096-0.144,0.212-0.144,0.348c0,0.014,0.002,0.027,0.005,0.041c0.003,0.014,0.005,0.027,0.005,0.041v0.01
		c0.021,0.096,0.076,0.184,0.165,0.266c0.103,0.089,0.203,0.133,0.299,0.133c0.055,0,0.096,0.003,0.124,0.01h0.062
		c0.577,0,1.089-0.102,1.535-0.307c0.44-0.205,0.783-0.492,1.031-0.861c0.247-0.369,0.371-0.785,0.371-1.25
		C99.8,5.678,99.03,4.896,97.492,4.466z"/>
	<path d="M15.59,13.396v0.507c-0.248-0.207-0.504-0.311-0.768-0.311c-0.292,0-0.537,0.105-0.737,0.314
		c-0.201,0.208-0.301,0.463-0.301,0.765c0,0.298,0.1,0.549,0.301,0.754c0.201,0.205,0.447,0.307,0.739,0.307
		c0.151,0,0.279-0.025,0.384-0.074c0.059-0.025,0.12-0.058,0.183-0.099c0.063-0.042,0.13-0.092,0.199-0.151v0.516
		c-0.245,0.138-0.502,0.208-0.772,0.208c-0.406,0-0.752-0.142-1.038-0.425c-0.286-0.285-0.428-0.63-0.428-1.033
		c0-0.361,0.119-0.684,0.358-0.967c0.294-0.347,0.675-0.52,1.141-0.52C15.106,13.188,15.352,13.257,15.59,13.396z"/>
	<path d="M18.994,15.392H17.78l-0.316,0.689h-0.461l1.404-3.016l1.355,3.016h-0.469L18.994,15.392z M18.82,14.989l-0.421-0.965
		l-0.441,0.965H18.82z"/>
	<path d="M21.145,16.081l0.597-3.051l0.974,2.205l1.009-2.205l0.537,3.051h-0.439l-0.274-1.713l-0.84,1.843l-0.816-1.845
		l-0.305,1.715H21.145z"/>
	<path d="M26.421,13.243v2.838h-0.428v-2.838H26.421z"/>
	<path d="M28.232,16.081V13.05l2.069,2.165v-1.972h0.428v3.01l-2.069-2.16v1.987H28.232z"/>
	<path d="M32.423,14.649c0-0.399,0.146-0.743,0.439-1.029c0.292-0.287,0.642-0.43,1.051-0.43c0.404,0,0.751,0.145,1.04,0.434
		c0.29,0.289,0.436,0.637,0.436,1.042c0,0.408-0.146,0.754-0.437,1.038c-0.293,0.285-0.646,0.428-1.06,0.428
		c-0.366,0-0.695-0.127-0.987-0.38C32.584,15.471,32.423,15.104,32.423,14.649z M32.855,14.655c0,0.314,0.105,0.572,0.316,0.774
		c0.21,0.202,0.451,0.303,0.726,0.303c0.298,0,0.549-0.103,0.754-0.309c0.205-0.208,0.307-0.462,0.307-0.761
		c0-0.303-0.101-0.556-0.303-0.761c-0.201-0.206-0.45-0.309-0.746-0.309c-0.295,0-0.545,0.103-0.748,0.309
		C32.957,14.104,32.855,14.356,32.855,14.655z"/>
	<path d="M38.662,13.666l-0.347,0.206c-0.065-0.113-0.127-0.186-0.186-0.221c-0.061-0.039-0.14-0.059-0.237-0.059
		c-0.119,0-0.217,0.034-0.296,0.101c-0.078,0.066-0.118,0.15-0.118,0.25c0,0.138,0.103,0.25,0.309,0.334l0.283,0.116
		c0.23,0.093,0.399,0.207,0.505,0.341c0.107,0.134,0.16,0.299,0.16,0.493c0,0.261-0.087,0.477-0.261,0.647
		c-0.175,0.172-0.393,0.257-0.652,0.257c-0.246,0-0.45-0.073-0.61-0.219c-0.158-0.146-0.257-0.351-0.296-0.616l0.434-0.096
		c0.02,0.167,0.054,0.282,0.103,0.346c0.088,0.123,0.217,0.184,0.386,0.184c0.134,0,0.244-0.045,0.333-0.134
		c0.088-0.089,0.132-0.203,0.132-0.34c0-0.055-0.008-0.106-0.023-0.152c-0.015-0.046-0.039-0.088-0.072-0.127
		c-0.032-0.039-0.074-0.075-0.126-0.108c-0.051-0.034-0.113-0.066-0.184-0.096l-0.274-0.114c-0.388-0.164-0.583-0.404-0.583-0.72
		c0-0.213,0.081-0.391,0.244-0.535c0.163-0.145,0.366-0.217,0.608-0.217C38.222,13.188,38.478,13.347,38.662,13.666z"/>
	<path d="M42.671,16.081v-2.838h0.595c0.285,0,0.511,0.028,0.676,0.085c0.178,0.055,0.339,0.149,0.483,0.281
		c0.293,0.267,0.439,0.618,0.439,1.053c0,0.436-0.153,0.789-0.458,1.059c-0.153,0.135-0.314,0.229-0.482,0.281
		c-0.157,0.053-0.379,0.079-0.667,0.079H42.671z M43.1,15.678h0.193c0.192,0,0.352-0.02,0.48-0.061
		c0.127-0.043,0.243-0.111,0.346-0.204c0.211-0.192,0.316-0.443,0.316-0.752c0-0.311-0.104-0.564-0.312-0.757
		c-0.187-0.173-0.464-0.259-0.829-0.259H43.1V15.678z"/>
	<path d="M48.099,13.646h-1.138v0.682h1.105v0.403h-1.105v0.948h1.138v0.403h-1.566v-2.838h1.566V13.646z"/>
	<path d="M53.043,14.871l0.879,1.209h-0.524l-0.811-1.162H52.51v1.162h-0.428v-2.838h0.502c0.375,0,0.646,0.07,0.812,0.211
		c0.184,0.157,0.276,0.364,0.276,0.621c0,0.201-0.058,0.374-0.173,0.518C53.384,14.739,53.232,14.831,53.043,14.871z M52.51,14.546
		h0.136c0.406,0,0.608-0.155,0.608-0.465c0-0.29-0.197-0.436-0.592-0.436H52.51V14.546z"/>
	<path d="M57.043,13.646h-1.138v0.682h1.105v0.403h-1.105v0.948h1.138v0.403h-1.566v-2.838h1.566V13.646z"/>
	<path d="M60.339,13.666l-0.347,0.206c-0.065-0.113-0.127-0.186-0.186-0.221c-0.061-0.039-0.14-0.059-0.237-0.059
		c-0.119,0-0.217,0.034-0.296,0.101c-0.078,0.066-0.118,0.15-0.118,0.25c0,0.138,0.103,0.25,0.309,0.334l0.283,0.116
		c0.23,0.093,0.399,0.207,0.505,0.341c0.107,0.134,0.16,0.299,0.16,0.493c0,0.261-0.087,0.477-0.261,0.647
		c-0.175,0.172-0.393,0.257-0.652,0.257c-0.246,0-0.45-0.073-0.61-0.219c-0.158-0.146-0.257-0.351-0.296-0.616l0.434-0.096
		c0.02,0.167,0.054,0.282,0.103,0.346c0.088,0.123,0.217,0.184,0.386,0.184c0.134,0,0.244-0.045,0.333-0.134
		c0.088-0.089,0.132-0.203,0.132-0.34c0-0.055-0.008-0.106-0.023-0.152c-0.015-0.046-0.039-0.088-0.072-0.127
		c-0.032-0.039-0.074-0.075-0.126-0.108c-0.051-0.034-0.113-0.066-0.184-0.096l-0.274-0.114c-0.388-0.164-0.583-0.404-0.583-0.72
		c0-0.213,0.081-0.391,0.244-0.535c0.163-0.145,0.366-0.217,0.608-0.217C59.9,13.188,60.155,13.347,60.339,13.666z"/>
	<path d="M62.486,13.243v2.838h-0.428v-2.838H62.486z"/>
	<path d="M65.902,13.666l-0.347,0.206c-0.065-0.113-0.127-0.186-0.186-0.221c-0.061-0.039-0.14-0.059-0.237-0.059
		c-0.119,0-0.217,0.034-0.296,0.101c-0.078,0.066-0.118,0.15-0.118,0.25c0,0.138,0.103,0.25,0.309,0.334l0.283,0.116
		c0.23,0.093,0.399,0.207,0.505,0.341c0.107,0.134,0.16,0.299,0.16,0.493c0,0.261-0.087,0.477-0.261,0.647
		c-0.175,0.172-0.393,0.257-0.652,0.257c-0.246,0-0.45-0.073-0.61-0.219c-0.158-0.146-0.257-0.351-0.296-0.616l0.434-0.096
		c0.02,0.167,0.054,0.282,0.103,0.346c0.088,0.123,0.217,0.184,0.386,0.184c0.134,0,0.244-0.045,0.333-0.134
		c0.088-0.089,0.132-0.203,0.132-0.34c0-0.055-0.008-0.106-0.023-0.152c-0.015-0.046-0.039-0.088-0.072-0.127
		c-0.032-0.039-0.074-0.075-0.126-0.108c-0.051-0.034-0.113-0.066-0.184-0.096l-0.274-0.114c-0.388-0.164-0.583-0.404-0.583-0.72
		c0-0.213,0.081-0.391,0.244-0.535c0.163-0.145,0.366-0.217,0.608-0.217C65.463,13.188,65.718,13.347,65.902,13.666z"/>
	<path d="M68.457,13.646v2.435h-0.428v-2.435h-0.652v-0.403h1.731v0.403H68.457z"/>
	<path d="M72.185,13.646h-1.138v0.682h1.105v0.403h-1.105v0.948h1.138v0.403h-1.566v-2.838h1.566V13.646z"/>
	<path d="M73.877,16.081V13.05l2.069,2.165v-1.972h0.428v3.01l-2.069-2.16v1.987H73.877z"/>
	<path d="M80.306,13.396v0.507c-0.248-0.207-0.504-0.311-0.768-0.311c-0.292,0-0.537,0.105-0.737,0.314
		C78.6,14.115,78.5,14.37,78.5,14.671c0,0.298,0.1,0.549,0.301,0.754c0.201,0.205,0.447,0.307,0.739,0.307
		c0.151,0,0.279-0.025,0.384-0.074c0.059-0.025,0.12-0.058,0.183-0.099c0.063-0.042,0.13-0.092,0.199-0.151v0.516
		c-0.245,0.138-0.502,0.208-0.772,0.208c-0.406,0-0.752-0.142-1.038-0.425c-0.285-0.285-0.428-0.63-0.428-1.033
		c0-0.361,0.119-0.684,0.358-0.967c0.294-0.347,0.675-0.52,1.141-0.52C79.822,13.188,80.069,13.257,80.306,13.396z"/>
	<path d="M82.404,13.243v2.838h-0.428v-2.838H82.404z"/>
	<path d="M85.882,15.392h-1.215l-0.316,0.689H83.89l1.404-3.016l1.355,3.016H86.18L85.882,15.392z M85.708,14.989l-0.421-0.965
		l-0.441,0.965H85.708z"/>
</g>
</svg>
