<?xml version="1.0" encoding="utf-8"?>
<!-- Generator: Adobe Illustrator 23.0.6, SVG Export Plug-In . SVG Version: 6.00 Build 0)  -->
<svg version="1.1" id="Layer_1" xmlns="http://www.w3.org/2000/svg" xmlns:xlink="http://www.w3.org/1999/xlink" x="0px" y="0px"
	 viewBox="0 0 1602.2 1602.2" enable-background="new 0 0 1602.2 1602.2" xml:space="preserve">
<g>
	<path fill="none" stroke="#020203" stroke-width="0.6" stroke-miterlimit="10" d="M322.56,0c7.08,18.11,21.16,40.92,48.94,54.3
		c51.3,24.7,108.2,55.9,133,89c24.8,33,15.6,43.1,85.3,48.6s129.3,4.6,165.1-30.3c35.8-34.9,52.3-89,112.8-100.9s67-23.8,45.9-28.4
		S796.2,8.5,765,31.4s-112.8,57.8-162.3,7.3C585.26,20.94,575.55,8.87,570.5,0"/>
	<path fill="none" stroke="#020203" stroke-width="0.6" stroke-miterlimit="10" d="M611,0c0,0,56.9,25.9,87.1,21.4S752.2,0,752.2,0"
		/>
	<path fill="none" stroke="#020203" stroke-width="0.6" stroke-miterlimit="10" d="M260.6,0c0,0,0,102.1,99.1,132.3
		s122,73.4,146.8,90.8s52.3,44,175.2,33.9s139.9-76.6,184.6-87.6c44.7-11,103.2-15.8,135.5-19.3c32.3-3.4,96.3-40.6,207.7-31
		s178.2,56.4,239.4,66.7c61.2,10.3,98.4,26,139.6,54.3c5.15,3.54,9.69,7.14,13.69,10.73"/>
	<path fill="none" stroke="#020203" stroke-width="0.6" stroke-miterlimit="10" d="M1319.74-1c4.99,10.75,17.71,26.4,48.66,46
		c61.9,39.2,95.6,90.8,118.3,110.1c22.7,19.3,68.7,44.7,115.5,32.3"/>
	<path fill="none" stroke="#020203" stroke-width="0.6" stroke-miterlimit="10" d="M1399.69,0c17.7,15.84,43.04,39.79,59.51,60.8
		c27.5,35.1,40.6,71.5,75.7,75.7c28.04,3.28,50.34,5.27,67.3-4.56"/>
	<path fill="none" stroke="#020203" stroke-width="0.6" stroke-miterlimit="10" d="M1450.11,0c12.32,7.87,32.12,21.83,43.39,36.7
		c17.2,22.7,18.6,52,75.7,44.6c13.48-1.75,24.28-3.81,32.9-5.95"/>
	<path fill="none" stroke="#020203" stroke-width="0.6" stroke-miterlimit="10" d="M504.74,1603.35
		c0.05-11.22-0.54-22.45-2.44-30.55c-5.5-23.4-5.5-89.4,27.5-99.1c33-9.6,72.9-48.2,145.8-88.1s88.1-86.7,93.6-110.1
		s13.8-75.7,48.2-57.8c34.4,17.9,145.8,99.1,173.4,63.3c27.5-35.8,37.1-70.2,0-103.2s-104.6-81.2-104.6-189.9s13.8-90.8-11-97.7
		s-76.5,27.5-74-27.5s-22.3-150-49.8-172s-78.4-26.1-133.5,5.5s-45.4,24.8-63.3-4.1c-17.9-28.9-92.2-276.5-64.7-276.5
		s45.4,8.3,78.4,23.4s105.9,49.5,144.5,46.8s49.8,0,62.8,28.9c12.9,28.9,41.8,112.8,95.5,111.4s135.5-4.1,175.4-27.5
		s53.7-33,105.9-0.7c52.3,32.3,100.4,51.6,119.7,22c19.3-29.6-4.1-123.1,29.6-125.9s227.5-18.8,242.1,42.6s39.4,135.7,9.2,174.3
		c-30.3,38.5-31.2,144-57.8,187.1s-22,71.5-55,98.1s-68.8,78-81.6,106.4c-12.8,28.4-55.9,66-37.6,100.9s76.1,44.9,62.4,78
		c-13.8,33-47.7,59.6-8.3,81.6c39.4,22,53.2,2.8,76.1,45.9s35.8,55,53.2,63.3s25.7,24.8,10.1,41.3
		c-12.39,13.11-48.51,59.78-72.96,89.9"/>
	<path fill="none" stroke="#020203" stroke-width="0.6" stroke-miterlimit="10" d="M778.86,1603.35
		c-5.15-11.61-13.19-23.92-25.76-33.75c-33.9-26.6-46.8-37.6-12.8-66c33.9-28.4,52.3-89,75.2-91.7c22.9-2.8,25.7-0.9,51.4,12.8
		s15.6,41.3,90.8,27.5s73.4,11,84.4,32.1s2.8,60.5,38.5,50.4c35.8-10.1,62.4-43.1,65.1-85.3s29.4-78.9,50.4-87.1
		c21.1-8.3,28.4,8.3,42.2,35.8s23.8,52.3,55,78.9c23.33,19.89,31.28,78.74,19.23,126.35"/>
	<path fill="none" stroke="#020203" stroke-width="0.6" stroke-miterlimit="10" d="M878.71,1603.4
		c9.59-27.41,23.32-54.33,40.39-60.5c35.8-12.8,69.1-0.9,100.1,46.8"/>
	<path fill="none" stroke="#020203" stroke-width="0.6" stroke-miterlimit="10" d="M1149.04,1603.35
		c13.53-16.23,40.01-44.66,60.86-46.65c27.47-2.62,50.98,8.55,36.43,46.21"/>
	<path fill="none" stroke="#020203" stroke-width="0.6" stroke-miterlimit="10" d="M1239.7,734.9c0,0,24.8,33,53.7,27.5
		c28.9-5.5,63.3-21.3,73.6-60.5c10.3-39.2,21.3-80.5,45.4-79.1s32.3,11.7,38.5,38.5s2.8,91.5,8.9,108.7s24.1,81.2,6.2,109.4
		s-163.7,180.2-180.9,195.4c-17.2,15.1-26.8,37.8-97.7,37.1c-70.9-0.7-125.9-30.3-141-69.5S979,852.6,957,831.2
		c-22-21.3-73.6-76.4-35.1-109.4S1140.7,663.4,1239.7,734.9z"/>
	<path fill="none" stroke="#020203" stroke-width="0.6" stroke-miterlimit="10" d="M992.8,784.4c0,0,30.3,22.1,48.8,83
		s19.2,204.5,161.7,194.3s200-152.7,235.3-184.4c35.2-31.7,10.3-137.6-41.3-133.5c-51.6,4.1,0,28.9-110.8,27.5
		s-156.8-15.8-222.2-34.4C1064.3,737,939.1,714.1,992.8,784.4z"/>
	<path fill="none" stroke="#020203" stroke-width="0.6" stroke-miterlimit="10" d="M1174.4,971.6c0,0-67.4-109.4,16.5-137.6
		c83.9-28.2,120.4-9.6,160.3-15.8s82.5,9.6,60.5,49.2c-22,39.6-108.7,137.9-150.6,140C1219.1,1009.4,1181.3,992.9,1174.4,971.6z"/>
	<path fill="none" stroke="#020203" stroke-width="0.6" stroke-miterlimit="10" d="M1338.1,850.5c0,0-145.1-35.1-147.2,42
		s48.8,109.4,88,83.9s107.3-73.6,96.3-99.1C1364.2,851.9,1350.3,853,1338.1,850.5z"/>
	<path fill="none" stroke="#020203" stroke-width="0.6" stroke-miterlimit="10" d="M1261,871.1c0,0-45.4-3.5-36.5,42.6
		s31.5,48.2,49.1,37.2s53.4-28.5,47.2-53.1C1314.7,873.2,1261,871.1,1261,871.1z"/>
	<path fill="none" stroke="#020203" stroke-width="0.6" stroke-miterlimit="10" d="M669.7,608.4c0,0,56.9-13.8,8.3-45.9
		s-94.5-27.5-78.9,0S622,617.5,669.7,608.4z"/>
	<path fill="none" stroke="#020203" stroke-width="0.6" stroke-miterlimit="10" d="M1176.9,1290.8c0,0-50.4-22.9-15.6-40.4
		s84.4-9.2,73.4,34.9S1182.4,1293.6,1176.9,1290.8z"/>
	<path fill="none" stroke="#020203" stroke-width="0.6" stroke-miterlimit="10" d="M1600,1427.4c0,0-92.9-144-88.3-177
		s1.8-45.9-14.7-57.8s-26.6-36.7-6.4-88.1s87.1-64.2,90.8-124.7c3.46-56.53-1.12-79.45,20.7-90.45"/>
	<path fill="none" stroke="#020203" stroke-width="0.6" stroke-miterlimit="10" d="M1600,1297.2c0,0-11.3-62.4-27.8-83.5
		s-36.7-53.2-16.5-91.7c18.99-36.19,21.72-39.16,46.4-47.77"/>
	<path fill="none" stroke="#020203" stroke-width="0.6" stroke-miterlimit="10" d="M353.7,1603.4c0,0,55.6-54.8,53.9-100.5
		s-3-65.4,36.9-75.5s74.3-36.2,75.7-73.4s-22-156.8,17.9-144.5c39.9,12.4,66,56.4,99.1,32.3c33-24.1,26.1-88.7,96.3-121.7
		s-37.1-108.7-44-152.7s0-121.2-57.8-96.4s-88.1,115.6-122.4,59.2c-34.4-56.4-33-156.8-97.7-233.9s-50.9-154.1-57.8-199.5
		s-72.9-166.5-114.2-196.1s-35.8-39.4-24.8-60.6s17.9-62.5,56.4-39.1s92.2,39.7,118.3,39.1s90.8,42.1,130.7,83.3
		s143.1,38.5,183,30.3c39.9-8.3,144.5-17.9,165.1,30.3s46.2,136.2,111.1,122.4c65-13.8,92.5-30.3,146.1-28.9
		c53.7,1.4,53.7-23.4,65.4-42.6c11.7-19.3,117.1-136.7,151.1-125.7s11.9,33.9,108.2,36.7c96.3,2.8,99.4-3.7,152,60.5"/>
	<path fill="none" stroke="#020203" stroke-width="0.6" stroke-miterlimit="10" d="M241.65,1603.35
		c9.67-24.62,27.58-68.2,39.15-84.25c16.5-22.9,24.8-35.8,8.3-87.1s22.9-88.1,83.5-102.7s63.3-42.2,55-80.7s-51.4-82.5-7.3-100.9
		s78.9-44.9,118.3-44s62.4-18.3,44.9-47.7s-61.5,2.4-92.6-21.3c-31.2-23.7-61.5-72.3-110.1-91.5c-48.6-19.3-90.8-25.7-98.1-91.7
		s35.8-102.9-22-118s-76.1-3.1-81.6-90.2S186,433,155,398.6S85.5,303,97.2,272.7s24.1-28.2,28.9-61.9
		c4.8-33.7,60.2-200.3,88.7-178.8s40.4,61.8,54.6,71.9c14.2,10.1,58.7,56.9,85.8,61.5c27.1,4.6,83.3,15.1,124.4,54.6
		s78.3,70.6,172.3,68.8c94-1.8,153.6-27.5,177.9-42.2c24.3-14.7,39.4-15.8,72.9-6.3s50.9,28.3,66.7-14.4
		c15.8-42.6,186.4-77,247.9-47.7c61.5,29.4,39.4-35.8,139.4,20.2s219.6,55,245.5,119.2"/>
	<path fill="none" stroke="#020203" stroke-width="0.6" stroke-miterlimit="10" d="M0,1177.01c4.14,2.73,7.96,7.01,11.2,13.29
		c22,42.6,20.6,42.6,48.2,60.5s37.1,17.9,44,63.3s52.3,41.3,53.7,94.9c1.4,53.7,18.8,100.9-50.9,190.3"/>
	<path fill="none" stroke="#020203" stroke-width="0.6" stroke-miterlimit="10" d="M0,1239.38c6.43,3.41,13.63,7.35,19.4,10.82
		c13.8,8.3,29.6,15.1,38.5,50.2s12.2,50.9,37.1,77s48.2,63.3,44.8,103.9s-45.8,81.2-77.9,92.2c-16.91,5.78-41.43,7.58-61.9,13.77"/>
	<path fill="none" stroke="#020203" stroke-width="0.6" stroke-miterlimit="10" d="M0,1271.87c9.45,7,21.33,18.58,25.6,34.63
		c7.6,28.2,13.1,46.8,32.3,69.5c19.3,22.7,54.3,51.6,55.7,84.6c1.4,33-9.6,55.7-50.2,72.9c-21.07,8.93-44.34,10.98-63.4,13.6"/>
	<path fill="none" stroke="#020203" stroke-width="0.6" stroke-miterlimit="10" d="M0,1145.34c13.45-0.11,31.61,3.95,46.3,22.36
		c26.8,33.7,43.3,64,79.1,83.2s20.6,51.6,28.9,66s34.4,38.5,31.6,90.8c-2.72,50.84-0.15,126.35-20.22,195.65"/>
	<path fill="none" stroke="#020203" stroke-width="0.6" stroke-miterlimit="10" d="M0,804.37c8.69,9.95,17.34,22.29,21.2,35.13
		c9.1,30.3,21.1,65.1,47.7,74.3s76.1,23.6,48.6-46.4S44.2,709.3,44.2,679.9c0-18.04-23.5-73.71-44.2-119.52"/>
	<path fill="none" stroke="#020203" stroke-width="0.6" stroke-miterlimit="10" d="M0,951.64c6.46,3.75,13.1,7.33,19.4,10.26
		c26.6,12.4,41.1,43.6,28.8,58.3s-66.4,54.1-30.6,78.9c35.8,24.8,73.1,38.5,96.2,79.8s76.2,50.4,78.1,72.5s38.5,129.7,68.8,80
		s74.3-51.6,80.7-63.5s23.4-22.9-4.8-57.8c-28.2-34.9-33.7-86.2,7.5-103.6s112.8-27.5,77-69.7c-35.8-42.2-121.1-83.5-171.5-133.9
		s-25.7-85.3-85.3-156.8S130.4,572,101.9,540.3s-67-32.6-62.4-133.5S6.4,289.2,48.2,254.3s41.8-25.7,51-66
		c8.43-36.93,62.28-143.29,69.78-188.3"/>
	<path fill="none" stroke="#020203" stroke-width="0.6" stroke-miterlimit="10" d="M0,236.41c20.95-9.53,46.88-24.38,55.2-42.21
		C66.04,170.98,111.76,69.68,136.49,0"/>
	<path fill="none" stroke="#020203" stroke-width="0.6" stroke-miterlimit="10" d="M0,193.03c8.99-3.69,21.72-13.56,35.9-38.63
		C53.47,123.36,84.37,50.78,104.93,0"/>
	<path fill="none" stroke="#020203" stroke-width="0.6" stroke-miterlimit="10" d="M0,145.85c7.67-7.63,16.05-18.98,22.2-35.45
		C31.15,86.41,49.26,38.54,62.06,0"/>
</g>
<g>
	<path fill="none" stroke="#020203" stroke-width="2" stroke-linecap="round" stroke-linejoin="round" stroke-miterlimit="10" d="
		M287.64,0c1.01,11.29,3.25,23.26,7.76,33.3c12.8,28.4,56.9,55,78,67s68.8,27.5,127.5,77s162.3,95.4,255,32.1s50.4-91.7,150.4-99.1
		c100-7.3,192.6-53.2,259.6-49.5c67,3.7,110.1,2.8,95.4-25.7c-9.19-17.81-34.82-26.6-52.09-34.96"/>
	<path fill="none" stroke="#020203" stroke-width="2" stroke-linecap="round" stroke-linejoin="round" stroke-miterlimit="10" d="
		M369.21,0c14.39,12.55,43.75,34.77,78.59,42.5c49.6,11,63.3,49.5,78,46.8c14.7-2.8,21.1-31.2,14.7-69.7
		c-1.33-7.77-2.43-14.23-3.33-19.6"/>
	<path fill="none" stroke="#020203" stroke-width="2" stroke-linecap="round" stroke-linejoin="round" stroke-miterlimit="10" d="
		M437.2,1603.35c4.28-12.37,7.95-28.21,10.1-48.45c8.3-78.4,19.3-90.8,86.7-134.8s143.1-107.3,161-144.5
		c17.9-37.1,15.1-103.2,72.9-111.4s97.7,16.5,94.9-27.5S835.3,981.2,794,971.6s-55,14.2-53.7-64.7S721,758.2,683.7,742
		s-77.7,67.3-103.6,88.4c-26,21.1-45.6,23.8-57.5-9.2c-11.9-33,8.6-78.9-33.6-116.9c-42.2-38.1-42.2-47.2-40.8-109.6
		s-3.2-95.4-30.7-133.9s-98.1-141.2-77-167.8s85.6-19.3,139.1,39.4s111.3,76.1,160.8,76.1s165.1-7.3,183.4,16.5
		c18.3,23.8,9.4,127.5,39.1,137.6s107.6,29.4,155.3-9.2c47.7-38.5,103.2-13.8,137.6-9.6s50.9,23.4,74.3-23.4
		c23.4-46.8,23.4-116.9,116.9-100.4c93.6,16.5,124.5,12.4,149.6,6.9s59.4,15.1,105.5,53.7"/>
	<path fill="none" stroke="#020203" stroke-width="2" stroke-linecap="round" stroke-linejoin="round" stroke-miterlimit="10" d="
		M635.21,1603.4c-4.98-4.74-11.79-9.43-21.41-13.6c-33.9-14.7-67.9-31.2-55.9-67c11.9-35.8,22.9-47.7,78-60.5
		c55-12.8,66-14.7,89.9-42.2c23.8-27.5,99.1-115.6,146.8-78.9s50.4,44,81.6,44c31.2,0,71.5-2.8,101.8,6.4c30.3,9.2,30.7-8.3,33-37.1
		s-20.2-74.3-13.3-108.2c6.9-33.9,14.9-49.8-7.1-80c-22-30.3-73.6-47.5-99.1-119.7c-25.4-72.2-10.3-128.6-17.9-147.2
		s-7.6-24.1-37.1-42.6c-29.6-18.6-54.3-29.6-60.5-75.7s-28.9-39.2-22.7-72.9s61.2-33.7,126.6-46.8s138.3-41.3,198.1-13.8
		s79.8,39.9,108.7,58.5c28.9,18.6,51.6,11,55.7-7.6s0-137.6,45.4-145.8c45.4-8.3,133.2-6.6,140.6,51.1
		c7.3,57.8-18.3,142.2-18.3,176.1s9.2,74.1-3.2,96.1c-12.4,22-60.5,98.4-112.1,150s-108.7,90.1-109.4,136.2
		c-0.7,46.1,36.5,95.6,30.3,136.9s-15.1,89.4-0.7,109.4c14.4,19.9,42,55,77,54.3c35.1-0.7,73.6,37.1,61.9,65.4
		c-8.57,20.66-41.15,43.9-67.98,75.15"/>
	<path fill="none" stroke="#020203" stroke-width="2" stroke-linecap="round" stroke-linejoin="round" stroke-miterlimit="10" d="
		M1215.6,796.2c0,0-118.3-11.7-112.1,88.1c6.2,99.7,53.7,132.8,97.7,146.5c44,13.8,105.9-11,125.2-36.5
		c19.3-25.5,81.9-98.4,101.1-116.9c19.3-18.6,28.2-77.7-9.6-90.1C1380.1,774.8,1292.7,807.9,1215.6,796.2z"/>
	<path fill="none" stroke="#020203" stroke-width="2" stroke-linecap="round" stroke-linejoin="round" stroke-miterlimit="10" d="
		M1511.33,1603.4c19.86-35.56,64.51-113.79,42.57-154c-27.5-50.4-96.6-124.3-109.7-174.9s-49.8-83.7-37.9-113.1s15.6-111,61.5-130.7
		c45.9-19.7,45.9-10.5,50.4-51.8c4.6-41.3,17.4-109.5,41.7-136.4c22.78-25.22,17-96.93,41.89-104.23"/>
	<path fill="none" stroke="#020203" stroke-width="2" stroke-linecap="round" stroke-linejoin="round" stroke-miterlimit="10" d="
		M300.4,1603.4c20.9-29.72,59.78-89.29,54.7-114.6c-6.9-34.4-25.6-72.9,52.6-105.9c78.1-33,69.7-26.1,71.8-92.2
		s-30.9-129.3,43.4-130.7c74.3-1.4,134.8-15.1,148.6-89.4S624.7,956.4,600,967.4s-80.9,50.9-116.1,5.5s-2.2-77.2-84.8-101.9
		s-11-67.4-22-97.6s-35.8-93.6-93.6-109.1c-57.8-15.6-73.4-111.9-30.3-146.8s-11-100-34.9-141.2s-97.2-89.6-66-136.1
		s46.8-130.8,95.4-96.9s109.1,68.8,149.5,69.7s96.3,38.5,122,71.5s89.7,61.7,249.2,32.1c0,0,88.1-31.6,112.1-1.4
		c24.1,30.3,57.1,108,130,109.4s125.9-24.8,100.4-77c-25.5-52.3-81.9-88.9-17.9-107.4s51,33.1,97.7,26.2
		c46.8-6.9,77.7-62.6,115.3-45.2s48.6,27.5,109.1,52.3s88.7,0,136.7,43.1c25.1,22.54,40.5,32.55,50.4,39.6"/>
	<path fill="none" stroke="#020203" stroke-width="2" stroke-linecap="round" stroke-linejoin="round" stroke-miterlimit="10" d="
		M0,1348.7c1.03,2,2.03,4.22,3,6.7c10.2,26.2,49.4,61.9,61.1,77s14.8,54.3-12.6,66c-11.87,5.09-31.72,9.91-51.5,15.09"/>
	<path fill="none" stroke="#020203" stroke-width="2" stroke-linecap="round" stroke-linejoin="round" stroke-miterlimit="10" d="
		M0,903.17c19.16,18.11,61.1,56.64,83.4,68.43c29.5,15.6,35.9,19.3,37.7,46.8c1.8,27.5,5.5,37.3,15.6,43.9s26.6,13,33,49.7
		s26.6,94.7,51.4,61.1s34.9-74.9,52.3-100.5s33-64.2,0-85.3s-72.5-45.2-113-151.1s-68.1-159-82.5-222.3
		C69.38,576.45,30.73,518.53,0,469.79"/>
</g>
</svg>
