<?xml version="1.0" encoding="utf-8"?>
<!-- Generator: Adobe Illustrator 23.0.6, SVG Export Plug-In . SVG Version: 6.00 Build 0)  -->
<svg version="1.1" id="Layer_1" xmlns="http://www.w3.org/2000/svg" xmlns:xlink="http://www.w3.org/1999/xlink" x="0px" y="0px"
	 viewBox="0 0 1602.2 1602.2" enable-background="new 0 0 1602.2 1602.2" xml:space="preserve">
<g>
	<path fill="none" stroke="#020203" stroke-width="0.6" stroke-miterlimit="10" d="M0,977.1c0,0,100.7-38.5,109-20.6
		s13.8,49.5-22,67.4c-30.3,15.1-70.3,24.3-87,35.6"/>
	<path fill="none" stroke="#020203" stroke-width="0.6" stroke-miterlimit="10" d="M0,943.4c0-2.1,95.1-25.5,115.1-41.3
		s40.7-31.5,55.8-10.9s59.8,48.9,36.5,60.5c-23.4,11.6-54.3,4-80.5,72.2s-72.9,7.6-121.8,73.6"/>
	<path fill="none" stroke="#020203" stroke-width="0.6" stroke-miterlimit="10" d="M0,905.4c15.8,3.4,45.6,4.1,79.4-24.1
		c50.2-41.9,54.3-50.1,103.2-19.1c48.8,31,98.4,68.8,90.1,83.2s-20.3,42.8-78.4,50.2s-22,68.1-66.7,77
		c-40.4,8.1-102.9,16.8-127.6,75.3"/>
	<path fill="none" stroke="#020203" stroke-width="0.6" stroke-miterlimit="10" d="M0,625.2c12.8,10.4,50.7,41.8,70,63
		c23.4,25.7,29.4,35.3,65.1,31.6c35.8-3.7,85.3-11.9,95.8,28s-18.3,25.2-68.3,18.3c-38-5.2-121.5-10.7-162.6-7"/>
	<path fill="none" stroke="#020203" stroke-width="0.6" stroke-miterlimit="10" d="M0,528.3c10.2,0.4,20.5,4.1,24.1,16.3
		c7.8,26.6,35.3,123.4,88.5,132.5c53.2,9.2,94-6.9,107.3,9.6c13.3,16.5,76.6,98.1,101.4,104.6c24.8,6.4,153.2,24.3,173.8,36.7
		s44.5,22.9,62.4,6.9c17.9-16.1,55-72.5,61-85.3s6-40.4,48.6-38.5c42.6,1.8,86.7,12.4,106.9-7.1s99.1-85.5,126.6-64.9
		s12.6,114.4,42.9,128.9c30.3,14.4,88.7,79.8,46.8,107.3s-72.2,63.2-70.2,114.1c2.1,51-15.8,66.8,16.5,112.9s28.2,72.2,55,79.8
		c26.8,7.6,77.7,31,109.4-4.1c31.6-35.1,109.6-106.4,150-67.9s97.2,101.3,155.9,99.7c58.7-1.6,80.7-24.1,111,0s53.3,35.1,84.4,42.4"
		/>
	<path fill="none" stroke="#020203" stroke-width="0.6" stroke-miterlimit="10" d="M0,816.1c14-1.2,32.1-5.8,54.3-17.9
		c59.3-32.1,179.8,10.4,209.7,59.4c30,49,105.5,28.7,100,70.9s-43.1,40.4-56.9,80.3s-88.1,31.6-108.2,64.6
		c-20.2,33-93.1,67-68.1,87.1s153.4,89,162.6,110.1s10.1,44,54.1,44s67-12.8,58.7-44s-47.7-54.1-8.3-98.1s107.3-94.5,139.4-52.3
		s50.4,88.1,79.8,48.2s24.8-51.5,23.8-76.4c-0.9-24.9-17.4-31.1,4.6-53.7s46.8-74.9,55-55.6c8.3,19.3,16.5,78.9,33.9,91.7
		c17.4,12.8,20.2,99.1,30.3,121.1s76.1,88.7,29.4,119.2c-46.8,30.5-83.9,57.3-67.4,79.3s31.6,47.5,19.3,66
		c-12.4,18.6-21.6,35.3-135.3,98.6c-24.9,13.9-47.2,28.7-66.7,43.6"/>
	<path fill="none" stroke="#020203" stroke-width="0.6" stroke-miterlimit="10" d="M1602.2,1297.4c-84.8,11.6-107.6-21.2-121.1-37.4
		c-14.2-17-66-10.1-94.5-7.8c-28.4,2.3-110.1-31.2-137.1-76.6c-27.1-45.4-75.7-15.1-92.2,7.8s-46.8,47.7-111,62.4
		s-122.9-39.4-141.2-58.3s-34.9-72.8-58.7-90s3.7-111.2,13.8-150.7s41.3-65.1,66-82.5s15.6-57.8,0-67.9s-33.9-48.6-53.2-78.9
		c-19.3-30.3-45.9,7.3-57.8,22c-11.9,14.7-74.3,20.2-109.1,19.3s-96.3,102.7-111,120.4c-14.7,17.6-56.9,21.8-91.7,7.1
		c-34.9-14.7-55.9-4.6-66,11s-4.6,62.4-21.8,77s-48.9,33-70,69s-18.3,33.7-67,54.1c-48.6,20.4-41.3,50.2,0,80.5s63.3-21.1,63.3-21.1
		s60.5-85.8,133.9-91c73.4-5.3,81.6-2.5,111.9-69.5s51.4-107.7,83.5-106.1c32.1,1.5,59.3-5.8,76.9,52.9s19.4,20.2,28.6,79.8
		c9.2,59.6,56.9,34.9,42.2,92.6s24.8,130.2,44,143.1c19.3,12.8,62.4,68.8,7.3,89s-75,37.6-69.1,83.5c5.8,45.9-18.9,86.2-34.5,104.6
		c-15.6,18.3-27,55.9,22.7,36.7c49.7-19.3,51.6-94.5,108.4-88.1c56.9,6.4,65.1,38.5,90.8,49.5s113.7,30.3,135.7,57.8
		c2.7,3.3,5.5,6.9,8.5,10.6"/>
	<path fill="none" stroke="#020203" stroke-width="0.6" stroke-miterlimit="10" d="M759,846.7c0,0,28.2,44.8,44.7,43.6
		s14.4,3.6,40.6-17c26.1-20.6,34.4-67.4,8.6-79.8c-25.8-12.4-99.4,11.5-100.1,24.3C752.1,830.6,752.8,837.5,759,846.7z"/>
	<path fill="none" stroke="#020203" stroke-width="0.6" stroke-miterlimit="10" d="M1327.7,1602.2c-10.4-7.1-20.7-14.8-30.1-22.6
		c-42.2-34.9-140.3-109.1-144-131.2c-3.7-22-4.6-39.4-17.4-54.1s-2.8-55.9,40.4-41.3c43.1,14.7,47.2,46.8,93.3,57.8
		c46.1,11,67.2,33,108.5,13.8c41.3-19.3,64.2-11,111.9,11.9c47.7,22.9,74.3,34.9,95.4,66c7.1,10.4,12,18.7,16.5,25.1"/>
	<path fill="none" stroke="#020203" stroke-width="0.6" stroke-miterlimit="10" d="M1214.2,1602.2c0,0-69.1-67.5-83.2-81.2
		c-14.1-13.8-42.5-33-47.1-57.8s-7.3-38.5-43.1-38.5c-35.8,0-86.2,2.8-76.1-31.2c10.1-33.9,26.6-61.5,45.9-66
		c19.3-4.6,51.4-7.3,97.2-34.9c45.9-27.5,81.6-57.9,100-40.4c18.3,17.5,22.9,34,55.9,41.4c33,7.3,8.3,38.5,54.1,35.8
		s131.2-11,166,0.9c34.9,11.9,49.5,41.3,101.8,37.6c5.9-0.4,11.4-0.9,16.6-1.5"/>
	<path fill="none" stroke="#020203" stroke-width="0.6" stroke-miterlimit="10" d="M1248.8,1602.2c-32.8-31.3-93.4-90-109.8-103.8
		c-22-18.6-34.9-35.1-39.4-62.7c-4.6-27.5-28.4-36.7-47.7-36.7s-53.2-10.1-32.1-30.3c21.1-20.2,130.2-79.8,154.1-80.7
		c23.8-0.9,38.5,5.5,55.9,22s54.1,52.3,84.4,53.2c30.3,0.9,103.6-21.8,137.6-13.2c33.9,8.6,63.3,28.8,92.6,37
		c18,5,38.9,9.4,57.8,10.4"/>
	<path fill="none" stroke="#020203" stroke-width="0.6" stroke-miterlimit="10" d="M1281.5,1602.2c-21-20.3-113.4-109.5-128.8-122.5
		c-17.4-14.7-28.4-34.1-34.9-55.1c-6.4-21-21.1-33.9-27.5-46.7c-6.4-12.8-1.8-18.1,12.8-27.9c14.7-9.7,66-51,89.9-30.8
		s44.9,57.8,98.1,73.4s84.4-4.6,97.2-11.9c12.8-7.3,55-18.3,80.7,5.5s59.6,37.5,86.2,38.5c14.7,0.6,31.7,7,47,16.2"/>
	<path fill="none" stroke="#020203" stroke-width="0.6" stroke-miterlimit="10" d="M1413.2,1602.2c0,0-95.4-77.6-76.1-91.3
		s54.1-35.8,101.8-19.3c47.7,16.5,112.8,14.7,108.2,56.9c-2.8,25.4-5.2,42.5-8.3,53.7"/>
	<path fill="none" stroke="#020203" stroke-width="0.6" stroke-miterlimit="10" d="M1437.1,1602.2c0,0-67.9-46.4-39.4-74.8
		s103.6,7.3,110.1,11c6.4,3.7,31.2,24.8,10.1,53.2"/>
	<path fill="none" stroke="#020203" stroke-width="0.6" stroke-miterlimit="10" d="M1445.3,1583.3c0,0-22-20.5,0-24s44-1.8,39.4,12
		C1480.2,1585.2,1468.2,1604.4,1445.3,1583.3z"/>
	<path fill="none" stroke="#020203" stroke-width="0.6" stroke-miterlimit="10" d="M1154.3,1602.2c-18-16.6-86.4-78.4-112.5-85.7
		c-30.3-8.4-59.2-35.9-88.1-46.9s-83.3,0.8-100.8-14.7s-32.7-31.4-16.1-48.9c16.5-17.5,78.4-31.3,85.3-49.2
		c6.9-17.9,12.5-79.8,41.3-83.9s97.2,4.1,150.4-31.6c53.2-35.8,71.5-58.2,94.9-59.6s30.7,17.4,54.1,47.2
		c23.4,29.8,105,58.5,137.4,50.9c32.3-7.6,51.6-11.2,72.2,8.2c18.6,17.6,85.2,44.9,129.8,31.5"/>
	<path fill="none" stroke="#020203" stroke-width="0.6" stroke-miterlimit="10" d="M1091.3,1598c0,0-78.9-25.7-92.6-17.4
		c-13.8,8.3-45.9,11.9-52.3-16.5c-6.4-28.4-12.8-52.1-48.6-47.6s-67.9,60.8-78,76.2"/>
	<path fill="none" stroke="#020203" stroke-width="0.6" stroke-miterlimit="10" d="M846.5,1602.2c6.4-13.2,27.3-53.5,41.1-50.7
		c16.5,3.4,18.3,4.3,28.4,40.1c1.1,3.9,2.5,7.4,4,10.6"/>
	<path fill="none" stroke="#020203" stroke-width="0.6" stroke-miterlimit="10" d="M1602.2,1270.1c0,0-23.9,8.3-49.3,5.5
		c-25.5-2.8-45.4-55.7-81.2-50.2c-35.8,5.5-89.4,21-139-15.6c-49.5-36.6-89.4-90.3-116.3-84.8s-41.3,3.4-68.1,33.7
		c-26.8,30.3-38.5,60.5-86.7,57.1c-48.2-3.4-109.4-0.7-125.2-41.3s-18.7-50.9-32.4-68.1s-31.1-165.4,2.2-193.2s65.4-53.5,64.8-73.1
		c-0.6-19.6-6.9-44.6-30.7-62.1c-23.8-17.4-29.9-32.7-36.3-53.8c-6.4-21.1-17.7-57.8-38.8-57.2s-47.8,15.6-71.2,49.5
		s-91.7,12.8-108.2,16.1c-16.5,3.2-36.2,11.9-46.3,32.1s-49.1,103-106.9,99.5c-57.8-3.4-95.6-31-156.8-34.4s-80.5,6-54.3,27.7
		c26.1,21.8,50.7,28.7,66.3,45.2c15.6,16.5,23.1,46.8-7.8,63.3c-31,16.5-56.9,52.3-67.4,74.3c-10.5,22-49.6,28-67.7,39.9
		s-65.8,39.9-51.5,69.7c14.2,29.8,131.6,113.7,146.3,83.9c14.7-29.8,35.3-118.3,106.4-136.4s72-14.9,107.8-9.9s39-6,40.8-24.8
		s-10.1-28.9,22.9-56.4s36.7-83.2,68.3-82.7c31.6,0.6,44.5,56.5,51.4,75.3s20.2,52.3,28.4,86.2c8.3,33.9,12.8,93.6,29.4,116.5
		c16.5,22.9,59.6,73.4,55.9,94.5c-3.7,21.1-13.1,36.7-49.9,51.8c-36.8,15.1-40.9,36-33.6,57.9c7.3,21.9,18.3,39.3-9.6,80.6
		c-28,41.3-50.9,61.5-111,86.7c-27,11.3-42.4,21.2-52.7,29.1"/>
	<path fill="none" stroke="#020203" stroke-width="0.6" stroke-miterlimit="10" d="M0,1435.8c12.4,3.2,39.5,7.3,56.7-11.2
		c22.9-24.7,90.8-104.5,86.2-44.9s-11.9,104.6,25.7,105.5s129.3,22,170.6,0s111.9-55.1,106.4-30.3s-55,82.6-79.8,90.8
		c-24.8,8.3-40.4,22-92.2,32.1s-109.9,12.9-122.1,24.4"/>
	<path fill="none" stroke="#020203" stroke-width="0.6" stroke-miterlimit="10" d="M0,1404.9c10.2,3,26.3,3.3,45.7-11
		c33.9-25.2,83.5-94,100.9-91.2s36.7-0.9,27.5,71.5c-9.2,72.5,6.4,96.3,52.3,96.3s90.8,10,116.5-15.6s67-39.4,92.6-41.2
		c25.7-1.8,59.6-16.5,77-34.9c17.4-18.3,32.1-55.8,40.4-37.1c8.3,18.7,13.8,69.2,0,86.6s-64.2,25.7-89,82.5
		c-24.8,56.9-45.8,58.7-72,69.7c-23.2,9.7-53.2,12.3-75.7,21.7"/>
	<path fill="none" stroke="#020203" stroke-width="0.6" stroke-miterlimit="10" d="M0,1384.7c9.3,2.6,23.2,1.6,39.3-16
		c29.4-32.1,71.5-88.1,98.1-91.7s79-11,67.5,34.9s-20.4,117.4,14.8,123.8s75.5,2.8,112.2-22s69.7-21.1,94.5-23.8
		c24.8-2.8,89.9-39.4,93.6-64.2c3.7-24.8-22.9-82.9-8.3-78.6c14.7,4.3,50.4,35.5,89.9,30c39.4-5.5,60.5-6.4,44.9,14.7
		s-59.6,36.7-51.4,77s19.3,53.2,30.3,61.5s19.3,11.8-13.8,24.7s-62.4,3.7-79.8,25.2s-55,61-74.3,85.8
		c-10.4,13.3-16.7,26.6-26.7,36.2"/>
	<path fill="none" stroke="#020203" stroke-width="0.6" stroke-miterlimit="10" d="M0,1352.1c7.2-0.1,16.3-2.2,23.7-10.3
		c14.7-16.1,76.1-98.6,95.4-95s106.4,0,111.9,36.7s-16.5,75.2,0,96.3c16.5,21.1,52.9,30.3,88.8,9.2s37.8-16.5,86.4-22.9
		s89-45.9,81.6-72.5c-7.3-26.6-50.1-57.8-41.9-79.8c8.3-22,42.5-54.7,56-34.2c13.5,20.5,10.2,68.5,97.6,67.5s86-71.8,105.2-58
		c19.3,13.8-5.5,58.5,21.3,80.5s-88.7,62.6-94.9,94.2s39.9,60.1,52.3,67.9c12.4,7.8,27.5,14.7,8.9,27.7s-58.5,35.8-91.5,37.8
		c-33,2.1-53.7,11.7-77,43.3c-14.4,19.5-32.3,43.7-51.6,61.7"/>
	<path fill="none" stroke="#020203" stroke-width="0.6" stroke-miterlimit="10" d="M0,462c6.9-0.9,13.7-2.6,18.2-5.7
		c13.1-8.9,67.4-20.6,69.5,19.3c2.1,39.9-1.4,138.3,62.6,143.1s57.9-24.1,94.6,18.6c36.7,42.6,74.6,110.8,110.3,110.1
		c35.8-0.7,124.5,24.1,142.4,27.2c17.9,3.1,65.4,12.7,68.1-29.3c2.8-42,5.5-90.1,33.9-94.7s70.6,6.4,97.2,11
		c26.6,4.6,49.5,2.8,59.6-7.3s19.3-39.4,64.2-50.4s70.5-15.6,83.4-22.9c12.9-7.3,79.9-14.4,72.5,31.8
		c-7.3,46.2-21.1,144.3,17.4,153.5c38.5,9.2,77,22.9,85.3,45.9c8.3,22.9-79.8,95.4-100,136.7s-6.4,111.9,11,136.7
		c17.4,24.8,57,73.4,89.5,50.4s34.3-52.3,62.7-55c28.4-2.8,61.7-15.6,79.9-25.7c18.2-10.1,36.1-22.9,47.3-6.4
		c11.3,16.5,13.3,42,61.5,66c48.2,24.1,80.5,43.3,94.9,41.3c14.4-2.1,97.7-5.5,136.2,9.6c22.3,8.7,31.7,15.2,40,19.2"/>
	<path fill="none" stroke="#020203" stroke-width="0.6" stroke-miterlimit="10" d="M0,317.2c2-0.1,4.4-0.7,7.1-1.8
		c19.9-8.3,28.9-30.3,37.1-44S74.6,166.7,87.6,153c13.1-13.8,61.9-41.3,93.6-43.3c31.6-2.1,132.8-11,115.6,41.3
		s-64.7,81.9-57.8,111.4s4.8,75.7-26.1,100.4c-31,24.8-61.9,47.5-56.4,81.2s6.9,66,47.5,70.9c40.6,4.8,68.3,10.1,78.4,30.3
		s43.1,60.5,53.2,76.6s6.4,39,44.9,45.4s52.2,29,77,31s57.8,13,48.6-31S463,581,474,544.3s39.8-64.2,33.7-103.6s90.2-97.2,93.8-78.9
		c3.7,18.3-4.6,140.3,35.8,182.5s63.3,44,73.4,26.6c10.1-17.4,16.1-27.5,42-29.4c25.9-1.8,81.1,13.3,116-13.2s41.1-40.9,97.5-21.7
		c56.4,19.3,66.7-0.7,79.8-0.7s28-4.8,34.4,15.4s44.9,74.3,33.9,100.4c-11,26.1-46.8,54.3-18.3,76.4c28.4,22.2,98.1,76.3,94.5,96.5
		s-61.5,111.9-76.1,119.2s-48.6,17.4-49.5,52.3c-0.9,34.9,0,57.8,28.4,52.3s180.7-63.3,202.7-49.5s12,46.4,64.4,60.5
		c29.7,8,62.6,14.4,83.2,31.6s68.8,18.6,101.8,14.4c33-4.1,20.6-45.4,17.2-105.9s39.7-60.5,39.7-60.5"/>
	<path fill="none" stroke="#020203" stroke-width="0.6" stroke-miterlimit="10" d="M0,371.5c3.6-0.1,7.9-1.4,12.7-5.3
		c14.7-11.9,82.5-100,83.5-139.4s21.1-74.3,45.9-70.6s89.6-27.5,91.1,7.3c1.5,34.9-27.8,65.1-23.3,111
		c4.6,45.9-72.5,97.2-72.5,163.3s0.9,113.7,25.7,118.3s69.7-30.3,98.1,13.8c28.4,44,16.5,55.9,42.2,63.3c25.7,7.3,33,54.1,49.5,58.7
		c16.5,4.6,74.3,2.8,99.1,23.8c24.8,21.1,75.2,31.2,74.3-9.6c-0.9-40.8,11.9-61-9.2-88.5C496,590,496,555.4,518,528.2
		s8.3-75.5,28.4-80.7s22.9,13.2,37.6,51.7s62.4,96.3,81.6,100c19.3,3.7,23.8,24.4,56.9-6.6s41.4-39.2,88.1-32.8s73.2-16.5,93.4-27.5
		s39.5-4.6,81.7,8.3c42.2,12.8,69.7-13.3,84.2,23.8c14.4,37.1-56.4,61.9-32.3,112.1s108.7,81.5,113.5,110.6s-35.1,95.8-56.4,108.8
		s-76.4,39.2-62.6,86.7s29.6,91.5,81.2,66s153.6-85.8,183.9-45.4c30.3,40.4,14.2,36.7,50,47.7s63.7,19.7,85.3,36.7
		c21.6,17,62.8,10.5,98.1,18.3c35.3,7.8,56.4,29.8,54.1-34.4s-5.9-123.8,17.5-133.9"/>
	<path fill="none" stroke="#020203" stroke-width="0.6" stroke-miterlimit="10" d="M0,420.7c9.3-1.9,27.6-11.1,56-48.9
		c43.4-57.7,68.8-83.9,84.6-68.1s-30.3,76.4-30.3,108.7s13.1,82.5,12.4,112.8s8.9,74.4,44.7,67.5s69.5-23.4,93.6,20.6
		s19.3,51.6,36.5,57.8s28.9,20.6,42,39.2c13.1,18.6,81.2,10.3,108.7,28.9c27.5,18.6,94.2,28.9,93.6,3.4
		c-0.7-25.5,15.1-159.6,32.3-158.9c17.2,0.7,19.9,13.1,57.1,28.2c37.1,15.1,78.4,44,112.8,4.8c34.4-39.2,43.3-29.6,99.1-38.5
		c55.7-8.9,54.5-35.8,87.2-29.4c32.7,6.4,91.4,13.8,80.4,61.5s-28.9,108.2,14,124.7s86,31.6,88.1,55s5.5,70.6-49.5,100.3
		s-64,68.3-54.3,123.3c9.7,55,14.4,108,61.9,86c47.5-22,11-26.8,81.2-42c70.2-15.1,94.2-48.2,114.2-42c19.9,6.2,15.8,33.7,37.8,46.8
		c22,13.1,44,35.1,68.8,33.7s24.8,35.8,76.4,35.8s71.5-2.3,115.6,12.6c21.1,7.1,31.3,6.9,37.3,3"/>
	<path fill="none" stroke="#020203" stroke-width="0.6" stroke-miterlimit="10" d="M1340.4,0c-3.7,14.2-7.5,35.3-4.3,53
		c5.5,29.8-15.6,70.2-8.3,86.7c7.3,16.5,33,27.5,42.2,40.4c9.2,12.8,34.9,40.4,50.4-4.6c13.9-40.2,74.9-147.9,101.5-175.5"/>
	<path fill="none" stroke="#020203" stroke-width="0.6" stroke-miterlimit="10" d="M1314.3,0c-1.3,21.4-4.7,57.7-13,69.1
		c-11.9,16.5-73.4,74.3-60.5,111c12.8,36.7,37.6,23.8,59.6,28.4c22,4.6,43.1,3.7,68.8,67s42.2,102.7,69.7,54.1
		s26.6-109.1,38.5-140.3c11-28.8,76.1-156.3,84.4-189.3"/>
	<path fill="none" stroke="#020203" stroke-width="0.6" stroke-miterlimit="10" d="M1584.7,0c0,0-78,213.1-66,236
		s33.9,52.6-32.1,115.3s1.8,106.7-36.7,124.1s-51.4-50.4-80.7-41.3c-29.4,9.2-31.2-16.5-26.6-50.4s0.5-103.6-16.2-122.9
		c-16.8-19.3-63.6-34.9-96.6-28.4c-33,6.4-77,22-58.7-25.7s98.1-137.4,106.4-180.1c1.7-8.9,2.8-17.9,3.3-26.6"/>
	<path fill="none" stroke="#020203" stroke-width="0.6" stroke-miterlimit="10" d="M1602.2,269.9c0,0-38.5-36.7-39.5-58.7
		s14.7-156.8,39.5-166.9"/>
	<path fill="none" stroke="#020203" stroke-width="0.6" stroke-miterlimit="10" d="M1602.2,315.6c-30.7,8.6-83.8,27.3-89,55.2
		c-7.3,39.4,41.3,89,16.5,128.4s-67.9,112.8-94.5,103.6s-18.3-83.5-38.5-103.6s-58.7-25.4-78.9-21s-33.9-2.9-23.8-60.7
		s32.1-115.6,11.9-129.3s-43.1-29.4-109.1-13.8s-122.9,0.9-83.5-50.4c39.4-51.4,115.6-134.8,100-155.9s-18.3-22.9-55-23.8
		s-60.5,18.3-110.1,3.7c-49.5-14.7-153,25.7-151.7,44c1.3,18.4-7,134.8-25.3,122.9c-18.3-11.9-74.3-73.4-90.8-63.3
		S638,195.8,602.2,167.5s8.9-40,31-48.9c21.4-8.6,95.3-6.3,131-118.3"/>
	<path fill="none" stroke="#020203" stroke-width="0.6" stroke-miterlimit="10" d="M810.7,0.3c-22.3,25.6-97.4,113.9-79.2,120.4
		c21.3,7.6,56.4-4.8,81.2,3.4s30.2,19.9,40.2,11.7s12.7-66,33.4-75s98.4-53.7,123.1-48.2c24.8,5.5,35.8,5.5,55.7,9.6
		c19.9,4.1,42,9.9,65.4-6.2c7-4.8,14-10.2,20.3-15.7"/>
	<path fill="none" stroke="#020203" stroke-width="0.6" stroke-miterlimit="10" d="M855.3,0.2c-19.7,15.4-51.4,43.1-30.2,47.5
		c29.6,6.2,84.6-32.1,101.1-39.9"/>
	<path fill="none" stroke="#020203" stroke-width="0.6" stroke-miterlimit="10" d="M0,146.8c0,0-1.1,27.7,12.7,15.8
		S52,82.3,104.8,76.1s81.2-37.4,91.3-41s34.9-7.4,61.5,13.3s81.6,17.9,100,13.3c18.3-4.6,44-1.9,39.4,30.3
		c-4.6,32.1-39.4,60.5-43.1,95.4s-31.2,41.3-44.9,57.8s-11,49.5-10.1,71.5s1.8,42.2-28.4,61.5c-30.3,19.3-82.8,59.6-37.3,87.1
		s86.8,24.8,94.1,45.9c7.3,21.1,52.4,87.1,70.2,87.1c17.8,0,27-1.8,30.6-20.2c3.7-18.3,6.4-85.3,33.9-108.2s-3.7-83.5,45.9-110.1
		s50.4-84.4,99.1-79.8c48.6,4.6,100,15.6,78,60.5s-37.6,130.7-29.4,149.3c8.3,18.6,5.5,44.3,28.4,32.3c22.9-11.9,55.9-60.5,78.9-55
		c22.9,5.5,48.6,43.1,71.5,33s46.3-37.6,54.6-50s23.4-62.8,61-39s25.7,54.7,69.4,44.6c43.7-10.1,100.7-45.6,106.2-18.7
		c5.5,26.8,7.6,94.2,20.6,117.6c13.1,23.4,42.6,71.5,64,76.7c21.3,5.2,33,20.1,25.5,35.7s-33.7,41.7-1.4,65.8
		c32.3,24.1,53.7,32.3,40.6,61.2s-68.8,78.4-86,90.8c-17.2,12.4-50.2,61.9,6.9,52.3s94.9-38.5,129.3-19.9s25.5,44,55,55
		c29.6,11,46.8,17.9,70.9,17.9s46.1,11.7,45.4-24.1s-19.9-81.9,16.5-88.1c36.5-6.2,56.8,6.9,78.6-11.7c3.9-3.4,7.5-7.8,10.7-12.9"/>
	<path fill="none" stroke="#020203" stroke-width="0.6" stroke-miterlimit="10" d="M0,86.9c0,0,5.1,30.3,42.9,0s48.2-33.7,73.6-38.5
		s35.3-20.1,43.4-27c10.6-9.1,39.7-31.3,69.2-9.3s71.7,41.2,104.1,28.8S494.9-6.6,521,15.4c26.1,22-35.1,29.6-46.8,42
		s-88.1,79.1-94.2,114.2s-13.8,68.1-34.4,83.2s-34.4,29.6-20.6,64s-7.6,52.3-28.2,76.4s-45.4,54.3-0.7,59.8s64.7-1.4,68.1,26.8
		c3.4,28.2-4.1,75,25.5,56.4s55-84.6,58.5-102.5c3.4-17.9,11-63.3,24.8-74.3s64.7-85.7,99.7-91.7c35.1-6,143.8-15,150,16
		s-31.6,67.4-30.3,89.4c1.4,22-22.7,105.2,8.9,90.8s54.8-47.5,93.1-23.4s61.7,24.8,74-8.9c12.4-33.7,39.2-81.9,63.3-68.1
		s71.5,79.1,97.7,64.7s127.6-57.8,137.4-31.6c9.8,26.1,2.3,52.3-6,71.5c-8.3,19.3-24.1,49.1-4.8,72.3s67.4,63.2,97.7,70.7
		c30.3,7.6,24.1,51.6,12.4,81.2c-11.7,29.6,11,31,26.1,50.2c15.1,19.3,23.4,48.2,0,79.8s-112.8,94.9-46.1,79.8
		c66.7-15.1,92.2-21.3,121.8,15.1c29.6,36.5,72.2,28.9,79.8,8.9c7.6-19.9-11.5-72.2,55.5-77.7s79.8-17.4,66-54.1
		c-13.8-36.7-22.9-88.1,15.6-101.8c5.5-2,11.4-3.9,17.4-5.9"/>
	<path fill="none" stroke="#020203" stroke-width="0.6" stroke-miterlimit="10" d="M638.2,3.9c0,0-25.7,35.8-83.5,61.5
		s-138.5,55.9-148.6,109.1s-51.4,93.2-48.6,124.5s13.8,53.4,3.7,75.4c-10.1,22-18.3,35.8,11,59.6s29.4,15.6,38.5-5.5
		c9.2-21.1,59.5-124.2,84.3-129.5s34.9-50.3,62.4-50.3s201.8-12.7,204.6,13s-55.9,119.2-43.1,133.9c12.8,14.7,64.4,8.3,87.7,17.4
		c23.3,9.2,43.5,17.4,56.3-10.1s100.9-173.4,114.6-162.3c13.8,11,10.1,50.4,8.3,96.3s25.7,70.6,61.5,59.6s147.7-52.3,155-20.2
		s-37.6,139.4-5.5,170.6s47.7,44.9,80.7,39.4s42.2,25,38.5,45c-3.7,20.1-29.4,43.9-3.7,82.4c25.7,38.5,24.8,54.1,24.8,92.6
		s1.8,55.9,32.1,65.1c30.3,9.2,51.4,1.5,61.5-24.9s33-26,62.4-28.9s51.4-18.6,40.4-45.2c-11-26.6,10.1-121.1,58.2-122
		c3.4-0.1,7-0.2,10.5-0.4"/>
	<path fill="none" stroke="#020203" stroke-width="0.6" stroke-miterlimit="10" d="M703.3,3.9c0,0-63.3,57.8-110.1,67.9
		s-146.8,88.1-157.8,106.4s-65.1,196.3,4.6,140.3s55.8-85.3,114.1-88.1s234.9-41.3,240.2,8.3s-41.5,126.6-14,134.8
		c27.5,8.3,60.7,15.6,72.6-5.5c11.8-21.1,71.4-121.1,73.3-139.4c1.8-18.3,31.2-103.6,52.3-113.7s69.7-35.4,108.2-7.1
		s20.2,36.2-7.3,59.8c-27.5,23.5-53.3,30.9-53.3,64.8s-25.6,132.1,4.7,133.9c30.3,1.8,172.4-52.3,194.4-32.1
		c22,20.2,9.2,52.3,0,101.8s-37.6,76.1,3,103c40.6,26.8,90.1-1.4,103.2,15.8s24.1,33.7,11,76.7s-25.5,57.4-2.8,72.6
		c22.7,15.1,29.6,24.4,36.1,47.3c6.5,22.9,6.5,33.2,32,27.7s29.4-3.5,43.1,1.5c13.8,5,29.4,13.2,37.6-19.8c8.3-33,33-133,67.9-143.1
		c30-8.7,24-9.4,45.9-12.3"/>
</g>
<g>
	<path fill="none" stroke="#020203" stroke-width="2" stroke-linecap="round" stroke-linejoin="round" stroke-miterlimit="10" d="
		M737.2,3.9c0,0-28.4,51.4-115.6,87.1s-166,91.7-164.2,114.6s17.4,25.7,55.9,9.2S685.7,202,716,193.7s96.3-9.2,104.6,24.8
		c8.3,33.9-5.5,123.8,22,97.2s70.6-83.5,70.6-112.8s-5.5-100.9,55-117.4s193.5-16.5,194.4,12.8c0.9,29.4-41.3,89.9-57.8,94.5
		s-41.3,11.9-41.3,51.4s-14.7,72.5,21.1,72.5c35.8,0,175.2-22.4,191.7,3.9s-60.5,174-18.3,194.2c42.2,20.2,92.6-7.3,105.5,23.8
		c12.8,31.2,11,158.7,60.5,165.1c49.5,6.4,93.6-124.7,114.6-130.2c21.1-5.5,54.1-3.7,49.5-26.6c-4.6-22.9,11.9-114.6-3.7-124.7
		s-48.6-64.2,6.9-58.7"/>
	<path fill="none" stroke="#020203" stroke-width="2" stroke-linecap="round" stroke-linejoin="round" stroke-miterlimit="10" d="
		M0,225.9c0,0,1.6,23.8,14.5,10.1s36.7-111,84.4-128.4S207.1,58,298.8,89.2S306.1,213.9,285,235s-11.9,54.1-13.8,78.9
		c-1.8,24.8-31.2,67.9-67.9,91.7s-30.3,69.7-8.3,80.7s69.7-5.5,136.7,93.6s128.4,86.2,133,65.1c4.6-21.1-35.8-100,9.2-146.8
		c44.9-46.8,7.3-77,27.5-97.2s100-111.9,133.9-86.2c33.9,25.7-31.2,155,0,193.5s39.4,61.5,67,39.4c27.5-22,26.6-54.1,78.9-35.8
		c52.3,18.3,100,1.8,115.6-27.5c15.6-29.4,38.5-34.9,68.8-11.9s53.2,10.1,70.6,4.6s40.4-16.5,54.1-0.9
		c13.8,15.6,72.5,120.2,65.1,152.3c-7.3,32.1-30.3,53.2,17.4,90.8s73.4,33,76.1,57.8c2.8,24.8-113.7,133-122,154.1
		s-38.5,51.4,11,47.7s168.8-62.4,188-27.5c19.3,34.9,17,52.5,69.9,57.3c53,4.8,68.1,37.8,94.9,34.4s49.5-29.6,44.7-64
		s-29.9-75.7,61.8-93.6c1.7-0.3,3.4-0.7,5.1-1"/>
	<path fill="none" stroke="#020203" stroke-width="2" stroke-linecap="round" stroke-linejoin="round" stroke-miterlimit="10" d="
		M0,491.6c18.9-3.8,48.2-4,56.7,28.7c12.8,49.5,25.7,121.1,78.9,130.2s71.5-44,111.9,33s84.4,89.9,135.7,97.2
		c51.4,7.3,160.5,57.8,191.7-9.2s14.7-93.6,67-95.4c52.3-1.8,93.6,29.4,142.2-15.6s154.1-69.7,158.7-44s-8.3,142.2,13.8,147.7
		c22,5.5,98.1,57.8,73.4,93.6c-24.8,35.8-77,61.5-74.3,100c2.8,38.5-23.8,97.2,14.7,147.7c38.5,50.4,65.1,66,100,60.5
		s121.1-127.5,201.8-78.9s62.4,80.7,122.9,89.9s103.6-3.2,129.1,5c17.5,5.7,52,17.9,78,29.2"/>
	<path fill="none" stroke="#020203" stroke-width="2" stroke-linecap="round" stroke-linejoin="round" stroke-miterlimit="10" d="
		M1384.8,1602.2c0,0-141.2-84.9-150.4-107.8c-9.2-22.9-67-38.5-65.1-58.7c1.8-20.2,15.6-37.6,41.3-23.8s107.3,65.1,198.1,48.6
		c90.8-16.5,179.8,57.8,166,101.8c-12.6,40.1-18.3,28.5-15,39.9"/>
	<path fill="none" stroke="#020203" stroke-width="2" stroke-linecap="round" stroke-linejoin="round" stroke-miterlimit="10" d="
		M1182.1,1602.2c0,0-143.1-136.7-170.6-145s-129.3-26.1-83.9-67.4c45.4-41.3,33-86.7,99.1-94.9s162.3-96.3,185.7-83.9
		s30.3,49.5,56.4,59.2c26.1,9.6,61.9,45.4,148.6,27.5c81.7-16.9,75.4,56.6,184.8,46.8"/>
	<path fill="none" stroke="#020203" stroke-width="2" stroke-linecap="round" stroke-linejoin="round" stroke-miterlimit="10" d="
		M0,1486.1c0,0,79.9-47.7,97.6-33s-0.6,46.8,25.1,57.8s119.2,16.5,66,41.3s-63.9,26.6-91.1,25.7s-47.4-25.7-85,13.8"/>
	<path fill="none" stroke="#020203" stroke-width="2" stroke-linecap="round" stroke-linejoin="round" stroke-miterlimit="10" d="
		M0,859.7c9,8.8,23.3,14,43.8-2.1c39.4-31,42.2-56.6,132.1-26.4s149.5,100,137.6,120.2s-39.4,60.5-81.6,67s-56.3,54.1-80.4,67
		c-24.1,12.8-99.4,25.7-114,67.9S23.1,1243.1,0,1258.7"/>
	<path fill="none" stroke="#020203" stroke-width="2" stroke-linecap="round" stroke-linejoin="round" stroke-miterlimit="10" d="
		M0,1296.3c0,0,107.6-104.2,139.2-86.5s118.3,43.8,121.1,64.5s0,105.9,41.3,86.7s86.7-19.3,111.4-22c24.8-2.8,50.9-39.4,26.1-80.3
		c-24.8-40.8-45.4-36.7-15.1-78s90.8-66,104.6-24.8c13.8,41.3,19.3,74.3,61.9,69.5c42.6-4.8,90.8-84.6,90.8-102.5s15.1-45.4,28.9-22
		c13.8,23.4,28.9,26.1,28.9,71.5s-4.1,38.5,22,64.7s34.4,48.2,0,70.2s-116.9,55.7-64.7,98.7c52.3,43,33,37.5,16.5,63.6
		s-154.1,58.2-202.2,122"/>
	<path fill="none" stroke="#020203" stroke-width="2" stroke-linecap="round" stroke-linejoin="round" stroke-miterlimit="10" d="
		M464.8,1038.2c0,0-59.6,23.5-47.7,0s56.9-118,89.9-114.3s81.6-0.9,54.1,50.4C533.6,1025.6,470.7,1036,464.8,1038.2z"/>
	<path fill="none" stroke="#020203" stroke-width="2" stroke-linecap="round" stroke-linejoin="round" stroke-miterlimit="10" d="
		M728.1,868.4c0,0-62.4-1.5-47.5-54.3c14.9-52.9,62.1-19.9,103.3-41.3s73.5-33.7,90-3.4s41.3,49,24.8,71.3s-42.6,47.1-55.7,69.8
		c-13.1,22.7-34.9,43.3-59.1,24.1C759.7,915.2,759.8,877,728.1,868.4z"/>
	<path fill="none" stroke="#020203" stroke-width="2" stroke-linecap="round" stroke-linejoin="round" stroke-miterlimit="10" d="
		M1377.4,0c0,0-11,48,5.5,52.5s56.9-28.4,67-44"/>
</g>
</svg>
