<?xml version="1.0" encoding="UTF-8"?><svg id="Capa_1" xmlns="http://www.w3.org/2000/svg" viewBox="0 0 14177 14166"><defs><style>.cls-1{letter-spacing:0em;}.cls-2{fill:none;stroke:#e5661d;stroke-linejoin:round;stroke-width:62px;}.cls-3{font-family:MyriadPro-Regular, 'Myriad Pro';font-size:12px;}.cls-4{letter-spacing:0em;}.cls-5{letter-spacing:0em;}</style></defs><text class="cls-3" transform="translate(960 540)"><tspan x="0" y="0">i</tspan><tspan class="cls-1" x="2.81" y="0">c</tspan><tspan x="8.11" y="0">ono</tspan><tspan class="cls-4" x="27.95" y="0">M</tspan><tspan class="cls-5" x="37.63" y="0">useo</tspan></text><g><path class="cls-2" d="M6471.34,1626.22c-.87-8.33-1.78-16.63-2.43-25.04-28.09-368.72,239.86-717.87,615.78-725.13,375.8-7.27,647.65,334.16,623.02,702.04-.56,8.42-1.37,16.76-2.17,25.1,136.82,6.61,205.19,11.19,341.66,22.92,1.04-8.33,2.11-16.79,3.13-25.01,69.4-566.67-412.63-1102.35-967.61-1109.69-587.97-7.78-1009.69,617.95-955.76,1145.29,.82,8.07,2.28,16.59,3.37,24.9,136.15-16.64,204.39-23.73,341.01-35.38Z"/><path class="cls-2" d="M6101.13,1657.9c-188.75-19.9-336.78-179.21-361.58-362.25-28.16-207.62,118.4-446.92,341.84-468.5,89.43-8.64,178.53,11.48,250.1,57.4"/><path class="cls-2" d="M6101.16,1454.22c-87.06-12.75-160.63-87.21-173.52-186.53-15.21-117.19,63.29-225.08,175.63-238.35,41.36-4.89,81.26,3.77,115.44,22.59"/><path class="cls-2" d="M6358.78,836.27c-127.54-152.42-136.47-383.88-10.86-533.65,139.21-165.97,429.43-213.2,603.48-57.29,69.46,62.18,115.31,143.33,131.23,229.14"/><path class="cls-2" d="M6502.34,692.99c-56.47-76.5-58-185.57,6.36-264.09,75.91-92.63,215.11-105.84,305.27-28.98,33.21,28.31,55.16,64.72,65.71,103.83"/><path class="cls-2" d="M8079.1,1621.64c189.11-28.49,326.42-193.45,356.34-377.62,36.07-221.94-141.54-433.18-350.39-453.4-89.24-8.63-178.48,19.32-249.28,68.38"/><path class="cls-2" d="M8074.44,1417.76c87.03-15.88,160.02-92.92,171.96-192.66,14.09-117.66-65.6-222.74-178.2-231.96-41.48-3.41-81.33,6.7-115.36,26.75"/><path class="cls-2" d="M7824.98,810.21c124.7-154.12,130.93-378,6.2-533.76-147.94-184.71-441.1-177.19-604.36-36.02-71.01,61.4-113.97,147.41-129.14,233.78"/><path class="cls-2" d="M7680.08,672.03c55.86-78.46,56.44-187.53-8.67-263.74-76.8-89.92-216.21-98.22-305.71-18.18-32.96,29.47-54.57,66.65-64.78,106.14"/></g><g><path class="cls-2" d="M3999.75,2544.17c-4.64-6.97-9.31-13.89-13.79-21.04-196.23-313.43-121.23-747.11,208.26-928.24,329.38-181.08,728.76-5.09,877.91,332.09,3.42,7.72,6.57,15.48,9.74,23.23,124.22-57.73,186.89-85.45,313.18-138.48-2.95-7.86-5.93-15.85-8.85-23.6-201.89-534.01-877.65-784.32-1372.48-532.91-524.24,266.36-606.86,1016.4-314.04,1458.27,4.47,6.77,9.73,13.63,14.56,20.48,112.82-78,169.95-116,285.51-189.8Z"/><path class="cls-2" d="M3686.67,2744.27c-176.37,70.1-381.48-2.17-488.51-152.73-121.43-170.75-102.86-450.76,84.96-573.69,75.17-49.21,163.41-72.8,248.13-65.4"/><path class="cls-2" d="M3592.04,2563.91c-83.02,29.17-182.76-2.58-240.33-84.53-67.92-96.7-48.56-228.71,44.75-292.67,34.35-23.55,73.71-34.43,112.71-33.64"/><path class="cls-2" d="M3532.98,1897.01c-183.77-75.69-299.24-276.48-257.61-467.48,46.13-211.65,281.16-388.35,507.73-331.18,90.4,22.78,168.71,73.32,222.69,141.91"/><path class="cls-2" d="M3593.5,1703.43c-85.56-41.49-137.6-137.36-117.1-236.79,24.17-117.3,141.29-193.68,256.84-167.52,42.56,9.63,78.92,31.67,106.43,61.4"/><path class="cls-2" d="M5421.22,1792.96c154.21-113.11,199.13-322.98,140.03-499.96-71.2-213.28-326.64-317.79-520.96-238.63-83.03,33.83-149.06,100.06-188.95,176.4"/><path class="cls-2" d="M5322.35,1614.59c69.68-54.51,98.51-156.64,62.73-250.51-42.21-110.73-161.6-166.74-265.59-122.58-38.32,16.26-68.9,43.73-89.71,77.29"/><path class="cls-2" d="M4819.12,1192.56c38.79-194.42-59.73-395.55-242.56-475.51-216.83-94.8-472.92,48.09-551.87,248.97-34.34,87.36-32.41,183.48-5.7,267.01"/><path class="cls-2" d="M4626.6,1137.55c13-95.44-37.17-192.28-130.25-229.5-109.79-43.93-237.09,13.51-279.14,125.97-15.49,41.41-17.34,84.38-8.04,124.08"/></g><g><path class="cls-2" d="M2237.86,4505.58c-7.35-4.01-14.7-7.98-21.98-12.22-319.41-186.34-454.54-605.19-246.97-918.7,207.5-313.41,642.92-343.18,931.68-113.93,6.61,5.24,13.01,10.65,19.42,16.04,83.16-108.85,125.77-162.51,212.95-268.16-6.27-5.59-12.62-11.28-18.81-16.78-426.93-379.02-1141.61-286.62-1462.93,165.95-340.41,479.47-65.01,1182,399.62,1437.18,7.11,3.91,14.95,7.55,22.41,11.37,63.65-121.5,96.57-181.69,164.6-300.74Z"/><path class="cls-2" d="M2053.63,4828.25c-123.6,144.03-338.79,175.36-503.53,91.79-186.87-94.76-300.55-351.32-191.38-547.47,43.69-78.51,110.86-140.4,189.31-173.22"/><path class="cls-2" d="M1886.02,4712.53c-59.95,64.41-163.02,82.65-252.08,36.84-105.08-54.06-149.28-179.95-96.39-279.94,19.47-36.82,49.27-64.74,84.17-82.17"/><path class="cls-2" d="M1523.8,4149.47c-197.89,18.38-393.45-105.75-445.35-294.21-57.51-208.84,68.48-474.53,295.66-529.2,90.63-21.84,183.46-13.48,263.13,22.16"/><path class="cls-2" d="M1487.43,3949.94c-95.04,3.02-185.67-57.68-213.73-155.25-33.11-115.09,35.1-237.16,149.56-267.69,42.16-11.25,84.6-8.63,122.77,4.91"/><path class="cls-2" d="M3147.4,3179.83c83.98-171.82,26.22-378.52-108.35-507.77-162.16-155.76-436.91-129.59-572.18,30.8-57.8,68.54-85.49,157.87-85.33,244"/><path class="cls-2" d="M2976.97,3067.84c36.36-80.64,14.43-184.48-60.87-250.97-88.83-78.44-220.58-72.54-292.13,14.89-26.37,32.21-40.69,70.74-43.52,110.13"/><path class="cls-2" d="M2335.25,2928.01c-56-190.18-236.71-322.48-435.75-308.32-236.05,16.83-396.4,262.36-372.96,476.92,10.19,93.32,56.57,177.53,119.04,239.08"/><path class="cls-2" d="M2139.22,2968.77c-32.84-90.55-122.27-152.98-221.98-142.68-117.63,12.12-203.65,122.14-188.62,241.26,5.53,43.87,23.85,82.77,50.55,113.61"/></g><g><path class="cls-2" d="M1589.29,7061.12c-8.37-.14-16.72-.23-25.15-.61-369.42-16.56-683.72-324.64-645.62-698.7,38.08-373.94,409.79-602.65,772.01-533.86,8.29,1.57,16.47,3.38,24.65,5.18,23.06-135.03,35.84-202.35,63.94-336.41-8.15-2.03-16.41-4.12-24.45-6.12-554.17-137.2-1144.05,276.75-1218.24,826.8-78.59,582.75,491.74,1076.82,1021.73,1086.84,8.11,.16,16.75-.27,25.13-.35-.11-137.16,1.07-205.76,5.99-342.79Z"/><path class="cls-2" d="M1576.12,7432.44c-42.5,184.97-218.49,312.72-403.2,315.28-209.5,2.93-429.39-171.41-423.88-395.82,2.2-89.82,32.92-175.84,87.13-241.35"/><path class="cls-2" d="M1373.93,7407.87c-23.15,84.89-105.94,148.94-206.08,149.77-118.17,.97-215.81-89.96-215.44-203.08,.13-41.65,13.54-80.22,36.34-111.87"/><path class="cls-2" d="M791.54,7077.63c-166.69,108.24-397.53,89.21-531.07-53.55-147.98-158.2-159.88-452,15.87-605.98,70.1-61.46,156.18-97.19,243.29-102.66"/><path class="cls-2" d="M666.61,6917.86c-82.75,46.84-191.21,35.21-261.4-38.14-82.8-86.52-79.13-226.3,8.03-306.54,32.1-29.56,70.9-46.96,110.99-52.71"/><path class="cls-2" d="M1778.55,5464.53c-5.49-191.16-152.69-347.35-331.91-399.25-215.97-62.56-447.08,88.29-492.32,293.18-19.33,87.55-2.33,179.51,37.83,255.71"/><path class="cls-2" d="M1575.59,5444.58c-5.28-88.31-72.95-170.05-170.53-193.93-115.11-28.17-229.02,38.28-251.75,148.94-8.38,40.77-3.15,81.55,12.65,117.74"/><path class="cls-2" d="M942.4,5618.99c-137.97-142.37-359.46-175.54-529.12-70.5-201.19,124.6-229.07,416.53-108.6,595.61,52.39,77.89,132.59,130.9,216.51,156.37"/><path class="cls-2" d="M787.76,5746.18c-71.16-64.91-179.36-78.64-262.86-23.18-98.53,65.4-123.56,202.79-54.9,301.29,25.28,36.28,59.59,62.2,97.55,77.1"/></g><g><path class="cls-2" d="M2202.63,9625.33c-7.47,3.77-14.91,7.56-22.55,11.15-334.8,157.02-756.27,30.29-896.37-318.63-140.06-348.8,82.79-724.06,435.49-831.48,8.07-2.46,16.16-4.66,24.23-6.87-42.34-130.27-62.3-195.83-99.72-327.59-8.16,1.99-16.45,3.98-24.49,5.95-554.45,136.05-884.39,776.71-694.46,1298.24,201.22,552.52,935.84,724.95,1409.78,487.53,7.26-3.63,14.7-8.02,22.09-11.99-63.84-121.4-94.67-182.69-154-306.31Z"/><path class="cls-2" d="M2363.54,9960.25c48.33,183.54-48.14,378.44-210.5,466.54-184.14,99.96-459.87,47.78-559.27-153.5-39.79-80.55-52.57-171-35.01-254.2"/><path class="cls-2" d="M2173.09,10032.45c18.95,85.93-24.59,181.11-112.88,228.39-104.18,55.77-232.9,20.64-285.14-79.7-19.24-36.94-25.29-77.32-19.81-115.95"/><path class="cls-2" d="M1503.93,10010.7c-97.29,173.3-310.54,263.73-495.12,199.39-204.54-71.31-351.62-325.92-267.57-543.95,33.51-86.99,93.12-158.64,167.72-203.96"/><path class="cls-2" d="M1319.06,9927.28c-51.5,79.93-152.94,120.04-249.18,87.7-113.53-38.13-175.24-163.6-135.34-275.16,14.69-41.09,40.95-74.52,73.78-98.25"/><path class="cls-2" d="M1628.24,8123.68c-93.7-166.72-296.62-236.61-479.44-199.27-220.31,44.98-354.84,285.95-299.68,488.39,23.57,86.5,81.36,160.03,152.33,208.84"/><path class="cls-2" d="M1439.26,8200.32c-45.71-75.74-143.62-116.67-241.12-92.47-115.01,28.55-185,140.33-153.7,248.87,11.53,40,35.1,73.67,65.91,98.38"/><path class="cls-2" d="M959.65,8649.02c-188.33-61.94-399.86,11.62-501.28,183.48-120.24,203.82-9.26,475.27,180.63,577.86,82.59,44.62,178.24,54.29,264.38,37.85"/><path class="cls-2" d="M881.83,8833.51c-93.17-24.41-195.36,13.72-243.53,101.63-56.85,103.7-15.17,236.99,91.4,292.29,39.25,20.37,81.67,27.39,122.21,22.94"/></g><g><path class="cls-2" d="M3937.37,11610.8c-4.87,6.81-9.69,13.63-14.78,20.35-223.48,294.62-655.57,378.28-941.77,134.43-286.11-243.76-263.18-679.6-.8-938.62,6-5.93,12.14-11.63,18.26-17.35-98.03-95.68-146.17-144.44-240.53-243.72-6.3,5.55-12.72,11.17-18.92,16.65-427.72,378.14-422.13,1098.74-11.6,1472.26,434.95,395.72,1165.55,207.01,1474.87-223.47,4.74-6.58,9.29-13.93,13.99-20.88-112.94-77.83-168.73-117.77-278.71-199.65Z"/><path class="cls-2" d="M4235.49,11832.58c128.08,140.06,133.25,357.46,30.42,510.92-116.6,174.08-384.99,256.01-566.54,123.99-72.67-52.83-126.01-126.98-149.13-208.81"/><path class="cls-2" d="M4100.41,11985.02c56.71,67.28,62.4,171.8,6.19,254.68-66.33,97.8-196.63,126.51-289.52,61.94-34.2-23.76-58.33-56.71-71.43-93.46"/><path class="cls-2" d="M3497.79,12276.72c-5.61,198.67-152.4,377.83-345.75,406.64-214.25,31.92-462.81-125.18-489.7-357.3-10.76-92.6,8.73-183.75,53.72-258.54"/><path class="cls-2" d="M3295.33,12288.78c-8.46,94.71-79.64,177.37-179.88,193.46-118.24,19-231.2-63.43-247.71-180.74-6.09-43.21,1.63-85.02,19.67-121.29"/><path class="cls-2" d="M2730.92,10548.09c-160.44-104.08-372.6-71.66-517.13,46.36-174.17,142.21-181.31,418.1-38.39,571.72,61.07,65.64,146.41,103.89,231.94,114.12"/><path class="cls-2" d="M2599.2,10703.78c-75.67-45.82-181.39-36.56-256.48,30.17-88.57,78.73-98.6,210.23-20.43,291.79,28.79,30.06,65.32,48.92,104.08,56.48"/><path class="cls-2" d="M2383.05,11323.96c-195.54,32.67-348.66,196.11-358.59,395.41-11.75,236.36,212.67,425.14,428.49,427.73,93.86,1.13,183.05-34.76,251.68-89.35"/><path class="cls-2" d="M2399.88,11523.48c-93.84,21.68-166.61,102.94-168.4,203.17-2.14,118.24,96.71,216.89,216.77,216.33,44.22-.2,85.04-13.7,118.87-36.48"/></g><g><path class="cls-2" d="M6396.1,12562.67c-1.14,8.29-2.25,16.57-3.63,24.89-60.97,364.73-404.68,639.61-771.42,556.7-366.62-82.88-548.86-479.44-436.91-830.73,2.56-8.04,5.34-15.94,8.11-23.85-131.26-39.16-196.55-59.97-326.25-104.02-3,7.84-6.07,15.8-9.02,23.53-203,533.59,136.83,1169.06,673.93,1309.01,569.03,148.26,1128.24-358.36,1202.08-883.28,1.14-8.03,1.76-16.65,2.68-24.99-136.18-16.43-204.13-25.87-339.57-47.26Z"/><path class="cls-2" d="M6763.13,12620.51c178.5,64.49,284.1,254.59,264.38,438.26-22.34,208.33-221.92,405.6-444.03,373.07-88.9-13.01-170.59-53.87-229.09-115.59"/><path class="cls-2" d="M6714.37,12818.26c81.48,33.22,135.09,123.12,123.84,222.63-13.28,117.42-115.32,203.39-227.57,189.39-41.33-5.15-78-23.11-106.68-49.56"/><path class="cls-2" d="M6316.34,13356.6c87.36,178.52,40.64,405.38-117.17,520.74-174.88,127.83-467.98,104.24-599.65-88.79-52.56-77-77.66-166.76-72.58-253.89"/><path class="cls-2" d="M6142.67,13461.37c36.53,87.79,11.91,194.06-69.37,254.89-95.87,71.77-234.19,51.28-303.33-44.92-25.47-35.43-38.07-76.04-38.95-116.53"/><path class="cls-2" d="M4833.97,12182.35c-190.43-17.6-363.23,109.71-436.35,281.37-88.13,206.86,33.76,454.47,231.7,524.07,84.58,29.74,177.92,23.95,258.4-6.74"/><path class="cls-2" d="M4789.7,12381.42c-88.3-5.4-177.61,51.92-213.07,145.91-41.84,110.87,10.39,231.97,117.51,267.87,39.46,13.23,80.57,12.96,118.4,1.64"/><path class="cls-2" d="M4886.51,13031.02c-157.96,119.8-217.59,335.68-133.76,516.77,99.44,214.74,385.88,277.61,578.18,179.61,83.64-42.62,145.93-115.85,181.33-196.08"/><path class="cls-2" d="M4994.14,13199.86c-73.02,62.81-99.68,168.57-54.7,258.15,53.05,105.69,186.42,147.11,292.47,90.81,39.06-20.73,68.93-51.66,88.3-87.55"/></g><g><path class="cls-2" d="M9015.55,12262.89c2.84,7.87,5.71,15.72,8.35,23.73,115.52,351.28-61.09,754.41-424.35,851.43-363.14,96.99-708.8-169.46-772.92-532.54-1.47-8.31-2.68-16.6-3.9-24.89-134.43,26.32-201.91,38.24-337.22,59.51,.99,8.34,1.97,16.81,2.95,25.03,68.23,566.81,664.45,971.57,1205.06,845.88,572.75-133.16,832.47-841.63,653.91-1340.74-2.72-7.64-6.19-15.56-9.24-23.37-128.21,48.74-192.77,71.96-322.64,115.96Z"/><path class="cls-2" d="M9367.42,12143.53c188.02-25.85,369.88,93.4,437.76,265.2,77.03,194.85-8,462.27-219.79,536.69-84.76,29.79-176.09,31.57-256.57,4.12"/><path class="cls-2" d="M9416.14,12341.29c87.58-8.45,176.83,46.24,213.11,139.58,42.81,110.14-7.59,233.69-113.49,273.45-38.99,14.65-79.8,15.79-117.49,5.69"/><path class="cls-2" d="M9313.89,13002.94c160.31,117.47,224.38,340.06,138.25,515.55-95.44,194.46-365.93,309.77-572.23,200.05-82.32-43.75-146.26-111.57-182.26-191.08"/><path class="cls-2" d="M9208.79,13176.41c73.14,60.76,100.73,166.3,57.03,257.94-51.54,108.1-183.53,154.24-289.46,101.19-39.02-19.54-69.04-49.64-88.64-85.09"/><path class="cls-2" d="M7455.61,12652.09c-176.8,72.92-270.64,265.94-255.61,451.92,18.09,224.12,241.09,386.72,448.71,356.37,88.71-12.97,168.67-61.48,225.68-126.05"/><path class="cls-2" d="M7508.92,12848.93c-80.7,36.25-133.13,128.51-120.86,228.22,14.48,117.62,117,200.57,228.53,182.58,41.09-6.62,77.37-25.97,105.6-53.58"/><path class="cls-2" d="M7896.53,13379.13c-84.19,179.49-36.67,398.35,121.72,519.74,187.84,143.93,470.69,66.48,595.42-109.66,54.25-76.61,75.38-170.4,69.44-257.89"/><path class="cls-2" d="M8070.29,13478.61c-35.46,89.55-9.93,195.59,71.54,254,96.09,68.93,233.43,43.62,301.17-55.51,24.95-36.5,37.03-77.77,37.5-118.55"/></g><g><path class="cls-2" d="M11195.64,10780.12c6.18,5.65,12.36,11.26,18.42,17.13,265.53,257.36,296.5,696.39,19.93,951.11-276.47,254.64-706.36,179.35-931.87-112.34-5.17-6.67-10.09-13.46-15.02-20.22-106.8,85.78-161.01,127.69-270.94,209.4,4.75,6.92,9.55,13.97,14.24,20.79,323.82,470.18,1039.85,551.5,1460.13,188.97,445.26-384.08,345.99-1132.1-44.07-1491.05-5.96-5.5-12.71-10.91-19.04-16.4-90.88,102.74-137.25,153.3-231.79,252.61Z"/><path class="cls-2" d="M11451.74,10510.91c154.47-110.27,370.92-89.19,510.86,31.38,158.76,136.73,207.74,413.04,54.8,577.36-61.2,65.77-141.24,109.79-225.27,122.88"/><path class="cls-2" d="M11586.78,10663.38c73.62-48.19,178.06-41.23,253.57,24.56,89.09,77.63,101.88,210.44,26.59,294.87-27.71,31.09-63.33,51.06-101.39,59.64"/><path class="cls-2" d="M11803.73,11296.76c196.54,29.51,356.71,196.84,362,392.24,5.86,216.54-180.06,444.35-413.72,443.06-93.22-.48-181.35-30.82-250.18-84.49"/><path class="cls-2" d="M11791.29,11499.2c93,19.81,166.47,100.44,170.36,201.89,4.6,119.67-90.83,221.86-209.28,224.12-43.63,.84-84.2-11.87-118.03-34.15"/><path class="cls-2" d="M9995.26,11849.68c-122.66,146.73-116.05,361.25-16.31,518.95,120.17,190.04,393.2,230.38,562.93,107.02,72.52-52.71,120.78-132.82,141.25-216.49"/><path class="cls-2" d="M10133.93,11999.2c-54.61,69.6-58.16,175.66-.96,258.24,67.48,97.42,196.81,123.22,287.2,55.46,33.31-24.96,56.44-58.95,68.61-96.51"/><path class="cls-2" d="M10723.54,12288.53c8.86,198.05,152.66,369.76,349.31,403.64,233.22,40.15,447.67-159.87,476.26-373.81,12.44-93.04-12.44-185.91-58.36-260.62"/><path class="cls-2" d="M10923.63,12295.87c10.22,95.77,82.11,177.8,181.39,191.66,117.12,16.38,226.97-69.86,240.88-189.11,5.13-43.92-3.35-86.07-21.89-122.4"/></g><g><path class="cls-2" d="M12436.94,8454.05c8.09,2.14,16.18,4.23,24.27,6.61,354.72,104.48,586.16,478.83,459.65,832.9-126.47,353.96-542.11,487.07-877.34,333.59-7.68-3.51-15.18-7.23-22.7-10.93-54.7,125.59-83.23,187.89-142.59,311.33,7.42,3.92,14.95,7.93,22.28,11.79,505.23,265.83,1177.03,5.08,1380.7-511.23,215.77-547.01-219.75-1163.21-731.95-1299.78-7.84-2.1-16.32-3.75-24.48-5.68-32.72,133.2-50.28,199.52-87.85,331.39Z"/><path class="cls-2" d="M12538.59,8096.67c85.53-169.43,286.98-251.34,466.93-209.62,204.12,47.29,375.9,269.19,316.83,485.76-23.63,86.68-74.04,162.85-142.36,213.49"/><path class="cls-2" d="M12729.03,8168.91c42.8-76.88,138.51-119.26,235.94-96.1,114.96,27.34,188.01,138.99,160.58,248.74-10.09,40.41-32.34,74.64-62.06,99.93"/><path class="cls-2" d="M13215.47,8628.93c187.75-65.2,407.32,8.52,502.82,179.08,105.82,189.01,47.07,477.13-160.43,584.58-82.77,42.9-174.9,56.99-260.79,41.45"/><path class="cls-2" d="M13298.53,8813.96c91.55-25.68,194.08,11.57,244.67,99.59,59.69,103.82,22.68,238.66-81.16,295.71-38.24,21.02-80.07,28.62-120.38,24.62"/><path class="cls-2" d="M11871.1,9958.95c-40.42,186.92,65.13,373.8,226.72,467.08,194.73,112.43,455.22,21.27,548.18-166.84,39.71-80.38,45.22-173.74,24.46-257.33"/><path class="cls-2" d="M12063.38,10026.9c-16.01,87,30.14,182.57,119.16,229.11,105.02,54.9,231.53,17.64,280.08-84.36,17.9-37.58,22.58-78.42,15.9-117.34"/><path class="cls-2" d="M12719.91,10009.08c99.89,171.25,307,256.46,496.88,195.07,225.16-72.83,322.1-349.6,247.99-552.32-32.23-88.17-97.41-158.83-172.79-203.64"/><path class="cls-2" d="M12900.5,9922.6c53.55,80.06,155.33,119.28,249.68,85.41,111.31-39.92,168.5-167.33,125.41-279.39-15.87-41.27-42.97-74.66-76.27-98.21"/></g><g><path class="cls-2" d="M12455.08,5817.56c8.16-1.87,16.29-3.78,24.56-5.43,362.64-72.33,741.55,151.58,794.07,523.89,52.51,372.19-253.66,683.21-621.82,703.1-8.43,.46-16.8,.66-25.17,.87,9.93,136.62,13.62,205.05,18.43,341.93,8.4,.02,16.92,.07,25.2,.09,570.9,.59,1044.57-542.49,984.97-1094.32-63.15-584.62-735.15-927.85-1252.14-810.75-7.92,1.78-16.19,4.26-24.32,6.35,32.93,133.15,48.2,200.04,76.22,334.26Z"/><path class="cls-2" d="M12379,5453.87c-3-189.77,137.31-355.92,316.03-402.61,202.71-52.99,457.94,63.67,506.28,282.88,19.36,87.73,10.12,178.61-26.84,255.19"/><path class="cls-2" d="M12581.2,5429.35c2.16-87.96,67.22-169.97,164.25-194.74,114.5-29.22,231.07,35.7,257.78,145.62,9.84,40.47,6.05,81.12-8.51,117.32"/><path class="cls-2" d="M13225.7,5610.61c135.94-144.99,364.63-181.75,528.45-75.1,181.54,118.19,263.41,400.6,129.62,592.17-53.35,76.45-128.38,131.75-211.65,157.9"/><path class="cls-2" d="M13385.24,5735.85c69.13-65.28,177.23-79.95,262.93-25.52,101.1,64.19,130.99,200.79,65.56,299.55-24.1,36.38-57.6,62.56-95.15,77.74"/><path class="cls-2" d="M12653.41,7413.04c51.08,184.3,231.38,300.72,417.82,308.22,224.67,9.05,412.96-192.72,407.86-402.48-2.19-89.63-40.7-174.85-97.93-239.22"/><path class="cls-2" d="M12855.25,7383.85c26.26,84.48,111.53,147.65,211.98,147.49,118.51-.2,213.21-91.97,208.79-204.86-1.62-41.59-16.45-79.93-40.46-111.29"/><path class="cls-2" d="M13428.3,7062.97c168.03,105.21,391.02,84.41,530.62-58.18,165.53-169.13,122.73-459.24-37.09-604.3-69.51-63.09-160.07-95.37-247.64-100.02"/><path class="cls-2" d="M13548,6902.47c84.62,46,192.97,33.43,260.77-40.4,80.01-87.08,71.44-226.47-18.8-305.67-33.23-29.17-72.74-46.14-113.17-51.52"/></g><g><path class="cls-2" d="M11245.9,3474.64c6.36-5.45,12.67-10.91,19.22-16.22,287.49-232.58,727.05-210.4,946.58,94.86,219.46,305.15,92.9,722.83-223.85,911.54-7.25,4.32-14.57,8.39-21.89,12.47,72.28,116.36,107.35,175.23,175.22,294.2,7.45-3.88,15.02-7.8,22.36-11.63,505.78-264.79,672.81-965.79,363.59-1426.71-327.6-488.31-1082.14-479.92-1485.49-135.98-6.18,5.26-12.36,11.3-18.58,16.92,91.03,102.6,135.64,154.73,222.83,260.55Z"/><path class="cls-2" d="M11009.53,3187.96c-90.85-166.64-43.83-378.96,92.73-503.36,154.87-141.12,435.07-156.44,579.75,15.19,57.91,68.69,91.96,153.45,94.83,238.44"/><path class="cls-2" d="M11177.16,3072.28c-38.96-78.89-19.47-181.74,54.94-248.76,87.81-79.08,221.19-75.77,295.93,9.15,27.52,31.26,43.06,69.02,46.99,107.84"/><path class="cls-2" d="M11832.08,2933.27c52.99-191.55,238.4-330.38,433.02-312.08,215.67,20.28,419.41,232.3,389.97,464.11-11.72,92.49-52.45,176.32-114.03,238.17"/><path class="cls-2" d="M12031.54,2970.01c30.88-89.93,119.77-153.15,220.95-144.79,119.35,9.85,209.3,116.91,197.26,234.77-4.43,43.41-21.93,82.16-48.12,113.05"/><path class="cls-2" d="M12162.98,4795.2c130.87,139.45,344.63,158.75,513.2,78.75,203.14-96.39,276.1-362.56,174.1-545.92-43.59-78.34-117.29-135.91-197.89-166.31"/><path class="cls-2" d="M12328.12,4675.55c62.51,62.6,167.37,78.91,256.24,32.08,104.84-55.25,146.05-180.52,89.67-278.42-20.76-36.08-51.72-63.13-87.54-79.74"/><path class="cls-2" d="M12686.42,4125.12c197.68,15.07,385.46-106.97,442.8-298.11,67.97-226.68-104.75-463.68-313.67-517.84-90.87-23.56-186.05-10.06-265.75,26.52"/><path class="cls-2" d="M12717.82,3927.37c96.31,1.4,186.4-60.08,212.13-156.96,30.38-114.29-41.99-233.73-158.7-261.92-42.98-10.39-85.85-7.05-124.15,6.98"/></g><g><path class="cls-2" d="M9086.42,1962.02c3.1-7.78,6.15-15.55,9.48-23.3,146.48-339.54,545.99-524.17,882.23-355.91,336.13,168.21,418.17,596.86,225.4,911.15-4.41,7.2-9,14.2-13.58,21.21,118.08,69.44,176.49,105.27,291.87,179.08,4.79-6.9,9.67-13.89,14.39-20.69,324.8-469.51,146.92-1167.84-341.08-1432.26-517.01-280.13-1181.22,77.94-1378.53,569.94-3.03,7.53-5.69,15.75-8.59,23.62,128.29,48.54,192.01,73.97,318.39,127.15Z"/><path class="cls-2" d="M8743.89,1818.03c-157.88-105.33-214.92-315.19-151.81-488.79,71.55-196.93,312.53-340.71,520.41-255.97,83.2,33.9,152.74,93.13,194.77,167.06"/><path class="cls-2" d="M8838.57,1637.69c-71.16-51.75-101.7-151.87-66.96-245.8,41-110.83,160.64-169.89,266.28-129.43,38.89,14.89,70.2,41.1,91.72,73.65"/><path class="cls-2" d="M9353.86,1210.24c-42.1-194.24,57.55-403.33,238.39-477.57,200.39-82.26,479.32,10.79,560.98,229.72,32.61,87.34,35.49,180.5,9.71,263.88"/><path class="cls-2" d="M9547.56,1150.09c-14.45-93.98,34.88-191.27,128.36-230.88,110.26-46.74,239.66,6.26,283.77,116.21,16.25,40.5,18.76,82.94,9.93,122.47"/><path class="cls-2" d="M10512.14,2705.13c180.69,62.66,378.93-19.59,491.01-168.77,135.08-179.76,75.98-449.34-99.55-564.3-75-49.11-167.02-65.84-252.51-55.3"/><path class="cls-2" d="M10602.77,2522.44c84.44,26.38,184.87-7.91,241.8-90.68,67.16-97.64,45.42-227.71-49.99-288.21-35.15-22.29-75.13-31.87-114.57-29.93"/><path class="cls-2" d="M10664.22,1868.55c182.04-78.52,291.6-273.85,253.54-469.74-45.16-232.3-308.23-361.89-518.4-312.75-91.41,21.37-169.42,77.56-222.99,146.99"/><path class="cls-2" d="M10600.13,1678.85c85.93-43.51,137.13-139.82,114.89-237.56-26.21-115.32-145.8-187.45-262.24-158.17-42.88,10.78-79.29,33.66-106.69,63.87"/></g></svg>